<?xml version="1.0" standalone="no"?>
<!DOCTYPE svg PUBLIC "-//W3C//DTD SVG 1.1//EN" "http://www.w3.org/Graphics/SVG/1.1/DTD/svg11.dtd" >
<svg xmlns="http://www.w3.org/2000/svg" xmlns:xlink="http://www.w3.org/1999/xlink" version="1.1">
<metadata>
Created by FontForge 20170910 at Tue Mar  7 04:18:52 2017
 By Jimmy Wärting
Copyright (c) 1991, 1998 Adobe Systems Incorporated. All Rights Reserved.Berthold Akzidenz-Grotesk is either a registered trademark or trademark of Berthold Types Limited in the United States and/or other countries.
</metadata>
<defs>
<font id="AkzidenzGrotesk" horiz-adv-x="271" >
  <font-face 
    font-family="Akzidenz Grotesk"
    font-weight="400"
    font-stretch="normal"
    units-per-em="1000"
    panose-1="2 11 5 0 0 0 0 0 0 0"
    ascent="750"
    descent="-250"
    x-height="471"
    cap-height="706"
    bbox="-155 -250 1227 944"
    underline-thickness="50"
    underline-position="-100"
    stemh="72"
    stemv="79"
    unicode-range="U+0020-FB02"
  />
<missing-glyph 
 />
    <glyph glyph-name=".notdef" 
 />
    <glyph glyph-name="space" unicode=" " 
 />
    <glyph glyph-name="space" unicode="&#xa0;" 
 />
    <glyph glyph-name="exclam" unicode="!" 
d="M139 147l-24 282v277h79v-288l-24 -271h-31zM115 0v90h79v-90h-79z" />
    <glyph glyph-name="quotedbl" unicode="&#x22;" horiz-adv-x="396" 
d="M343 690l-40 -256h-23l-39 244c-1 7 -1 13 -1 19c0 38 30 52 54 52c44 0 49 -32 49 -48v-11zM156 690l-41 -256h-23l-39 244c0 7 -1 13 -1 19c0 38 31 52 55 52c47 0 49 -36 49 -59z" />
    <glyph glyph-name="numbersign" unicode="#" horiz-adv-x="667" 
d="M450 229l-33 -229h-79l33 229h-111l-33 -229h-81l35 229h-139v77h149l16 108h-142v77h152l31 214h80l-31 -214h110l32 214h78l-30 -214h138v-77h-148l-16 -108h139v-77h-150zM270 306h112l15 108h-111z" />
    <glyph glyph-name="dollar" unicode="$" horiz-adv-x="625" 
d="M288 826h67v-111c60 -13 100 -25 143 -58c64 -50 79 -105 85 -130l-93 -9c-36 107 -112 118 -135 121v-236c100 -27 245 -80 245 -217c0 -131 -129 -203 -237 -203h-8v-119h-67v119c-141 14 -240 96 -267 221l101 12c25 -119 133 -149 166 -155v253
c-109 34 -224 87 -224 207c0 49 23 100 67 137c54 45 121 53 157 57v111zM288 422v220c-81 -9 -123 -59 -123 -109c0 -70 63 -92 123 -111zM355 295v-237c100 9 142 55 142 115s-47 92 -142 122z" />
    <glyph glyph-name="percent" unicode="%" horiz-adv-x="896" 
d="M849 214c-2 -126 -53 -223 -162 -223c-160 0 -164 190 -164 228c0 98 41 231 162 231c62 0 164 -46 164 -236zM784 213c0 30 -2 59 -8 87c-4 16 -22 91 -91 91c-71 0 -87 -79 -90 -97c-5 -25 -7 -49 -7 -74c0 -55 6 -172 100 -172c93 0 96 138 96 165zM566 682l54 -26
l-317 -685l-55 26zM353 450c-2 -191 -99 -226 -163 -226c-117 0 -164 121 -164 227c0 113 51 232 162 232c85 0 165 -71 165 -233zM288 450c0 72 -17 176 -99 176c-92 0 -98 -120 -98 -170c0 -29 0 -174 99 -174c80 0 98 91 98 168z" />
    <glyph glyph-name="ampersand" unicode="&#x26;" horiz-adv-x="604" 
d="M467 325h76c-5 -38 -22 -114 -76 -197c14 -16 44 -52 97 -52c12 0 21 2 29 3v-83c-10 -2 -20 -4 -37 -4c-69 0 -112 31 -147 72c-53 -44 -109 -73 -177 -73c-96 0 -193 70 -193 193c0 76 41 146 104 185c8 6 51 30 59 37c-27 73 -33 89 -33 130c0 94 66 164 158 164
c81 0 146 -57 146 -140c0 -102 -97 -156 -154 -187c31 -61 64 -121 101 -179c30 57 43 111 47 131zM283 443c57 25 110 67 110 127c0 44 -31 70 -66 70c-37 0 -77 -29 -77 -87c0 -35 19 -82 33 -110zM236 337c-62 -29 -113 -76 -113 -143c0 -52 40 -126 123 -126
c56 0 93 32 116 52c-21 31 -101 162 -126 217z" />
    <glyph glyph-name="quoteright" unicode="&#x2019;" horiz-adv-x="229" 
d="M63 706h99v-52c0 -98 -15 -142 -41 -214h-47c7 17 28 74 33 156h-44v110z" />
    <glyph glyph-name="parenleft" unicode="(" horiz-adv-x="313" 
d="M235 765h65c-78 -136 -132 -287 -132 -444c0 -144 53 -325 132 -447h-65c-42 58 -148 244 -148 444c0 118 42 258 97 360c6 12 43 73 51 87z" />
    <glyph glyph-name="parenright" unicode=")" horiz-adv-x="313" 
d="M77 -126h-65c113 191 132 354 132 444c0 92 -21 181 -36 231c-33 112 -72 177 -96 216h65c121 -183 148 -348 148 -445c0 -162 -55 -301 -148 -446z" />
    <glyph glyph-name="asterisk" unicode="*" horiz-adv-x="375" 
d="M158 706h60v-118l114 36l17 -59l-114 -36l75 -93l-49 -39l-71 95l-67 -95l-51 32l71 100l-117 36l18 59l114 -36v118z" />
    <glyph glyph-name="plus" unicode="+" horiz-adv-x="667" 
d="M372 251v-251h-80v251h-249v80h249v249h80v-249h251v-80h-251z" />
    <glyph glyph-name="comma" unicode="," horiz-adv-x="229" 
d="M63 109h99v-51c0 -94 -13 -133 -42 -214h-46c8 21 28 77 32 156h-43v109z" />
    <glyph glyph-name="hyphen" unicode="-" horiz-adv-x="292" 
d="M45 333h202v-76h-202v76z" />
    <glyph glyph-name="hyphen" unicode="&#xad;" horiz-adv-x="292" 
d="M45 333h202v-76h-202v76z" />
    <glyph glyph-name="period" unicode="." horiz-adv-x="229" 
d="M64 113h99v-113h-99v113z" />
    <glyph glyph-name="slash" unicode="/" horiz-adv-x="333" 
d="M246 702h75l-231 -702h-77z" />
    <glyph glyph-name="zero" unicode="0" horiz-adv-x="583" 
d="M535 337c0 -202 -91 -343 -243 -343c-153 0 -243 142 -243 337c0 199 87 349 241 349c129 0 245 -115 245 -343zM445 336c0 118 -32 266 -152 266c-25 0 -79 -5 -117 -72c-33 -58 -38 -147 -38 -194c0 -63 8 -134 37 -189c13 -24 46 -76 118 -76c142 0 152 205 152 265z
" />
    <glyph glyph-name="one" unicode="1" horiz-adv-x="583" 
d="M290 674h67v-674h-94v493h-145v62c95 1 154 20 172 119z" />
    <glyph glyph-name="two" unicode="2" horiz-adv-x="583" 
d="M196 77h324v-77h-441v86c80 41 149 99 214 161c67 63 126 134 126 225c0 81 -47 130 -127 130c-78 0 -127 -42 -127 -133c0 -32 7 -61 12 -80h-88c-6 20 -12 41 -12 80c0 53 23 211 217 211c141 0 218 -102 218 -212c0 -140 -117 -239 -176 -289
c-50 -42 -59 -48 -140 -102z" />
    <glyph glyph-name="three" unicode="3" horiz-adv-x="583" 
d="M152 448l-89 5c13 179 110 227 222 227c158 0 224 -97 224 -188c0 -68 -30 -111 -82 -142c26 -13 102 -50 102 -161c0 -92 -62 -195 -235 -195c-81 0 -163 23 -211 87c-38 51 -42 106 -43 142h91c3 -63 14 -150 157 -150c21 0 73 2 109 31c31 25 38 61 38 90
c0 114 -111 114 -157 114c-25 0 -37 -1 -57 -3v82c18 -1 28 -2 50 -2c30 0 148 0 148 107c0 71 -60 114 -135 114c-20 0 -64 -2 -97 -39c-30 -34 -33 -76 -35 -119z" />
    <glyph glyph-name="four" unicode="4" horiz-adv-x="583" 
d="M435 238h98v-76h-98v-162h-88v162h-305v80l323 432h70v-436zM133 238h218v301z" />
    <glyph glyph-name="five" unicode="5" horiz-adv-x="583" 
d="M94 307v367h384v-79h-317l-8 -178c19 17 64 55 150 55c150 0 222 -122 222 -237c0 -104 -64 -241 -238 -241c-120 0 -225 67 -240 216l89 6c8 -65 44 -145 147 -145c93 0 150 67 150 168c0 93 -55 155 -147 155c-87 0 -123 -62 -133 -87h-59z" />
    <glyph glyph-name="six" unicode="6" horiz-adv-x="583" 
d="M510 506l-88 -12c-4 24 -20 110 -117 110c-132 0 -151 -148 -157 -241c42 54 97 82 167 82c110 0 213 -81 213 -217c0 -124 -84 -234 -224 -234c-46 0 -123 12 -181 91c-31 43 -61 105 -61 244c0 38 3 85 14 139c8 37 46 212 228 212c147 0 189 -111 206 -174zM439 222
c0 72 -46 142 -136 142c-93 0 -141 -70 -141 -144c0 -81 57 -146 143 -146c93 0 134 77 134 148z" />
    <glyph glyph-name="seven" unicode="7" horiz-adv-x="583" 
d="M96 466v208h413v-97c0 -34 -5 -38 -39 -99l-35 -61c-78 -146 -145 -282 -161 -417h-106c21 137 92 275 204 461l30 46c27 42 34 54 33 78v9h-267v-128h-72z" />
    <glyph glyph-name="eight" unicode="8" horiz-adv-x="583" 
d="M437 362c30 -18 96 -56 96 -159c0 -110 -77 -209 -241 -209c-165 0 -240 103 -240 206c0 90 53 136 92 162c-35 23 -75 60 -75 139c0 160 164 179 225 179c177 0 220 -99 220 -178c0 -94 -58 -129 -77 -140zM424 502c-1 89 -87 101 -135 101c-89 0 -131 -42 -131 -99
c0 -99 94 -107 134 -107c96 0 132 40 132 105zM440 203c-1 77 -58 119 -151 119c-106 0 -146 -59 -146 -121c0 -80 64 -125 151 -125c90 0 146 50 146 127z" />
    <glyph glyph-name="nine" unicode="9" horiz-adv-x="583" 
d="M73 163l87 16c10 -37 29 -109 120 -109c148 0 160 197 160 234c-61 -79 -131 -86 -168 -86c-120 0 -220 84 -220 225c0 120 74 234 227 234c188 0 246 -157 246 -333c0 -103 -23 -350 -250 -350c-36 0 -78 6 -121 38c-55 41 -72 99 -81 131zM431 432
c0 78 -44 170 -151 170c-97 0 -139 -79 -139 -162c0 -96 67 -142 140 -142c77 0 147 46 150 134z" />
    <glyph glyph-name="colon" unicode=":" 
d="M106 489h98v-112h-98v112zM106 113h98v-113h-98v113z" />
    <glyph glyph-name="semicolon" unicode=";" 
d="M107 490h99v-110h-99v110zM107 111h99v-61c0 -98 -13 -146 -38 -204h-46c16 50 25 102 25 154h-40v111z" />
    <glyph glyph-name="less" unicode="&#x3c;" horiz-adv-x="667" 
d="M667 83v-86l-667 313v86l667 313v-87l-567 -269z" />
    <glyph glyph-name="equal" unicode="=" horiz-adv-x="667" 
d="M667 240v-78h-667v78h667zM667 421v-79h-667v79h667z" />
    <glyph glyph-name="greater" unicode="&#x3e;" horiz-adv-x="667" 
d="M667 310l-667 -313v86l567 270l-567 269v87l667 -313v-86z" />
    <glyph glyph-name="question" unicode="?" horiz-adv-x="562" 
d="M336 302v-152h-79v236c28 0 186 -16 186 121c0 87 -77 130 -149 130c-63 0 -136 -31 -136 -152v-14h-87c0 192 138 241 224 241c110 0 230 -75 230 -216c0 -150 -110 -186 -189 -194zM252 97h88v-97h-88v97z" />
    <glyph glyph-name="at" unicode="@" horiz-adv-x="896" 
d="M787 76l32 -40c-109 -107 -234 -160 -365 -160c-164 0 -385 91 -385 360c0 239 186 476 462 476c181 0 296 -116 296 -290c0 -53 -14 -148 -62 -229c-50 -85 -117 -123 -168 -123c-77 0 -82 60 -84 85c-28 -38 -75 -84 -144 -84c-62 0 -130 45 -130 160
c0 151 99 286 211 286c79 0 104 -59 115 -84l15 62h68l-33 -150c-22 -109 -28 -140 -28 -173c0 -34 19 -43 30 -43c56 0 152 134 152 292c0 140 -88 236 -247 236c-212 0 -397 -194 -397 -422c0 -227 183 -304 326 -304c114 0 230 44 336 145zM541 347c0 76 -44 106 -83 106
c-86 0 -140 -122 -140 -216c0 -91 58 -102 78 -102c76 0 142 99 145 212z" />
    <glyph glyph-name="A" unicode="A" horiz-adv-x="646" 
d="M535 0l-77 216h-269l-79 -216h-100l269 706h98l257 -706h-99zM219 295h211l-103 294z" />
    <glyph glyph-name="B" unicode="B" horiz-adv-x="688" 
d="M77 0v706h291c41 0 66 0 95 -5c71 -14 156 -67 156 -176c0 -86 -55 -137 -108 -153c27 -8 130 -39 130 -177c0 -34 -5 -110 -80 -158c-55 -36 -104 -37 -208 -37h-276zM385 623h-219v-214h147c134 0 207 8 207 111c0 101 -97 103 -135 103zM339 329h-173v-246h209
c135 3 169 35 169 119c0 82 -60 109 -68 113c-28 11 -50 14 -137 14z" />
    <glyph glyph-name="C" unicode="C" horiz-adv-x="750" 
d="M639 268l103 -12c-30 -134 -143 -274 -348 -274c-233 0 -345 175 -345 371c0 200 115 371 358 371c244 0 304 -169 321 -216l-95 -20c-20 56 -76 161 -227 161c-75 0 -147 -30 -194 -89c-45 -57 -59 -130 -59 -202c0 -175 89 -298 252 -298c105 0 212 59 234 208z" />
    <glyph glyph-name="D" unicode="D" horiz-adv-x="708" 
d="M78 0v706h221c100 0 189 0 271 -87c85 -91 88 -216 88 -266c0 -48 -2 -188 -99 -278c-81 -75 -179 -75 -238 -75h-243zM285 623h-111v-542h125c62 0 109 3 156 29s107 90 107 242c0 116 -34 224 -147 259c-39 12 -80 12 -130 12z" />
    <glyph glyph-name="E" unicode="E" horiz-adv-x="604" 
d="M513 322h-344v-240h408v-82h-499v706h487v-83h-396v-218h344v-83z" />
    <glyph glyph-name="F" unicode="F" horiz-adv-x="542" 
d="M506 332h-334v-332h-94v707h453v-84h-359v-209h334v-82z" />
    <glyph glyph-name="G" unicode="G" horiz-adv-x="812" 
d="M413 373h328v-373h-81v99c-59 -86 -162 -117 -258 -117c-218 0 -352 153 -352 362c0 180 108 380 365 380c89 0 180 -29 246 -90c47 -44 69 -92 80 -114l-97 -26c-13 33 -50 152 -226 152c-198 0 -265 -164 -265 -292c0 -133 69 -290 261 -290c89 0 246 43 246 230h-247
v79z" />
    <glyph glyph-name="H" unicode="H" horiz-adv-x="729" 
d="M557 0v323h-384v-323h-94v707h94v-301h384v301h95v-707h-95z" />
    <glyph glyph-name="I" unicode="I" horiz-adv-x="229" 
d="M67 706h95v-706h-95v706z" />
    <glyph glyph-name="J" unicode="J" horiz-adv-x="375" 
d="M201 707h96v-519c0 -54 0 -102 -41 -147c-49 -54 -113 -58 -152 -58c-49 0 -79 7 -95 10v102c20 -11 48 -20 83 -20c101 0 109 51 109 153v479z" />
    <glyph glyph-name="K" unicode="K" horiz-adv-x="625" 
d="M510 0l-249 347l-100 -101v-246h-94v706h94v-345l335 345h116l-286 -292l298 -414h-114z" />
    <glyph glyph-name="L" unicode="L" horiz-adv-x="521" 
d="M162 707v-623h342v-84h-436v707h94z" />
    <glyph glyph-name="M" unicode="M" horiz-adv-x="812" 
d="M624 706h121v-706h-80v592l-223 -592h-73l-209 583v-583h-92v706h121l217 -579z" />
    <glyph glyph-name="N" unicode="N" horiz-adv-x="708" 
d="M545 706h85v-706h-85l-379 574v-574h-88v706h88l379 -566v566z" />
    <glyph glyph-name="O" unicode="O" horiz-adv-x="812" 
d="M762 360c0 -212 -124 -378 -358 -378c-215 0 -353 151 -353 371c0 262 181 371 356 371c198 0 355 -134 355 -364zM660 359c-1 171 -90 289 -253 289c-178 0 -254 -137 -254 -296c0 -148 73 -296 255 -296c191 0 252 158 252 303z" />
    <glyph glyph-name="P" unicode="P" horiz-adv-x="625" 
d="M371 299h-204v-299h-91v706h305c35 0 75 0 112 -12c83 -29 121 -107 121 -188c0 -77 -36 -167 -130 -196c-35 -11 -70 -11 -113 -11zM167 625v-243h197c54 0 91 0 123 32c24 24 34 59 34 94c0 24 -4 62 -37 90c-31 26 -66 27 -99 27h-218z" />
    <glyph glyph-name="Q" unicode="Q" horiz-adv-x="812" 
d="M747 -36l-113 95c-51 -40 -121 -77 -232 -77c-227 0 -355 166 -355 371c0 213 134 371 360 371c235 0 355 -165 355 -371c0 -99 -24 -163 -65 -225l109 -94zM661 352c-1 194 -111 299 -256 299c-147 0 -256 -112 -256 -296c0 -177 99 -297 258 -297c142 0 254 99 254 294
z" />
    <glyph glyph-name="R" unicode="R" horiz-adv-x="667" 
d="M352 300h-182v-300h-92v706h262c98 0 156 -2 211 -43c52 -39 74 -98 74 -163c0 -165 -133 -188 -167 -194l198 -306h-112zM170 628v-250h187c130 0 174 45 174 121c0 18 -2 66 -42 99c-37 31 -83 30 -137 30h-182z" />
    <glyph glyph-name="S" unicode="S" horiz-adv-x="667" 
d="M382 314l-59 12c-102 21 -252 55 -252 201c0 70 38 114 65 137c63 54 140 60 189 60c50 0 126 -5 190 -52c70 -51 84 -123 91 -166l-95 -6c-1 22 -4 78 -57 117c-36 26 -81 34 -126 34c-85 0 -160 -35 -160 -111c0 -79 78 -95 139 -110l78 -20c54 -14 83 -19 111 -31
c106 -44 122 -129 122 -176c0 -66 -27 -128 -90 -171c-68 -46 -149 -50 -192 -50c-64 0 -283 10 -299 243l101 13c1 -27 4 -89 57 -136c40 -35 93 -47 145 -47c100 0 176 49 176 141c0 82 -65 104 -134 118z" />
    <glyph glyph-name="T" unicode="T" horiz-adv-x="542" 
d="M528 624h-211v-624h-95v624h-212v83h518v-83z" />
    <glyph glyph-name="U" unicode="U" horiz-adv-x="688" 
d="M516 707h95v-451c0 -29 -2 -60 -9 -92c-20 -85 -99 -181 -264 -181c-52 0 -150 8 -217 94c-47 60 -46 113 -46 192v438h95v-425v-27c-1 -54 4 -99 36 -138c42 -52 104 -55 132 -55c83 0 148 40 169 117c8 31 8 60 9 105v423z" />
    <glyph glyph-name="V" unicode="V" horiz-adv-x="604" 
d="M298 116l194 590h100l-249 -706h-94l-238 706h100z" />
    <glyph glyph-name="W" unicode="W" horiz-adv-x="1021" 
d="M741 121l165 585h97l-216 -706h-92l-186 585l-180 -585h-94l-217 706h99l167 -585l179 585h92z" />
    <glyph glyph-name="X" unicode="X" horiz-adv-x="625" 
d="M579 706l-215 -336l241 -370h-111l-183 287l-181 -287h-109l235 370l-222 336h112l165 -254l157 254h111z" />
    <glyph glyph-name="Y" unicode="Y" horiz-adv-x="625" 
d="M611 706l-254 -383v-323h-95v323l-249 383h112l185 -299l189 299h112z" />
    <glyph glyph-name="Z" unicode="Z" horiz-adv-x="604" 
d="M53 706h508v-88l-434 -533h444v-85h-553v92l436 527h-401v87z" />
    <glyph glyph-name="bracketleft" unicode="[" horiz-adv-x="313" 
d="M302 683h-104v-734h104v-60h-188v856h188v-62z" />
    <glyph glyph-name="backslash" unicode="\" horiz-adv-x="333" 
d="M90 702l231 -702h-75l-233 702h77z" />
    <glyph glyph-name="bracketright" unicode="]" horiz-adv-x="313" 
d="M11 -49h104v734h-104v60h188v-856h-188v62z" />
    <glyph glyph-name="asciicircum" unicode="^" horiz-adv-x="667" 
d="M376 706l180 -369h-97l-124 259l-128 -259h-96l188 369h77z" />
    <glyph glyph-name="underscore" unicode="_" horiz-adv-x="500" 
d="M510 -75v-50h-520v50h520z" />
    <glyph glyph-name="quoteleft" unicode="&#x2018;" horiz-adv-x="229" 
d="M162 440h-99v51c3 89 8 126 42 215h47c-19 -50 -30 -103 -33 -157h43v-109z" />
    <glyph glyph-name="a" unicode="a" horiz-adv-x="500" 
d="M271 276l75 6v12c0 49 0 131 -106 131c-101 0 -101 -74 -101 -99l-84 5c10 87 65 155 182 155c43 0 101 -11 138 -40c46 -37 51 -84 51 -137v-22v-153c1 -45 1 -68 34 -68c10 0 19 2 26 5v-69c-13 -3 -27 -8 -50 -8c-37 0 -74 12 -82 70c-24 -25 -72 -77 -162 -77
c-92 0 -160 55 -160 135c0 60 22 137 239 154zM347 231c-31 -5 -73 -11 -124 -22c-88 -19 -103 -52 -103 -85c0 -38 30 -70 89 -70c55 0 102 22 125 71c12 26 13 37 13 106z" />
    <glyph glyph-name="b" unicode="b" horiz-adv-x="562" 
d="M65 707h80v-300c15 19 59 79 162 79c102 0 217 -69 217 -251c0 -119 -57 -249 -218 -249c-95 0 -141 48 -161 75v-61h-80v707zM143 235c0 -131 74 -182 149 -182c108 0 147 97 147 186c0 116 -67 174 -146 174c-65 0 -149 -39 -150 -178z" />
    <glyph glyph-name="c" unicode="c" horiz-adv-x="521" 
d="M408 178l86 -8c-19 -119 -105 -184 -220 -184c-173 0 -235 129 -235 245c0 134 71 255 228 255c76 0 187 -27 218 -158l-88 -8c-3 19 -20 108 -127 108c-137 0 -143 -149 -143 -191c0 -123 61 -190 148 -190c115 0 128 94 133 131z" />
    <glyph glyph-name="d" unicode="d" horiz-adv-x="562" 
d="M417 707h80v-707h-80v61c-19 -23 -63 -75 -162 -75c-136 0 -216 102 -216 252c0 184 120 248 215 248c31 0 109 -7 163 -77v298zM274 414c-61 0 -150 -35 -150 -179c0 -97 45 -178 147 -178c91 0 148 68 148 181c0 133 -81 175 -145 176z" />
    <glyph glyph-name="e" unicode="e" horiz-adv-x="521" 
d="M402 156l81 -11c-11 -32 -53 -159 -213 -159c-140 0 -231 95 -231 254c0 178 128 246 228 246c113 0 216 -76 216 -263h-358c0 -79 38 -177 152 -177c71 0 111 47 125 110zM127 280h269c-7 124 -96 145 -135 145c-68 0 -125 -50 -134 -145z" />
    <glyph glyph-name="f" unicode="f" 
d="M167 553v-82h89v-66h-89v-405h-77v405h-79v66h79l1 96c0 40 3 134 122 134c23 0 43 -4 58 -6v-62c-15 2 -33 4 -44 4c-59 0 -60 -47 -60 -84z" />
    <glyph glyph-name="g" unicode="g" horiz-adv-x="562" 
d="M414 471h83v-445c0 -55 0 -114 -29 -164c-38 -65 -114 -91 -189 -91c-50 0 -105 12 -144 40c-60 43 -68 108 -72 136h90c0 -54 31 -111 131 -111c121 0 130 60 130 178v55c-17 -24 -64 -83 -155 -83c-114 0 -218 83 -218 247c0 190 123 253 219 253c44 0 100 -14 154 -78
v63zM267 414c-86 -1 -144 -69 -144 -178c0 -27 2 -81 33 -123c33 -44 78 -56 116 -56c119 0 146 122 146 186c0 160 -119 171 -151 171z" />
    <glyph glyph-name="h" unicode="h" horiz-adv-x="521" 
d="M66 0v707h81v-283c50 53 98 62 143 62c104 0 145 -58 159 -104c9 -30 9 -61 9 -108v-274h-81v249c0 62 0 98 -19 127c-20 29 -52 40 -83 40c-77 0 -128 -48 -128 -187v-229h-81z" />
    <glyph glyph-name="i" unicode="i" horiz-adv-x="208" 
d="M69 706h77v-92h-77v92zM69 471h77v-471h-77v471z" />
    <glyph glyph-name="j" unicode="j" horiz-adv-x="208" 
d="M65 706h78v-93h-78v93zM65 470h78v-574c-1 -39 -1 -70 -26 -96c-26 -27 -58 -29 -87 -29c-25 0 -42 2 -53 3v72c14 -2 24 -3 36 -3c52 0 52 32 52 74v553z" />
    <glyph glyph-name="k" unicode="k" horiz-adv-x="458" 
d="M432 471l-175 -186l215 -285h-100l-169 226l-57 -60v-166h-81v706h81v-435l188 200h98z" />
    <glyph glyph-name="l" unicode="l" horiz-adv-x="208" 
d="M66 706h77v-706h-77v706z" />
    <glyph glyph-name="m" unicode="m" horiz-adv-x="771" 
d="M61 471h78v-63c57 67 106 78 141 78c77 0 106 -50 128 -87c41 41 87 87 157 87c58 0 110 -36 129 -82c12 -29 13 -61 13 -108v-295h-78v276c0 43 0 59 -4 75c-15 54 -65 59 -82 59c-33 0 -69 -16 -92 -40c-26 -27 -28 -49 -28 -106v-264h-78v303c0 30 -2 107 -87 107
c-30 0 -64 -13 -88 -35c-31 -28 -31 -54 -31 -96v-280h-78v471z" />
    <glyph glyph-name="n" unicode="n" horiz-adv-x="521" 
d="M65 471h80v-69c44 77 119 84 147 84c60 0 132 -30 155 -108c8 -28 8 -57 8 -97v-281h-79v268c0 48 0 62 -5 78c-14 45 -58 65 -101 65c-35 0 -65 -11 -90 -36c-35 -35 -35 -71 -35 -106v-269h-80v471z" />
    <glyph glyph-name="o" unicode="o" horiz-adv-x="542" 
d="M502 236c-1 -143 -86 -250 -230 -250c-163 0 -232 122 -232 246c0 105 52 254 235 254c157 0 227 -121 227 -250zM415 236v12c0 137 -76 174 -138 174c-107 0 -150 -83 -150 -191c0 -99 41 -181 144 -181c133 0 143 138 144 186z" />
    <glyph glyph-name="p" unicode="p" horiz-adv-x="562" 
d="M64 -223v694h79v-67c39 43 90 82 168 82c102 0 212 -81 212 -251c0 -134 -72 -249 -221 -249c-63 0 -119 21 -159 70v-279h-79zM288 411c-91 -3 -145 -76 -145 -183c0 -102 51 -172 147 -172c28 0 58 5 83 21c26 17 68 64 68 159c0 109 -59 175 -145 175h-8z" />
    <glyph glyph-name="q" unicode="q" horiz-adv-x="562" 
d="M416 471h81v-695h-81v281c-18 -23 -54 -71 -163 -71c-142 0 -214 105 -214 243c0 175 97 257 216 257c95 0 148 -66 161 -85v70zM274 412c-133 0 -147 -118 -147 -178c0 -33 3 -89 33 -130c9 -12 42 -54 113 -54c113 0 149 89 149 170c0 116 -56 190 -148 192z" />
    <glyph glyph-name="r" unicode="r" horiz-adv-x="313" 
d="M65 471h80v-86c45 89 130 91 162 92v-86c-10 1 -20 2 -33 2c-46 0 -86 -18 -109 -56c-21 -35 -20 -76 -20 -119v-218h-80v471z" />
    <glyph glyph-name="s" unicode="s" horiz-adv-x="479" 
d="M265 199l-45 9c-76 18 -169 39 -169 137c0 86 73 140 182 140c90 0 186 -43 202 -154l-86 -11c-1 29 -3 52 -34 76s-67 28 -91 28c-62 0 -93 -37 -93 -69c0 -45 51 -59 113 -74l45 -11c56 -14 157 -37 157 -136c0 -77 -68 -149 -198 -149c-53 0 -108 11 -146 38
c-15 11 -61 49 -70 128l90 14v-10c0 -22 4 -56 35 -82c28 -24 63 -27 95 -27c70 0 111 27 111 78c0 54 -41 63 -98 75z" />
    <glyph glyph-name="t" unicode="t" horiz-adv-x="292" 
d="M174 620v-149h86v-66h-86v-270c0 -56 0 -80 34 -80c15 0 36 6 52 11v-66c-14 -2 -47 -8 -77 -8c-83 0 -91 37 -91 90v17v306h-75v66h75v149h82z" />
    <glyph glyph-name="u" unicode="u" horiz-adv-x="521" 
d="M65 195v276h79v-269c0 -49 0 -53 2 -65c8 -61 57 -74 94 -74c114 0 135 78 135 172v236h79v-471h-79v72c-15 -20 -63 -84 -161 -84c-66 0 -100 30 -115 48c-34 39 -34 80 -34 159z" />
    <glyph glyph-name="v" unicode="v" horiz-adv-x="437" 
d="M220 110l124 361h82l-170 -471h-72l-172 471h83z" />
    <glyph glyph-name="w" unicode="w" horiz-adv-x="729" 
d="M331 471h69l112 -350l123 350h84l-173 -471h-70l-113 351l-115 -351h-73l-164 471h86l118 -350z" />
    <glyph glyph-name="x" unicode="x" horiz-adv-x="396" 
d="M202 309l95 162h90l-142 -232l142 -239h-90l-100 168l-98 -168h-91l147 239l-139 232h92z" />
    <glyph glyph-name="y" unicode="y" horiz-adv-x="437" 
d="M342 471h83l-198 -557c-34 -95 -57 -147 -145 -147c-32 0 -56 6 -73 11v71c11 -3 28 -8 51 -8c58 0 71 34 94 99l20 57l-160 474h85l118 -374z" />
    <glyph glyph-name="z" unicode="z" horiz-adv-x="417" 
d="M38 471h345v-64l-273 -341h279v-66h-376v66l271 336h-246v69z" />
    <glyph glyph-name="braceleft" unicode="{" horiz-adv-x="354" 
d="M68 300v40c38 11 71 15 71 161v55c0 169 40 202 186 209v-40c-26 -7 -62 -15 -83 -52c-14 -24 -16 -53 -17 -116v-10c0 -182 -18 -206 -87 -228c74 -28 88 -55 88 -217v-22c0 -97 7 -140 99 -166v-40c-69 2 -114 7 -147 41c-34 34 -38 86 -38 130v24v58
c0 156 -35 158 -72 173z" />
    <glyph glyph-name="bar" unicode="|" horiz-adv-x="229" 
d="M154 750v-1000h-80v1000h80z" />
    <glyph glyph-name="braceright" unicode="}" horiz-adv-x="354" 
d="M286 339v-40c-38 -11 -71 -15 -71 -161v-55c0 -169 -40 -202 -186 -209v40c26 7 62 15 83 52c14 24 16 53 17 116v10c0 182 18 205 87 228c-74 27 -88 55 -88 217v22c0 97 -7 140 -99 166v40c69 -2 114 -7 147 -41c34 -35 38 -86 38 -131v-23v-58c0 -156 35 -158 72 -173
z" />
    <glyph glyph-name="asciitilde" unicode="~" horiz-adv-x="667" 
d="M536 366l38 -71c-24 -31 -73 -80 -137 -80c-55 0 -160 70 -209 70c-39 0 -53 -17 -95 -67l-40 71c16 24 58 84 133 84c40 0 74 -16 111 -33l33 -15c30 -14 49 -21 70 -21c41 0 77 37 96 62z" />
    <glyph glyph-name="exclamdown" unicode="&#xa1;" 
d="M156 277v-277h-79v288l24 271h31zM156 706v-90h-79v90h79z" />
    <glyph glyph-name="cent" unicode="&#xa2;" horiz-adv-x="500" 
d="M231 481v97h60v-97c126 -13 170 -118 182 -157l-89 -9c-9 80 -67 95 -93 102v-364c89 16 102 93 105 127l87 -8c-39 -164 -143 -179 -193 -184v-103h-59v103c-30 5 -77 13 -122 53c-48 42 -81 114 -81 197c0 198 154 235 203 243zM231 54v364c-84 -22 -118 -92 -118 -180
c0 -153 86 -176 118 -184z" />
    <glyph glyph-name="sterling" unicode="&#xa3;" horiz-adv-x="667" 
d="M501 282h-174c17 -53 21 -65 21 -93c0 -40 -8 -66 -11 -77c23 -14 76 -41 124 -41c51 0 95 31 98 108l94 -7c-5 -48 -34 -184 -168 -184c-53 0 -101 16 -133 31l-52 24c-47 -37 -83 -58 -141 -58c-66 0 -113 39 -113 92c0 43 34 88 108 88c21 0 58 -4 102 -18
c1 7 1 10 1 16c0 39 -21 85 -44 119h-177v65h131c-34 57 -61 104 -61 167c0 135 133 210 262 210c128 0 241 -74 247 -224l-104 -11l1 18c0 83 -56 145 -150 145c-70 0 -148 -37 -148 -128c0 -55 23 -94 42 -123l35 -54h210v-65zM227 78c-9 3 -52 17 -69 17
c-25 0 -33 -17 -33 -25s8 -24 32 -24c12 0 39 3 70 32z" />
    <glyph glyph-name="fraction" unicode="&#x2044;" horiz-adv-x="125" 
d="M246 717l34 -19l-402 -708l-33 19z" />
    <glyph glyph-name="fraction" unicode="&#x2215;" horiz-adv-x="125" 
d="M246 717l34 -19l-402 -708l-33 19z" />
    <glyph glyph-name="yen" unicode="&#xa5;" horiz-adv-x="625" 
d="M311 390l189 287h111l-171 -247h112v-72h-159l-38 -52h197v-72h-195v-234h-94v234h-194v71h195l-33 52h-162v71h114l-169 249h112z" />
    <glyph glyph-name="florin" unicode="&#x192;" horiz-adv-x="437" 
d="M334 575l-25 -104h85l-15 -62h-84l-125 -523c-12 -48 -33 -115 -114 -115c-27 0 -41 5 -60 12l15 58c7 -3 17 -7 31 -7c17 0 37 -13 60 84l115 491h-72l15 62h72l34 132c19 65 33 111 115 111c19 0 34 -3 56 -10l-14 -60c-17 5 -32 5 -36 5c-33 0 -40 -19 -53 -74z" />
    <glyph glyph-name="section" unicode="&#xa7;" horiz-adv-x="625" 
d="M541 697l-41 -70c-33 20 -116 71 -205 71c-61 0 -114 -26 -114 -71s46 -61 84 -75l74 -28c61 -20 136 -57 166 -78c21 -15 84 -62 84 -150c0 -74 -48 -130 -94 -156c42 -35 50 -79 50 -101c0 -75 -74 -161 -205 -161c-69 0 -156 25 -261 80l39 75c68 -45 144 -76 225 -76
c72 0 103 35 103 71c0 48 -46 66 -92 84l-64 28c-82 31 -144 67 -175 90s-78 65 -78 140c0 88 65 133 94 154c-21 22 -41 45 -41 88c0 69 61 159 207 159c31 0 96 0 244 -74zM275 456l-64 25c-22 -8 -83 -43 -83 -101c0 -66 64 -96 201 -158l86 -39c43 15 87 56 87 104
c0 64 -67 101 -137 131z" />
    <glyph glyph-name="currency" unicode="&#xa4;" horiz-adv-x="667" 
d="M624 570l-75 -75c27 -43 50 -79 50 -153c0 -81 -23 -116 -51 -159l76 -77l-61 -59l-75 76c-44 -27 -80 -50 -154 -50c-78 0 -115 24 -156 51l-76 -76l-60 60l76 75c-27 42 -51 79 -51 158c0 82 34 129 51 154l-75 75l60 60l75 -75c29 20 74 51 157 51
c75 0 111 -23 154 -51l75 75zM519 340c0 117 -91 188 -184 188c-104 0 -188 -79 -188 -187c0 -116 90 -190 186 -190c99 0 185 74 186 189z" />
    <glyph glyph-name="quotesingle" unicode="'" horiz-adv-x="208" 
d="M156 690l-41 -256h-23l-39 244c0 7 -1 13 -1 19c0 38 31 52 55 52c47 0 49 -36 49 -59z" />
    <glyph glyph-name="quotedblleft" unicode="&#x201c;" horiz-adv-x="375" 
d="M311 440h-99v51c0 88 8 126 42 215h46c-19 -50 -30 -103 -32 -157h43v-109zM162 440h-99v51c3 88 8 126 42 215h47c-20 -50 -30 -103 -33 -157h43v-109z" />
    <glyph glyph-name="guillemotleft" unicode="&#xab;" horiz-adv-x="396" 
d="M334 227v-90l-135 113v85l135 117v-90l-78 -67zM177 227v-90l-135 113v85l135 117v-90l-78 -67z" />
    <glyph glyph-name="guilsinglleft" unicode="&#x2039;" horiz-adv-x="250" 
d="M182 227v-90l-135 113v85l135 117v-90l-78 -67z" />
    <glyph glyph-name="guilsinglright" unicode="&#x203a;" horiz-adv-x="250" 
d="M68 362v90l135 -113v-85l-135 -117v90l78 67z" />
    <glyph glyph-name="fi" unicode="&#xfb01;" horiz-adv-x="479" 
d="M167 553v-82h90v-66h-90v-405h-77v405h-79v66h79l1 97c0 39 3 134 122 134c23 0 44 -4 58 -6v-62c-14 2 -33 4 -43 4c-60 0 -61 -47 -61 -85zM340 707h77v-92h-77v92zM340 471h77v-471h-77v471z" />
    <glyph glyph-name="fl" unicode="&#xfb02;" horiz-adv-x="479" 
d="M166 553v-82h90v-66h-90v-405h-77v405h-79v66h79l1 97c0 39 3 134 122 134c23 0 44 -4 58 -6v-62c-14 2 -33 4 -43 4c-60 0 -61 -47 -61 -85zM337 706h77v-706h-77v706z" />
    <glyph glyph-name="endash" unicode="&#x2013;" horiz-adv-x="583" 
d="M541 334v-79h-496v79h496z" />
    <glyph glyph-name="dagger" unicode="&#x2020;" horiz-adv-x="458" 
d="M191 706h80v-206h170v-80h-170v-420h-80v420h-171v80h171v206z" />
    <glyph glyph-name="daggerdbl" unicode="&#x2021;" horiz-adv-x="458" 
d="M191 706h80v-206h170v-80h-170v-159h170v-80h-170v-181h-80v181h-172v80h172v159h-171v80h171v206z" />
    <glyph glyph-name="periodcentered" unicode="&#xb7;" horiz-adv-x="229" 
d="M64 352h99v-112h-99v112z" />
    <glyph glyph-name="periodcentered" unicode="&#x2219;" horiz-adv-x="229" 
d="M64 352h99v-112h-99v112z" />
    <glyph glyph-name="paragraph" unicode="&#xb6;" horiz-adv-x="667" 
d="M309 706h230v-54h-34v-818h-58v818h-145v-818h-57v485c-26 4 -69 12 -107 52c-35 36 -51 84 -51 135c0 181 165 199 222 200z" />
    <glyph glyph-name="bullet" unicode="&#x2022;" horiz-adv-x="333" 
d="M37 353c0 72 58 130 130 130s130 -58 130 -130s-58 -130 -130 -130s-130 58 -130 130z" />
    <glyph glyph-name="quotesinglbase" unicode="&#x201a;" horiz-adv-x="229" 
d="M63 109h99v-51c-2 -94 -10 -133 -41 -214h-47c8 21 28 77 33 156h-44v109z" />
    <glyph glyph-name="quotedblbase" unicode="&#x201e;" horiz-adv-x="375" 
d="M63 109h99v-51c-2 -94 -10 -133 -41 -214h-47c8 21 28 77 33 156h-44v109zM212 109h99v-51c0 -94 -13 -133 -42 -214h-46c8 21 28 77 32 156h-43v109z" />
    <glyph glyph-name="quotedblright" unicode="&#x201d;" horiz-adv-x="375" 
d="M63 706h99v-52c-2 -94 -10 -133 -41 -214h-47c7 17 28 74 33 156h-44v110zM212 706h99v-52c0 -94 -13 -133 -42 -214h-46c6 17 28 74 32 156h-43v110z" />
    <glyph glyph-name="guillemotright" unicode="&#xbb;" horiz-adv-x="396" 
d="M62 362v90l135 -113v-85l-135 -117v90l78 67zM219 362v90l135 -113v-85l-135 -117v90l78 67z" />
    <glyph glyph-name="ellipsis" unicode="&#x2026;" horiz-adv-x="1000" 
d="M784 113h99v-113h-99v113zM451 113h99v-113h-99v113zM118 113h99v-113h-99v113z" />
    <glyph glyph-name="perthousand" unicode="&#x2030;" horiz-adv-x="1250" 
d="M849 213c-2 -125 -53 -222 -162 -222c-159 0 -164 189 -164 227c0 99 40 232 162 232c62 0 164 -46 164 -237zM784 213c0 30 -2 59 -8 87c-4 16 -22 91 -91 91c-71 0 -87 -79 -90 -97c-5 -25 -7 -49 -7 -74c0 -58 7 -172 100 -172s96 137 96 165zM565 681l55 -26
l-317 -683l-55 25zM353 450c-2 -191 -99 -226 -163 -226c-117 0 -164 121 -164 227c0 114 51 232 162 232c85 0 165 -71 165 -233zM288 450c0 74 -17 176 -99 176c-92 0 -98 -120 -98 -170c0 -28 0 -174 99 -174c81 0 98 94 98 168zM1064 450c81 0 163 -70 163 -228
c0 -140 -62 -231 -165 -231c-105 0 -163 98 -163 222c0 236 153 237 165 237zM965 221c0 -85 21 -172 99 -172c53 0 73 45 78 58c17 41 18 103 18 113c0 69 -14 172 -98 172c-40 0 -97 -30 -97 -171z" />
    <glyph glyph-name="questiondown" unicode="&#xbf;" horiz-adv-x="562" 
d="M226 404v152h79v-237h-17c-37 0 -169 2 -169 -119c0 -74 59 -131 150 -131c35 0 135 6 135 149v14h87c0 -173 -116 -238 -223 -238c-129 0 -231 92 -231 216c0 48 22 179 189 194zM311 609h-89v97h89v-97z" />
    <glyph glyph-name="grave" unicode="`" 
d="M71 665h88l41 -144h-47z" />
    <glyph glyph-name="acute" unicode="&#xb4;" 
d="M113 666h86l-86 -144h-41z" />
    <glyph glyph-name="circumflex" unicode="&#x2c6;" 
d="M73 523h-70l94 151h67l104 -151h-75l-61 95z" />
    <glyph glyph-name="tilde" unicode="&#x2dc;" 
d="M234 635h48c-4 -28 -21 -100 -82 -100c-12 0 -27 2 -66 16c-45 17 -50 19 -62 19c-25 0 -30 -20 -33 -31h-49c4 28 20 99 87 99c21 0 49 -11 73 -20c37 -14 46 -14 53 -14c24 0 29 20 31 31z" />
    <glyph glyph-name="macron" unicode="&#xaf;" 
d="M-6 541v68h284v-68h-284z" />
    <glyph glyph-name="macron" unicode="&#x2c9;" 
d="M-6 541v68h284v-68h-284z" />
    <glyph glyph-name="breve" unicode="&#x2d8;" 
d="M210 655h52c-4 -71 -58 -130 -127 -130c-57 0 -122 40 -126 129h50c19 -61 71 -63 78 -63c41 0 73 37 73 64z" />
    <glyph glyph-name="dotaccent" unicode="&#x2d9;" 
d="M92 541v99h87v-99h-87z" />
    <glyph glyph-name="dieresis" unicode="&#xa8;" 
d="M-7 644h87v-103h-87v103zM190 644h88v-103h-88v103z" />
    <glyph glyph-name="ring" unicode="&#x2da;" 
d="M41 608c0 52 42 94 94 94s94 -42 94 -94s-42 -94 -94 -94s-94 42 -94 94zM84 609c0 -28 23 -51 51 -51s51 23 51 51s-23 51 -51 51s-51 -23 -51 -51z" />
    <glyph glyph-name="cedilla" unicode="&#xb8;" 
d="M140 16l30 -8l-30 -52l26 -13c19 -10 36 -34 36 -60c0 -66 -68 -81 -126 -86v22h6c46 0 46 33 46 36c0 12 -6 29 -31 38l-29 10z" />
    <glyph glyph-name="hungarumlaut" unicode="&#x2dd;" 
d="M-1 521l46 144h88l-88 -144h-46zM140 521l43 144h89l-87 -144h-45z" />
    <glyph glyph-name="ogonek" unicode="&#x2db;" 
d="M131 6l73 -1c-28 -21 -63 -47 -63 -79c0 -34 33 -38 60 -38h13v-75h-15c-67 0 -142 5 -142 76c0 45 25 69 74 117z" />
    <glyph glyph-name="caron" unicode="&#x2c7;" 
d="M197 673h71l-96 -151h-67l-102 151h74l61 -96z" />
    <glyph glyph-name="emdash" unicode="&#x2014;" horiz-adv-x="625" 
d="M582 334v-79h-537v79h537z" />
    <glyph glyph-name="AE" unicode="&#xc6;" horiz-adv-x="1042" 
d="M607 312v-230h407v-82h-501v233h-252l-153 -233h-111l483 706h521v-84h-394v-230h318v-80h-318zM316 313h197v301z" />
    <glyph glyph-name="ordfeminine" unicode="&#xaa;" horiz-adv-x="313" 
d="M262 619v-114c1 -19 2 -35 22 -35c9 0 12 3 15 5v-46c-6 -2 -16 -6 -30 -6c-37 0 -48 23 -54 37c-19 -19 -40 -41 -94 -41c-57 0 -91 34 -91 79c0 86 98 93 182 98v13c0 33 -6 68 -56 68c-52 0 -58 -31 -58 -52v-7l-55 3c3 27 12 96 112 96c14 0 47 -1 74 -22
c30 -23 31 -50 33 -76zM212 560c-118 -16 -124 -35 -124 -59c0 -34 33 -40 48 -40c46 0 76 33 76 82v17z" />
    <glyph glyph-name="Lslash" unicode="&#x141;" horiz-adv-x="521" 
d="M162 323v-239h342v-84h-436v234l-63 -60v79l63 60v394h94v-307l153 141v-78z" />
    <glyph glyph-name="Oslash" unicode="&#xd8;" horiz-adv-x="812" 
d="M647 634l68 65l48 -51l-71 -67c18 -27 71 -106 71 -226c0 -169 -111 -373 -363 -373c-118 0 -182 43 -239 88l-65 -62l-49 51l69 66c-24 39 -66 116 -66 228c0 172 105 371 354 371c117 0 184 -42 243 -90zM186 192l395 379c-33 35 -85 78 -179 78
c-163 0 -248 -130 -248 -300c0 -81 21 -131 32 -157zM621 512l-397 -381c35 -34 84 -75 182 -75c171 0 253 140 253 284c0 30 -4 101 -38 172z" />
    <glyph glyph-name="OE" unicode="&#x152;" horiz-adv-x="1146" 
d="M708 320v-238h411v-82h-501v81c-32 -33 -103 -99 -232 -99c-210 0 -336 168 -336 373c0 208 127 369 346 369c70 0 152 -16 222 -92v74h490v-85h-400v-219h322v-82h-322zM617 355c0 205 -97 296 -226 296c-138 0 -242 -111 -242 -298c0 -184 106 -293 238 -293
c219 0 230 229 230 295z" />
    <glyph glyph-name="ordmasculine" unicode="&#xba;" horiz-adv-x="333" 
d="M27 561c0 99 59 155 141 155c89 0 139 -71 139 -151c0 -73 -43 -148 -140 -148c-80 0 -139 55 -140 144zM83 565c0 -47 19 -104 85 -104c57 0 82 46 82 106s-30 104 -85 104c-70 0 -82 -68 -82 -106z" />
    <glyph glyph-name="ae" unicode="&#xe6;" horiz-adv-x="812" 
d="M688 150l83 -13c-16 -59 -75 -151 -209 -151c-120 0 -160 70 -176 99c-48 -62 -111 -99 -192 -99c-103 0 -162 58 -162 132c0 47 26 94 77 123c54 31 105 31 249 31c0 18 3 153 -117 153c-61 0 -97 -41 -100 -95l-85 6c14 115 104 150 184 150c36 0 110 -10 159 -83
c23 29 66 83 162 83c89 0 138 -48 165 -84c51 -69 53 -147 54 -188h-343c0 -114 66 -164 136 -164c55 0 99 34 115 100zM436 272h259c-7 105 -79 148 -133 148c-63 0 -123 -55 -126 -148zM357 214h-46c-55 0 -195 -6 -195 -92c0 -30 25 -73 94 -73c77 0 145 55 147 165z" />
    <glyph glyph-name="dotlessi" unicode="&#x131;" horiz-adv-x="208" 
d="M67 471h77v-471h-77v471z" />
    <glyph glyph-name="lslash" unicode="&#x142;" horiz-adv-x="208" 
d="M66 706h77v-238l54 49v-70l-54 -50v-397h-77v326l-55 -48v67l55 50v311z" />
    <glyph glyph-name="oslash" unicode="&#xf8;" horiz-adv-x="542" 
d="M427 425l44 44l35 -37l-46 -45c31 -44 43 -98 43 -151c0 -133 -82 -250 -233 -250c-62 0 -115 19 -157 64l-40 -40l-35 36l43 41c-18 33 -40 75 -40 144c0 160 110 255 231 255c87 0 140 -48 155 -61zM142 148l231 224c-14 14 -46 50 -104 50c-76 0 -144 -65 -144 -179
c0 -52 12 -82 17 -95zM401 329l-233 -225c10 -12 42 -54 108 -54c82 0 145 71 145 180c0 57 -14 86 -20 99z" />
    <glyph glyph-name="oe" unicode="&#x153;" horiz-adv-x="875" 
d="M751 152l81 -11c-19 -56 -76 -155 -210 -155c-84 0 -147 41 -180 94c-15 -23 -64 -94 -174 -94c-120 0 -226 83 -226 249c0 173 113 251 230 251c101 0 149 -59 170 -87c47 66 110 87 172 87c39 0 116 -7 172 -85c38 -54 51 -121 53 -187h-356c0 -94 59 -164 146 -164
c86 0 114 75 122 102zM484 274h267c-11 96 -68 148 -134 148c-64 0 -125 -50 -133 -148zM403 233c0 121 -57 187 -137 187c-85 0 -139 -76 -139 -187c0 -116 60 -180 138 -180c74 0 138 56 138 180z" />
    <glyph glyph-name="germandbls" unicode="&#xdf;" horiz-adv-x="542" 
d="M192 5v83c24 -9 57 -21 98 -21c99 0 132 74 132 156c0 19 0 91 -65 132c-42 27 -106 28 -157 28v79c21 -2 27 -2 40 -2c113 0 130 68 130 100c0 59 -48 91 -108 91c-52 0 -81 -21 -94 -37c-23 -27 -24 -52 -25 -122v-492h-79v496c0 174 70 228 196 228
c122 0 190 -66 190 -161c0 -82 -47 -121 -90 -138c59 -8 143 -50 143 -193c0 -63 -9 -243 -216 -243c-46 0 -80 11 -95 16z" />
    <glyph glyph-name="onesuperior" unicode="&#xb9;" horiz-adv-x="375" 
d="M80 560v45c54 5 92 13 104 79h49v-451h-67v327h-86z" />
    <glyph glyph-name="logicalnot" unicode="&#xac;" horiz-adv-x="667" 
d="M587 0v252h-587v80h667v-332h-80z" />
    <glyph glyph-name="mu" unicode="&#xb5;" horiz-adv-x="521" 
d="M65 -224v694h79v-265c2 -45 6 -142 114 -142c17 0 57 1 90 44c27 36 27 72 27 107v256h79v-470h-79v72c-36 -66 -77 -84 -125 -84c-54 0 -84 33 -106 56v-268h-79z" />
    <glyph glyph-name="mu" unicode="&#x3bc;" horiz-adv-x="521" 
d="M65 -224v694h79v-265c2 -45 6 -142 114 -142c17 0 57 1 90 44c27 36 27 72 27 107v256h79v-470h-79v72c-36 -66 -77 -84 -125 -84c-54 0 -84 33 -106 56v-268h-79z" />
    <glyph glyph-name="trademark" unicode="&#x2122;" horiz-adv-x="687" 
d="M636 706v-332h-52v205v68l-16 -56l-68 -217h-52l-84 272l6 -67v-205h-56v332h79l83 -262l81 262h79zM181 657v-283h-58v283h-107v49h270v-49h-105z" />
    <glyph glyph-name="Eth" unicode="&#xd0;" horiz-adv-x="708" 
d="M78 400v306h221c100 0 189 0 271 -87c85 -91 88 -216 88 -266c0 -48 -2 -188 -99 -278c-81 -75 -179 -75 -238 -75h-243v341h-66v59h66zM285 623h-111v-223h169v-59h-169v-260h125c47 1 97 2 138 19c96 41 125 148 125 252c0 116 -34 224 -147 259c-39 12 -80 12 -130 12
z" />
    <glyph glyph-name="onehalf" unicode="&#xbd;" horiz-adv-x="875" 
d="M80 560v45c54 5 92 13 104 79h49v-452h-67v328h-86zM543 682l54 -26l-318 -684l-55 25zM616 254h-66c-3 15 -6 31 -6 52c0 92 63 144 148 144c90 0 144 -61 144 -139c0 -129 -158 -225 -203 -255h208v-56h-297v61c99 56 227 161 227 252c0 39 -25 80 -83 80
c-55 0 -80 -37 -80 -87c0 -23 4 -38 8 -52z" />
    <glyph glyph-name="plusminus" unicode="&#xb1;" horiz-adv-x="667" 
d="M374 377v-243h-79v243h-254v79h254v242h79v-242h251v-79h-251zM625 79v-79h-584v79h584z" />
    <glyph glyph-name="Thorn" unicode="&#xde;" horiz-adv-x="625" 
d="M371 170h-204v-170h-91v706h91v-129h214c35 0 75 0 112 -12c83 -29 121 -107 121 -188c0 -77 -36 -167 -130 -196c-35 -11 -70 -11 -113 -11zM167 496v-243h197c54 0 91 0 123 32c24 24 34 59 34 94c0 24 -4 62 -37 90c-31 26 -66 27 -99 27h-218z" />
    <glyph glyph-name="onequarter" unicode="&#xbc;" horiz-adv-x="875" 
d="M80 560v45c54 5 92 13 104 79h49v-452h-67v328h-86zM566 682l54 -26l-317 -684l-56 25zM522 166l214 285h53v-287h64v-55h-65v-109h-63v109h-203v57zM589 165h139v191z" />
    <glyph glyph-name="divide" unicode="&#xf7;" horiz-adv-x="667" 
d="M391 145c-1 -32 -25 -55 -57 -55c-31 0 -56 24 -56 55c0 34 27 57 57 57c36 0 56 -29 56 -57zM391 435c0 -27 -21 -56 -58 -56c-26 0 -55 20 -55 56c0 27 21 56 57 56s56 -28 56 -56zM667 330v-79h-667v79h667z" />
    <glyph glyph-name="brokenbar" unicode="&#xa6;" horiz-adv-x="229" 
d="M74 -175v350h80v-350h-80zM154 325h-80v350h80v-350z" />
    <glyph glyph-name="degree" unicode="&#xb0;" horiz-adv-x="354" 
d="M16 595c0 89 72 161 161 161s161 -72 161 -161s-72 -161 -161 -161s-161 72 -161 161zM98 595c0 -44 35 -79 79 -79s79 35 79 79s-35 79 -79 79s-79 -35 -79 -79z" />
    <glyph glyph-name="thorn" unicode="&#xfe;" horiz-adv-x="562" 
d="M64 -223v930h79v-303c39 44 82 82 168 82c102 0 212 -81 212 -251c0 -134 -72 -249 -221 -249c-63 0 -119 21 -159 70v-279h-79zM288 411c-91 -3 -145 -76 -145 -183c0 -102 51 -172 147 -172c28 0 58 5 83 21c26 17 68 64 68 159c0 109 -59 175 -145 175h-8z" />
    <glyph glyph-name="threequarters" unicode="&#xbe;" horiz-adv-x="875" 
d="M100 521l-65 2c7 159 123 160 150 160c82 0 152 -47 152 -130c0 -68 -50 -84 -72 -91c25 -6 85 -20 85 -105c0 -58 -35 -133 -157 -133c-162 0 -170 116 -172 152h67c1 -25 3 -94 100 -94c17 0 93 0 93 76c0 67 -50 71 -88 71h-39v58h32c25 0 84 4 84 67
c0 41 -34 72 -85 72c-78 0 -82 -63 -85 -105zM609 682l54 -26l-317 -684l-55 25zM522 166l214 284h53v-286h64v-55h-65v-109h-63v109h-203v57zM588 165h140v191z" />
    <glyph glyph-name="twosuperior" unicode="&#xb2;" horiz-adv-x="375" 
d="M115 487h-66c-3 15 -6 31 -6 53c0 87 59 143 147 143c92 0 145 -62 145 -139c0 -129 -158 -225 -203 -255h208v-56h-297v61c98 56 227 160 227 252c0 44 -30 80 -84 80c-50 0 -79 -33 -79 -87c0 -23 4 -38 8 -52z" />
    <glyph glyph-name="registered" unicode="&#xae;" horiz-adv-x="833" 
d="M773 351c-1 -197 -156 -354 -357 -354c-185 0 -355 145 -355 355c0 206 163 357 355 357c208 0 357 -163 357 -358zM741 351c0 178 -137 326 -323 326c-183 0 -325 -146 -325 -325c0 -181 146 -323 324 -323c182 0 323 143 324 322zM266 580h146c126 0 177 -38 177 -115
c0 -57 -35 -92 -92 -107c35 -16 54 -33 64 -94c10 -68 14 -93 34 -133h-91c-4 7 -12 23 -18 62l-11 69c-12 63 -43 70 -101 70h-28v-201h-80v449zM347 518v-122h66c32 0 96 -1 96 62c0 17 -7 42 -32 53c-16 7 -26 7 -79 7h-51z" />
    <glyph glyph-name="minus" unicode="&#x2212;" horiz-adv-x="667" 
d="M667 332v-79h-667v79h667z" />
    <glyph glyph-name="eth" unicode="&#xf0;" horiz-adv-x="542" 
d="M480 617l-74 -24c60 -96 97 -200 97 -335c0 -167 -83 -272 -232 -272c-205 0 -231 174 -231 249c0 166 106 251 229 251c70 0 110 -35 117 -42c11 -11 15 -14 16 -14s1 0 1 1c0 2 -18 54 -19 59c-12 35 -33 66 -43 82l-177 -57l-19 44l166 55c-30 35 -54 58 -72 75l62 29
c25 -21 29 -26 75 -82l86 28zM416 236v12c0 141 -81 174 -138 174c-109 0 -150 -85 -150 -191c0 -99 41 -181 144 -181c133 0 143 138 144 186z" />
    <glyph glyph-name="multiply" unicode="&#xd7;" horiz-adv-x="667" 
d="M590 92l-56 -56l-200 200l-202 -200l-55 56l201 200l-201 201l55 56l202 -201l200 201l56 -56l-200 -201z" />
    <glyph glyph-name="threesuperior" unicode="&#xb3;" horiz-adv-x="375" 
d="M100 521l-65 2c7 159 123 160 150 160c82 0 152 -47 152 -130c0 -68 -50 -84 -72 -91c25 -6 85 -20 85 -105c0 -58 -35 -133 -157 -133c-162 0 -170 116 -172 152h67c1 -25 3 -94 100 -94c17 0 93 0 93 76c0 64 -46 71 -87 71h-15h-25v58h32c25 0 84 4 84 67
c0 41 -34 72 -85 72c-78 0 -82 -63 -85 -105z" />
    <glyph glyph-name="copyright" unicode="&#xa9;" horiz-adv-x="833" 
d="M773 352c0 -180 -135 -355 -357 -355c-184 0 -355 145 -355 356c0 201 159 356 357 356c200 0 355 -155 355 -357zM741 352c0 174 -132 325 -322 325c-180 0 -326 -142 -326 -325c0 -175 140 -323 326 -323c170 0 320 131 322 323zM558 258l56 -49
c-24 -28 -80 -91 -191 -91c-135 0 -235 99 -235 236c0 132 97 238 235 238c112 0 167 -63 191 -90l-56 -52c-23 24 -62 67 -133 67c-87 0 -159 -65 -159 -163c0 -99 77 -161 158 -161c75 0 112 41 134 65z" />
    <glyph glyph-name="Aacute" unicode="&#xc1;" horiz-adv-x="646" 
d="M535 0l-77 216h-269l-79 -216h-100l269 706h98l257 -706h-99zM219 295h211l-103 294zM329 895h99l-87 -124h-60z" />
    <glyph glyph-name="Acircumflex" unicode="&#xc2;" horiz-adv-x="646" 
d="M535 0l-77 216h-269l-79 -216h-100l269 706h98l257 -706h-99zM219 295h211l-103 294zM263 771h-74l100 124h65l107 -124h-77l-62 74z" />
    <glyph glyph-name="Adieresis" unicode="&#xc4;" horiz-adv-x="646" 
d="M535 0l-77 216h-269l-79 -216h-100l269 706h98l257 -706h-99zM219 295h211l-103 294zM185 883h87v-102h-87v102zM381 883h87v-102h-87v102z" />
    <glyph glyph-name="Agrave" unicode="&#xc0;" horiz-adv-x="646" 
d="M535 0l-77 216h-269l-79 -216h-100l269 706h98l257 -706h-99zM219 295h211l-103 294zM219 895h99l47 -124h-60z" />
    <glyph glyph-name="Aring" unicode="&#xc5;" horiz-adv-x="646" 
d="M535 0l-77 216h-269l-79 -216h-100l269 706h98l257 -706h-99zM219 295h211l-103 294zM327 944c53 0 96 -42 96 -95c0 -54 -43 -96 -96 -96c-52 0 -95 43 -95 96c0 52 43 95 95 95zM328 900c-29 0 -51 -23 -51 -51s22 -51 51 -51c27 0 50 23 50 51s-23 51 -50 51z" />
    <glyph glyph-name="Atilde" unicode="&#xc3;" horiz-adv-x="646" 
d="M535 0l-77 216h-269l-79 -216h-100l269 706h98l257 -706h-99zM219 295h211l-103 294zM422 883h47c-7 -39 -23 -101 -83 -101c-21 0 -46 9 -66 17c-43 16 -48 18 -61 18c-22 0 -30 -17 -33 -31h-48c3 26 17 99 87 99c42 0 86 -34 124 -34c25 0 30 20 33 32z" />
    <glyph glyph-name="Ccedilla" unicode="&#xc7;" horiz-adv-x="750" 
d="M640 268l102 -12c-18 -81 -63 -153 -128 -203c-72 -56 -130 -62 -193 -68l-16 -28l26 -13c19 -10 36 -34 36 -60c0 -66 -68 -81 -126 -86v21h6c46 0 46 33 46 36c0 13 -6 28 -32 38l-28 11l51 79c-85 9 -167 17 -245 106c-63 72 -90 168 -90 264c0 200 115 371 359 371
c243 0 303 -169 320 -216l-95 -20c-20 56 -76 161 -226 161c-76 0 -148 -30 -195 -89c-45 -57 -59 -130 -59 -202c0 -175 89 -298 252 -298c106 0 212 59 235 208z" />
    <glyph glyph-name="Eacute" unicode="&#xc9;" horiz-adv-x="604" 
d="M513 322h-344v-240h408v-82h-499v706h487v-83h-396v-218h344v-83zM318 895h99l-87 -124h-60z" />
    <glyph glyph-name="Ecircumflex" unicode="&#xca;" horiz-adv-x="604" 
d="M513 322h-344v-240h408v-82h-499v706h487v-83h-396v-218h344v-83zM258 771h-74l100 124h65l107 -124h-77l-62 74z" />
    <glyph glyph-name="Edieresis" unicode="&#xcb;" horiz-adv-x="604" 
d="M513 322h-344v-240h408v-82h-499v706h487v-83h-396v-218h344v-83zM177 883h87v-102h-95zM373 883h87v-102h-87v102z" />
    <glyph glyph-name="Egrave" unicode="&#xc8;" horiz-adv-x="604" 
d="M513 322h-344v-240h408v-82h-499v706h487v-83h-396v-218h344v-83zM208 895h99l47 -124h-60z" />
    <glyph glyph-name="Iacute" unicode="&#xcd;" horiz-adv-x="229" 
d="M67 706h95v-706h-95v706zM121 895h99l-87 -124h-60z" />
    <glyph glyph-name="Icircumflex" unicode="&#xce;" horiz-adv-x="229" 
d="M67 706h95v-706h-95v706zM55 771h-74l100 124h65l107 -124h-77l-62 74z" />
    <glyph glyph-name="Idieresis" unicode="&#xcf;" horiz-adv-x="229" 
d="M67 706h95v-706h-95v706zM-26 883h87v-102h-87v102zM170 883h87v-102h-87v102z" />
    <glyph glyph-name="Igrave" unicode="&#xcc;" horiz-adv-x="229" 
d="M67 706h95v-706h-95v706zM11 895h99l47 -124h-60z" />
    <glyph glyph-name="Ntilde" unicode="&#xd1;" horiz-adv-x="708" 
d="M545 706h85v-706h-85l-379 574v-574h-88v706h88l379 -566v566zM453 883h47c-7 -39 -23 -101 -83 -101c-21 0 -46 9 -66 17c-43 16 -48 18 -61 18c-22 0 -30 -17 -33 -31h-48c3 26 17 99 87 99c42 0 86 -34 124 -34c25 0 30 20 33 32z" />
    <glyph glyph-name="Oacute" unicode="&#xd3;" horiz-adv-x="812" 
d="M762 360c0 -212 -124 -378 -358 -378c-215 0 -353 151 -353 371c0 262 181 371 356 371c198 0 355 -134 355 -364zM660 359c-1 171 -90 289 -253 289c-178 0 -254 -137 -254 -296c0 -148 73 -296 255 -296c191 0 252 158 252 303zM412 895h99l-87 -124h-60z" />
    <glyph glyph-name="Ocircumflex" unicode="&#xd4;" horiz-adv-x="812" 
d="M762 360c0 -212 -124 -378 -358 -378c-215 0 -353 151 -353 371c0 262 181 371 356 371c198 0 355 -134 355 -364zM660 359c-1 171 -90 289 -253 289c-178 0 -254 -137 -254 -296c0 -148 73 -296 255 -296c191 0 252 158 252 303zM346 771h-74l100 124h65l107 -124h-77
l-62 74z" />
    <glyph glyph-name="Odieresis" unicode="&#xd6;" horiz-adv-x="812" 
d="M762 360c0 -212 -124 -378 -358 -378c-215 0 -353 151 -353 371c0 262 181 371 356 371c198 0 355 -134 355 -364zM660 359c-1 171 -90 289 -253 289c-178 0 -254 -137 -254 -296c0 -148 73 -296 255 -296c191 0 252 158 252 303zM269 883h87v-102h-87v102zM465 883h87
v-102h-87v102z" />
    <glyph glyph-name="Ograve" unicode="&#xd2;" horiz-adv-x="812" 
d="M762 360c0 -212 -124 -378 -358 -378c-215 0 -353 151 -353 371c0 262 181 371 356 371c198 0 355 -134 355 -364zM660 359c-1 171 -90 289 -253 289c-178 0 -254 -137 -254 -296c0 -148 73 -296 255 -296c191 0 252 158 252 303zM302 895h99l47 -124h-60z" />
    <glyph glyph-name="Otilde" unicode="&#xd5;" horiz-adv-x="812" 
d="M762 360c0 -212 -124 -378 -358 -378c-215 0 -353 151 -353 371c0 262 181 371 356 371c198 0 355 -134 355 -364zM660 359c-1 171 -90 289 -253 289c-178 0 -254 -137 -254 -296c0 -148 73 -296 255 -296c191 0 252 158 252 303zM505 883h47c-7 -39 -23 -101 -83 -101
c-21 0 -46 9 -66 17c-43 16 -48 18 -61 18c-22 0 -30 -17 -33 -31h-48c3 26 17 99 87 99c42 0 86 -34 124 -34c25 0 30 20 33 32z" />
    <glyph glyph-name="Scaron" unicode="&#x160;" horiz-adv-x="667" 
d="M382 314l-59 12c-102 21 -252 55 -252 201c0 70 38 114 65 137c63 54 140 60 189 60c50 0 126 -5 190 -52c70 -51 84 -123 91 -166l-95 -6c-1 22 -4 78 -57 117c-36 26 -81 34 -126 34c-85 0 -160 -35 -160 -111c0 -79 78 -95 139 -110l78 -20c54 -14 83 -19 111 -31
c106 -44 122 -129 122 -176c0 -66 -27 -128 -90 -171c-68 -46 -149 -50 -192 -50c-64 0 -283 10 -299 243l101 13c1 -27 4 -89 57 -136c40 -35 93 -47 145 -47c100 0 176 49 176 141c0 82 -65 104 -134 118zM393 895h74l-100 -124h-66l-105 124h76l62 -76z" />
    <glyph glyph-name="Uacute" unicode="&#xda;" horiz-adv-x="688" 
d="M516 707h95v-451c0 -29 -2 -60 -9 -92c-20 -85 -99 -181 -264 -181c-52 0 -150 8 -217 94c-47 60 -46 113 -46 192v438h95v-425v-27c-1 -54 4 -99 36 -138c42 -52 104 -55 132 -55c83 0 148 40 169 117c8 31 8 60 9 105v423zM350 895h99l-87 -124h-60z" />
    <glyph glyph-name="Ucircumflex" unicode="&#xdb;" horiz-adv-x="688" 
d="M516 707h95v-451c0 -29 -2 -60 -9 -92c-20 -85 -99 -181 -264 -181c-52 0 -150 8 -217 94c-47 60 -46 113 -46 192v438h95v-425v-27c-1 -54 4 -99 36 -138c42 -52 104 -55 132 -55c83 0 148 40 169 117c8 31 8 60 9 105v423zM284 771h-74l100 124h65l107 -124h-77l-62 74
z" />
    <glyph glyph-name="Udieresis" unicode="&#xdc;" horiz-adv-x="688" 
d="M516 707h95v-451c0 -29 -2 -60 -9 -92c-20 -85 -99 -181 -264 -181c-52 0 -150 8 -217 94c-47 60 -46 113 -46 192v438h95v-425v-27c-1 -54 4 -99 36 -138c42 -52 104 -55 132 -55c83 0 148 40 169 117c8 31 8 60 9 105v423zM202 883h87v-102h-87v102zM398 883h87v-102
h-87v102z" />
    <glyph glyph-name="Ugrave" unicode="&#xd9;" horiz-adv-x="688" 
d="M516 707h95v-451c0 -29 -2 -60 -9 -92c-20 -85 -99 -181 -264 -181c-52 0 -150 8 -217 94c-47 60 -46 113 -46 192v438h95v-425v-27c-1 -54 4 -99 36 -138c42 -52 104 -55 132 -55c83 0 148 40 169 117c8 31 8 60 9 105v423zM240 895h99l47 -124h-60z" />
    <glyph glyph-name="Yacute" unicode="&#xdd;" horiz-adv-x="625" 
d="M611 706l-254 -383v-323h-95v323l-249 383h112l185 -299l189 299h112zM318 895h99l-87 -124h-60z" />
    <glyph glyph-name="Ydieresis" unicode="&#x178;" horiz-adv-x="625" 
d="M611 706l-254 -383v-323h-95v323l-249 383h112l185 -299l189 299h112zM171 883h87v-102h-87v102zM367 883h87v-102h-87v102z" />
    <glyph glyph-name="Zcaron" unicode="&#x17d;" horiz-adv-x="604" 
d="M53 706h508v-88l-434 -533h444v-85h-553v92l436 527h-401v87zM362 895h74l-100 -124h-66l-105 124h76l62 -76z" />
    <glyph glyph-name="aacute" unicode="&#xe1;" horiz-adv-x="500" 
d="M271 276l75 6v12c0 49 0 131 -106 131c-101 0 -101 -74 -101 -99l-84 5c10 87 65 155 182 155c43 0 101 -11 138 -40c46 -37 51 -84 51 -137v-22v-153c1 -45 1 -68 34 -68c10 0 19 2 26 5v-69c-13 -3 -27 -8 -50 -8c-37 0 -74 12 -82 70c-24 -25 -72 -77 -162 -77
c-92 0 -160 55 -160 135c0 60 22 137 239 154zM347 231c-31 -5 -73 -11 -124 -22c-88 -19 -103 -52 -103 -85c0 -38 30 -70 89 -70c55 0 102 22 125 71c12 26 13 37 13 106zM269 666h86l-86 -144h-41z" />
    <glyph glyph-name="acircumflex" unicode="&#xe2;" horiz-adv-x="500" 
d="M271 276l75 6v12c0 49 0 131 -106 131c-101 0 -101 -74 -101 -99l-84 5c10 87 65 155 182 155c43 0 101 -11 138 -40c46 -37 51 -84 51 -137v-22v-153c1 -45 1 -68 34 -68c10 0 19 2 26 5v-69c-13 -3 -27 -8 -50 -8c-37 0 -74 12 -82 70c-24 -25 -72 -77 -162 -77
c-92 0 -160 55 -160 135c0 60 22 137 239 154zM347 231c-31 -5 -73 -11 -124 -22c-88 -19 -103 -52 -103 -85c0 -38 30 -70 89 -70c55 0 102 22 125 71c12 26 13 37 13 106zM192 523h-70l94 151h67l104 -151h-75l-61 95z" />
    <glyph glyph-name="adieresis" unicode="&#xe4;" horiz-adv-x="500" 
d="M271 276l75 6v12c0 49 0 131 -106 131c-101 0 -101 -74 -101 -99l-84 5c10 87 65 155 182 155c43 0 101 -11 138 -40c46 -37 51 -84 51 -137v-22v-153c1 -45 1 -68 34 -68c10 0 19 2 26 5v-69c-13 -3 -27 -8 -50 -8c-37 0 -74 12 -82 70c-24 -25 -72 -77 -162 -77
c-92 0 -160 55 -160 135c0 60 22 137 239 154zM347 231c-31 -5 -73 -11 -124 -22c-88 -19 -103 -52 -103 -85c0 -38 30 -70 89 -70c55 0 102 22 125 71c12 26 13 37 13 106zM105 644h87v-103h-87v103zM302 644h88v-103h-88v103z" />
    <glyph glyph-name="agrave" unicode="&#xe0;" horiz-adv-x="500" 
d="M271 276l75 6v12c0 49 0 131 -106 131c-101 0 -101 -74 -101 -99l-84 5c10 87 65 155 182 155c43 0 101 -11 138 -40c46 -37 51 -84 51 -137v-22v-153c1 -45 1 -68 34 -68c10 0 19 2 26 5v-69c-13 -3 -27 -8 -50 -8c-37 0 -74 12 -82 70c-24 -25 -72 -77 -162 -77
c-92 0 -160 55 -160 135c0 60 22 137 239 154zM347 231c-31 -5 -73 -11 -124 -22c-88 -19 -103 -52 -103 -85c0 -38 30 -70 89 -70c55 0 102 22 125 71c12 26 13 37 13 106zM151 665h88l41 -144h-47z" />
    <glyph glyph-name="aring" unicode="&#xe5;" horiz-adv-x="500" 
d="M271 276l75 6v12c0 49 0 131 -106 131c-101 0 -101 -74 -101 -99l-84 5c10 87 65 155 182 155c43 0 101 -11 138 -40c46 -37 51 -84 51 -137v-22v-153c1 -45 1 -68 34 -68c10 0 19 2 26 5v-69c-13 -3 -27 -8 -50 -8c-37 0 -74 12 -82 70c-24 -25 -72 -77 -162 -77
c-92 0 -160 55 -160 135c0 60 22 137 239 154zM347 231c-31 -5 -73 -11 -124 -22c-88 -19 -103 -52 -103 -85c0 -38 30 -70 89 -70c55 0 102 22 125 71c12 26 13 37 13 106zM152 608c0 52 42 94 94 94s94 -42 94 -94s-42 -94 -94 -94s-94 42 -94 94zM195 609
c0 -28 23 -51 51 -51s51 23 51 51s-23 51 -51 51s-51 -23 -51 -51z" />
    <glyph glyph-name="atilde" unicode="&#xe3;" horiz-adv-x="500" 
d="M271 276l75 6v12c0 49 0 131 -106 131c-101 0 -101 -74 -101 -99l-84 5c10 87 65 155 182 155c43 0 101 -11 138 -40c46 -37 51 -84 51 -137v-22v-153c1 -45 1 -68 34 -68c10 0 19 2 26 5v-69c-13 -3 -27 -8 -50 -8c-37 0 -74 12 -82 70c-24 -25 -72 -77 -162 -77
c-92 0 -160 55 -160 135c0 60 22 137 239 154zM347 231c-31 -5 -73 -11 -124 -22c-88 -19 -103 -52 -103 -85c0 -38 30 -70 89 -70c55 0 102 22 125 71c12 26 13 37 13 106zM349 635h48c-4 -28 -21 -100 -82 -100c-12 0 -27 2 -66 16c-45 17 -50 19 -62 19
c-25 0 -30 -20 -33 -31h-49c4 28 20 99 87 99c21 0 49 -11 73 -20c37 -14 46 -14 53 -14c24 0 29 20 31 31z" />
    <glyph glyph-name="ccedilla" unicode="&#xe7;" horiz-adv-x="521" 
d="M407 178l86 -8c-29 -164 -154 -179 -201 -182l-17 -31l26 -13c19 -10 36 -34 36 -60c0 -66 -68 -81 -126 -86v21h6c46 0 46 34 46 36c0 13 -6 28 -31 38l-29 11l53 83c-50 5 -103 10 -155 69c-58 65 -62 142 -62 178c0 129 69 252 229 252c51 0 82 -10 99 -17
c43 -18 104 -65 118 -141l-89 -8c-3 19 -20 108 -126 108c-137 0 -143 -149 -143 -191c0 -115 52 -190 148 -190c114 0 127 97 132 131z" />
    <glyph glyph-name="eacute" unicode="&#xe9;" horiz-adv-x="521" 
d="M402 156l81 -11c-11 -32 -53 -159 -213 -159c-140 0 -231 95 -231 254c0 178 128 246 228 246c113 0 216 -76 216 -263h-358c0 -79 38 -177 152 -177c71 0 111 47 125 110zM127 280h269c-7 124 -96 145 -135 145c-68 0 -125 -50 -134 -145zM279 666h86l-86 -144h-41z" />
    <glyph glyph-name="ecircumflex" unicode="&#xea;" horiz-adv-x="521" 
d="M402 156l81 -11c-11 -32 -53 -159 -213 -159c-140 0 -231 95 -231 254c0 178 128 246 228 246c113 0 216 -76 216 -263h-358c0 -79 38 -177 152 -177c71 0 111 47 125 110zM127 280h269c-7 124 -96 145 -135 145c-68 0 -125 -50 -134 -145zM201 523h-70l94 151h67
l104 -151h-75l-61 95z" />
    <glyph glyph-name="edieresis" unicode="&#xeb;" horiz-adv-x="521" 
d="M402 156l81 -11c-11 -32 -53 -159 -213 -159c-140 0 -231 95 -231 254c0 178 128 246 228 246c113 0 216 -76 216 -263h-358c0 -79 38 -177 152 -177c71 0 111 47 125 110zM127 280h269c-7 124 -96 145 -135 145c-68 0 -125 -50 -134 -145zM130 644h87v-103h-87v103z
M327 644h88v-103h-88v103z" />
    <glyph glyph-name="egrave" unicode="&#xe8;" horiz-adv-x="521" 
d="M402 156l81 -11c-11 -32 -53 -159 -213 -159c-140 0 -231 95 -231 254c0 178 128 246 228 246c113 0 216 -76 216 -263h-358c0 -79 38 -177 152 -177c71 0 111 47 125 110zM127 280h269c-7 124 -96 145 -135 145c-68 0 -125 -50 -134 -145zM165 665h88l41 -144h-47z" />
    <glyph glyph-name="iacute" unicode="&#xed;" horiz-adv-x="208" 
d="M67 471h77v-471h-77v471zM117 666h86l-86 -144h-41z" />
    <glyph glyph-name="icircumflex" unicode="&#xee;" horiz-adv-x="208" 
d="M67 471h77v-471h-77v471zM45 523h-70l94 151h67l104 -151h-75l-61 95z" />
    <glyph glyph-name="idieresis" unicode="&#xef;" horiz-adv-x="208" 
d="M67 471h77v-471h-77v471zM-37 644h87v-103h-87v103zM160 644h88v-103h-88v103z" />
    <glyph glyph-name="igrave" unicode="&#xec;" horiz-adv-x="208" 
d="M67 471h77v-471h-77v471zM9 665h88l41 -144h-47z" />
    <glyph glyph-name="ntilde" unicode="&#xf1;" horiz-adv-x="521" 
d="M65 471h80v-69c44 77 119 84 147 84c60 0 132 -30 155 -108c8 -28 8 -57 8 -97v-281h-79v268c0 48 0 62 -5 78c-14 45 -58 65 -101 65c-35 0 -65 -11 -90 -36c-35 -35 -35 -71 -35 -106v-269h-80v471zM358 635h48c-4 -28 -21 -100 -82 -100c-12 0 -27 2 -66 16
c-45 17 -50 19 -62 19c-25 0 -30 -20 -33 -31h-49c4 28 20 99 87 99c21 0 49 -11 73 -20c37 -14 46 -14 53 -14c24 0 29 20 31 31z" />
    <glyph glyph-name="oacute" unicode="&#xf3;" horiz-adv-x="542" 
d="M502 236c-1 -143 -86 -250 -230 -250c-163 0 -232 122 -232 246c0 105 52 254 235 254c157 0 227 -121 227 -250zM415 236v12c0 137 -76 174 -138 174c-107 0 -150 -83 -150 -191c0 -99 41 -181 144 -181c133 0 143 138 144 186zM285 666h86l-86 -144h-41z" />
    <glyph glyph-name="ocircumflex" unicode="&#xf4;" horiz-adv-x="542" 
d="M502 236c-1 -143 -86 -250 -230 -250c-163 0 -232 122 -232 246c0 105 52 254 235 254c157 0 227 -121 227 -250zM415 236v12c0 137 -76 174 -138 174c-107 0 -150 -83 -150 -191c0 -99 41 -181 144 -181c133 0 143 138 144 186zM213 523h-70l94 151h67l104 -151h-75
l-61 95z" />
    <glyph glyph-name="odieresis" unicode="&#xf6;" horiz-adv-x="542" 
d="M502 236c-1 -143 -86 -250 -230 -250c-163 0 -232 122 -232 246c0 105 52 254 235 254c157 0 227 -121 227 -250zM415 236v12c0 137 -76 174 -138 174c-107 0 -150 -83 -150 -191c0 -99 41 -181 144 -181c133 0 143 138 144 186zM144 644h87v-103h-87v103zM341 644h88
v-103h-88v103z" />
    <glyph glyph-name="ograve" unicode="&#xf2;" horiz-adv-x="542" 
d="M502 236c-1 -143 -86 -250 -230 -250c-163 0 -232 122 -232 246c0 105 52 254 235 254c157 0 227 -121 227 -250zM415 236v12c0 137 -76 174 -138 174c-107 0 -150 -83 -150 -191c0 -99 41 -181 144 -181c133 0 143 138 144 186zM177 665h88l41 -144h-47z" />
    <glyph glyph-name="otilde" unicode="&#xf5;" horiz-adv-x="542" 
d="M502 236c-1 -143 -86 -250 -230 -250c-163 0 -232 122 -232 246c0 105 52 254 235 254c157 0 227 -121 227 -250zM415 236v12c0 137 -76 174 -138 174c-107 0 -150 -83 -150 -191c0 -99 41 -181 144 -181c133 0 143 138 144 186zM370 635h48c-4 -28 -21 -100 -82 -100
c-12 0 -27 2 -66 16c-45 17 -50 19 -62 19c-25 0 -30 -20 -33 -31h-49c4 28 20 99 87 99c21 0 49 -11 73 -20c37 -14 46 -14 53 -14c24 0 29 20 31 31z" />
    <glyph glyph-name="scaron" unicode="&#x161;" horiz-adv-x="479" 
d="M265 199l-45 9c-76 18 -169 39 -169 137c0 86 73 140 182 140c90 0 186 -43 202 -154l-86 -11c-1 29 -3 52 -34 76s-67 28 -91 28c-62 0 -93 -37 -93 -69c0 -45 51 -59 113 -74l45 -11c56 -14 157 -37 157 -136c0 -77 -68 -149 -198 -149c-53 0 -108 11 -146 38
c-15 11 -61 49 -70 128l90 14v-10c0 -22 4 -56 35 -82c28 -24 63 -27 95 -27c70 0 111 27 111 78c0 54 -41 63 -98 75zM295 673h71l-96 -151h-67l-102 151h74l61 -96z" />
    <glyph glyph-name="uacute" unicode="&#xfa;" horiz-adv-x="521" 
d="M65 195v276h79v-269c0 -49 0 -53 2 -65c8 -61 57 -74 94 -74c114 0 135 78 135 172v236h79v-471h-79v72c-15 -20 -63 -84 -161 -84c-66 0 -100 30 -115 48c-34 39 -34 80 -34 159zM273 666h86l-86 -144h-41z" />
    <glyph glyph-name="ucircumflex" unicode="&#xfb;" horiz-adv-x="521" 
d="M65 195v276h79v-269c0 -49 0 -53 2 -65c8 -61 57 -74 94 -74c114 0 135 78 135 172v236h79v-471h-79v72c-15 -20 -63 -84 -161 -84c-66 0 -100 30 -115 48c-34 39 -34 80 -34 159zM201 523h-70l94 151h67l104 -151h-75l-61 95z" />
    <glyph glyph-name="udieresis" unicode="&#xfc;" horiz-adv-x="521" 
d="M65 195v276h79v-269c0 -49 0 -53 2 -65c8 -61 57 -74 94 -74c114 0 135 78 135 172v236h79v-471h-79v72c-15 -20 -63 -84 -161 -84c-66 0 -100 30 -115 48c-34 39 -34 80 -34 159zM116 644h87v-103h-87v103zM313 644h88v-103h-88v103z" />
    <glyph glyph-name="ugrave" unicode="&#xf9;" horiz-adv-x="521" 
d="M65 195v276h79v-269c0 -49 0 -53 2 -65c8 -61 57 -74 94 -74c114 0 135 78 135 172v236h79v-471h-79v72c-15 -20 -63 -84 -161 -84c-66 0 -100 30 -115 48c-34 39 -34 80 -34 159zM165 665h88l41 -144h-47z" />
    <glyph glyph-name="yacute" unicode="&#xfd;" horiz-adv-x="437" 
d="M342 471h83l-198 -557c-34 -95 -57 -147 -145 -147c-32 0 -56 6 -73 11v71c11 -3 28 -8 51 -8c58 0 71 34 94 99l20 57l-160 474h85l118 -374zM237 666h86l-86 -144h-41z" />
    <glyph glyph-name="ydieresis" unicode="&#xff;" horiz-adv-x="437" 
d="M342 471h83l-198 -557c-34 -95 -57 -147 -145 -147c-32 0 -56 6 -73 11v71c11 -3 28 -8 51 -8c58 0 71 34 94 99l20 57l-160 474h85l118 -374zM78 644h87v-103h-87v103zM275 644h88v-103h-88v103z" />
    <glyph glyph-name="zcaron" unicode="&#x17e;" horiz-adv-x="417" 
d="M38 471h345v-64l-273 -341h279v-66h-376v66l271 336h-246v69zM274 673h71l-96 -151h-67l-102 151h74l61 -96z" />
    <glyph glyph-name="Euro" unicode="&#x20ac;" horiz-adv-x="583" 
d="M538 635v-84c-31 28 -84 54 -160 54c-116 0 -175 -73 -189 -168h306l-25 -64h-291c-1 -9 -1 -21 -1 -33c0 -13 0 -27 1 -35h265l-24 -65h-231c16 -107 82 -170 190 -170c74 0 125 24 159 54v-85c-25 -20 -85 -44 -170 -44c-144 0 -239 79 -265 245h-77l24 65h46
c-1 8 -2 23 -2 35s1 24 2 33h-70l24 64h52c23 138 101 243 266 243c80 0 141 -24 170 -45z" />
    <glyph glyph-name="scedilla" unicode="&#x15f;" horiz-adv-x="479" 
d="M265 199l-45 9c-76 18 -169 39 -169 137c0 86 73 140 182 140c90 0 186 -43 202 -154l-86 -11c-1 29 -3 52 -34 76s-67 28 -91 28c-62 0 -93 -37 -93 -69c0 -45 51 -59 113 -74l45 -11c56 -14 157 -37 157 -136c0 -75 -64 -144 -185 -149l-17 -29l26 -13
c19 -10 36 -34 36 -60c0 -66 -68 -81 -126 -86v22h6c46 0 46 33 46 36c0 12 -6 29 -31 38l-29 10l52 83c-45 3 -90 14 -122 37c-15 11 -61 49 -70 128l90 14v-10c0 -22 4 -56 35 -82c28 -24 63 -27 95 -27c70 0 111 27 111 78c0 54 -41 63 -98 75z" />
    <glyph glyph-name="Scedilla" unicode="&#x15e;" horiz-adv-x="667" 
d="M382 314l-59 12c-102 21 -252 55 -252 201c0 70 38 114 65 137c63 54 140 60 189 60c50 0 126 -5 190 -52c70 -51 84 -123 91 -166l-95 -6c-1 22 -4 78 -57 117c-36 26 -81 34 -126 34c-85 0 -160 -35 -160 -111c0 -79 78 -95 139 -110l78 -20c54 -14 83 -19 111 -31
c106 -44 122 -129 122 -176c0 -66 -27 -128 -90 -171c-60 -40 -130 -48 -175 -50l-15 -26l26 -13c19 -10 36 -34 36 -60c0 -66 -68 -81 -126 -86v22h6c46 0 46 33 46 36c0 12 -6 29 -31 38l-29 10l50 80c-80 3 -265 28 -279 242l101 13c1 -27 4 -89 57 -136
c40 -35 93 -47 145 -47c100 0 176 49 176 141c0 82 -65 104 -134 118z" />
    <glyph glyph-name="Idotaccent" unicode="&#x130;" horiz-adv-x="229" 
d="M67 706h95v-706h-95v706zM71 777v99h91v-99h-91z" />
    <glyph glyph-name="Gbreve" unicode="&#x11e;" horiz-adv-x="812" 
d="M413 373h328v-373h-81v99c-59 -86 -162 -117 -258 -117c-218 0 -352 153 -352 362c0 180 108 380 365 380c89 0 180 -29 246 -90c47 -44 69 -92 80 -114l-97 -26c-13 33 -50 152 -226 152c-198 0 -265 -164 -265 -292c0 -133 69 -290 261 -290c89 0 246 43 246 230h-247
v79zM480 891h52c-4 -71 -58 -130 -127 -130c-57 0 -122 40 -126 129h50c19 -61 71 -63 78 -63c41 0 73 37 73 64z" />
    <glyph glyph-name="gbreve" unicode="&#x11f;" horiz-adv-x="562" 
d="M414 471h83v-445c0 -55 0 -114 -29 -164c-38 -65 -114 -91 -189 -91c-50 0 -105 12 -144 40c-60 43 -68 108 -72 136h90c0 -54 31 -111 131 -111c121 0 130 60 130 178v55c-17 -24 -64 -83 -155 -83c-114 0 -218 83 -218 247c0 190 123 253 219 253c44 0 100 -14 154 -78
v63zM267 414c-86 -1 -144 -69 -144 -178c0 -27 2 -81 33 -123c33 -44 78 -56 116 -56c119 0 146 122 146 186c0 160 -119 171 -151 171zM355 655h52c-4 -71 -58 -130 -127 -130c-57 0 -122 40 -126 129h50c19 -61 71 -63 78 -63c41 0 73 37 73 64z" />
    </font>
</defs>
</svg>
