<?xml version="1.0" standalone="no"?>
<!DOCTYPE svg PUBLIC "-//W3C//DTD SVG 1.1//EN" "http://www.w3.org/Graphics/SVG/1.1/DTD/svg11.dtd" >
<svg xmlns="http://www.w3.org/2000/svg" xmlns:xlink="http://www.w3.org/1999/xlink" version="1.1">
<metadata>
Created by FontForge 20170910 at Tue Mar  7 04:18:49 2017
 By Jimmy Wärting
Copyright (c) 1991, 1998 Adobe Systems Incorporated. All Rights Reserved.Berthold Akzidenz-Grotesk is either a registered trademark or trademark of Berthold Types Limited in the United States and/or other countries.
</metadata>
<defs>
<font id="AkzidenzGrotesk-Light" horiz-adv-x="521" >
  <font-face 
    font-family="Akzidenz Grotesk"
    font-weight="300"
    font-stretch="normal"
    units-per-em="1000"
    panose-1="2 11 4 0 0 0 0 0 0 0"
    ascent="744"
    descent="-256"
    x-height="477"
    cap-height="706"
    bbox="-131 -256 1219.09 914"
    underline-thickness="50"
    underline-position="-100"
    stemh="50"
    stemv="57"
    unicode-range="U+0020-FB02"
  />
<missing-glyph horiz-adv-x="271" 
 />
    <glyph glyph-name=".notdef" horiz-adv-x="271" 
 />
    <glyph glyph-name="space" unicode=" " horiz-adv-x="271" 
 />
    <glyph glyph-name="space" unicode="&#xa0;" horiz-adv-x="271" 
 />
    <glyph glyph-name="exclam" unicode="!" horiz-adv-x="208" 
d="M86 116h76v-116h-76v116zM156 307l-9 -131h-47l-8 131v405h64v-405z" />
    <glyph glyph-name="quotedbl" unicode="&#x22;" horiz-adv-x="396" 
d="M336 700l-36 -255h-19l-32 242c-1 6 -1 11 -1 16c0 35 26 46 45 46c6 0 12 -1 18 -3c24 -11 25 -29 25 -46zM148 700l-35 -255h-19l-33 242c0 6 -1 11 -1 16c0 35 27 46 46 46c6 0 12 -1 18 -3c24 -11 24 -29 24 -46z" />
    <glyph glyph-name="numbersign" unicode="#" horiz-adv-x="667" 
d="M429 259l-35 -259h-62l38 259h-101l-38 -259h-58l36 259h-167v54h175l13 97h-167v57h174l32 241h63l-34 -241h100l31 241h60l-33 -241h168v-57h-175l-13 -97h168v-54h-175zM276 313h101l13 97h-100z" />
    <glyph glyph-name="dollar" unicode="$" horiz-adv-x="604" 
d="M323 0v-92h-58v92c-32 4 -89 11 -145 54c-42 32 -73 75 -93 124l71 7c50 -106 139 -119 167 -123v284c-76 24 -197 61 -197 184c0 48 20 91 51 120c46 43 106 51 146 56v62h58v-62c108 -8 172 -72 198 -163l-68 -8c-12 38 -35 62 -47 73c-33 28 -66 33 -83 35v-248
c130 -34 229 -78 229 -192c0 -126 -111 -201 -229 -203zM265 413v232c-65 -2 -130 -37 -130 -112c0 -31 12 -53 31 -71c21 -19 60 -40 99 -49zM323 327v-267c118 0 162 80 162 137c0 62 -46 100 -162 130z" />
    <glyph glyph-name="percent" unicode="%" horiz-adv-x="875" 
d="M344 477c-2 -113 -48 -220 -157 -220c-115 0 -156 118 -156 228c0 132 53 230 158 230c126 0 157 -135 155 -238zM293 478c1 110 -33 193 -105 193s-105 -85 -105 -185c0 -32 5 -103 30 -142c17 -27 42 -42 75 -42c87 0 104 103 105 176zM638 730l-353 -769l-40 18
l352 771zM844 212c-2 -112 -47 -220 -157 -220c-115 0 -156 119 -156 228c0 132 53 230 158 230c126 0 157 -136 155 -238zM793 213c1 110 -33 193 -105 193s-105 -85 -105 -185c0 -32 5 -103 30 -142c17 -27 42 -42 75 -42c87 0 104 103 105 176z" />
    <glyph glyph-name="ampersand" unicode="&#x26;" horiz-adv-x="646" 
d="M620 52v-61c-71 1 -100 34 -151 92c-25 -36 -90 -91 -193 -91c-137 0 -221 93 -221 196c0 44 14 92 49 137c32 42 61 61 129 105c-17 23 -58 80 -58 151c0 81 54 138 140 138c85 0 138 -51 138 -124c0 -37 -15 -71 -34 -99c-29 -39 -62 -60 -102 -86
c27 -43 109 -168 152 -222c22 57 24 99 25 128h63c-1 -30 -11 -114 -51 -178c39 -49 44 -54 56 -65c26 -20 47 -21 58 -21zM435 128c-58 80 -64 89 -84 119c-12 19 -71 111 -85 131c-58 -36 -143 -89 -143 -187c0 -84 72 -141 155 -141c88 0 143 61 157 78zM285 462
c54 27 106 70 106 129c0 26 -16 72 -74 72c-65 0 -80 -48 -80 -81c0 -39 21 -77 48 -120z" />
    <glyph glyph-name="quoteright" unicode="&#x2019;" horiz-adv-x="167" 
d="M44 706h79v-79c-1 -95 -1 -126 -46 -195l-33 23c30 45 38 78 38 129v6h-38v116z" />
    <glyph glyph-name="parenleft" unicode="(" horiz-adv-x="313" 
d="M289 798v-50c-28 -26 -50 -46 -72 -75c-85 -109 -101 -257 -101 -334c0 -183 80 -358 179 -437v-52c-172 108 -252 324 -252 488c0 110 40 340 246 460z" />
    <glyph glyph-name="parenright" unicode=")" horiz-adv-x="313" 
d="M23 -150v49c28 26 50 46 72 76c84 108 101 255 101 333c0 184 -80 358 -178 437v53c171 -108 251 -324 251 -489c0 -109 -40 -339 -246 -459z" />
    <glyph glyph-name="asterisk" unicode="*" horiz-adv-x="292" 
d="M180 574l51 -68l-37 -29l-47 73l-48 -73l-40 29l53 68l-85 23l15 44l82 -27v92h46v-92l79 31l15 -43z" />
    <glyph glyph-name="plus" unicode="+" horiz-adv-x="667" 
d="M364 261v-261h-59v261h-262v60h262v260h59v-260h261v-60h-261z" />
    <glyph glyph-name="comma" unicode="," horiz-adv-x="167" 
d="M44 116h79v-80c-1 -94 -1 -125 -46 -194l-33 22c30 46 38 79 38 130v6h-38v116z" />
    <glyph glyph-name="hyphen" unicode="-" horiz-adv-x="354" 
d="M317 358v-65h-279v65h279z" />
    <glyph glyph-name="hyphen" unicode="&#xad;" horiz-adv-x="354" 
d="M317 358v-65h-279v65h279z" />
    <glyph glyph-name="period" unicode="." horiz-adv-x="167" 
d="M44 116h79v-116h-79v116z" />
    <glyph glyph-name="slash" unicode="/" horiz-adv-x="479" 
d="M469 706l-383 -706h-76l385 706h74z" />
    <glyph glyph-name="zero" unicode="0" horiz-adv-x="583" 
d="M540 339c-4 -178 -74 -352 -249 -352c-185 0 -247 194 -247 365c0 205 80 368 250 368c207 0 249 -231 246 -381zM473 340c3 193 -61 325 -181 325c-122 0 -181 -138 -181 -311c0 -58 9 -172 51 -238c32 -50 76 -73 130 -73c166 0 180 213 181 297z" />
    <glyph glyph-name="one" unicode="1" horiz-adv-x="583" 
d="M350 706v-706h-61v573c-26 -20 -68 -29 -128 -28v54c129 3 129 74 128 107h61z" />
    <glyph glyph-name="two" unicode="2" horiz-adv-x="583" 
d="M507 55v-55h-447v55l14 9c44 28 114 73 208 151c90 74 182 157 182 283c0 114 -80 169 -175 169c-118 0 -172 -87 -172 -159c0 -62 36 -105 49 -120l-82 10c-6 14 -25 59 -25 117c0 126 95 205 232 205c157 0 239 -100 239 -225c0 -107 -66 -190 -133 -255
c-93 -92 -217 -170 -245 -185h355z" />
    <glyph glyph-name="three" unicode="3" horiz-adv-x="583" 
d="M126 511l-70 18c12 47 48 191 234 191c116 0 220 -60 220 -196c0 -18 -1 -74 -44 -113c-31 -30 -71 -36 -111 -41c114 -5 169 -78 169 -172c0 -122 -89 -211 -236 -211c-73 0 -132 23 -173 60c-44 39 -65 97 -72 156l67 22c-3 -136 86 -181 179 -181c50 0 98 12 131 47
c26 27 37 64 37 101c0 51 -19 88 -41 110c-39 37 -92 38 -143 38h-99v55h85c32 0 64 0 98 10c50 15 89 52 89 121c0 76 -56 141 -156 141c-111 0 -166 -81 -164 -156z" />
    <glyph glyph-name="four" unicode="4" horiz-adv-x="583" 
d="M432 177v-177h-61v177h-315v50l310 479h66v-474h110v-55h-110zM125 232h246v375z" />
    <glyph glyph-name="five" unicode="5" horiz-adv-x="583" 
d="M157 648l-14 -244c21 42 70 85 158 85c129 0 224 -96 224 -248c0 -140 -85 -254 -237 -254c-56 0 -125 11 -177 68c-22 24 -49 66 -58 131l66 20c0 -63 33 -164 165 -164c107 0 175 73 175 199c0 50 -11 100 -42 138c-26 31 -69 57 -126 57s-129 -31 -153 -135l-51 6
l12 400h373v-59h-315z" />
    <glyph glyph-name="six" unicode="6" horiz-adv-x="583" 
d="M535 564l-65 -23c-5 34 -18 124 -145 124c-70 0 -148 -26 -184 -160c-10 -40 -18 -94 -20 -129c44 66 113 97 192 97c152 0 230 -110 230 -244c0 -149 -98 -242 -239 -242c-244 0 -247 261 -247 344c0 75 6 205 74 296c54 73 122 93 193 93c108 0 180 -53 211 -156z
M476 236c0 31 -5 91 -48 136s-99 47 -120 47c-101 0 -184 -70 -184 -169c0 -22 12 -208 182 -208c47 0 93 11 131 60c37 47 40 101 39 134z" />
    <glyph glyph-name="seven" unicode="7" horiz-adv-x="583" 
d="M511 707v-60c-187 -253 -224 -438 -248 -647h-66c18 310 174 530 257 647h-334v-157h-57v217h448z" />
    <glyph glyph-name="eight" unicode="8" horiz-adv-x="583" 
d="M190 377l-9 3c-40 15 -109 64 -109 154c0 103 80 186 220 186c144 0 226 -78 226 -182c0 -86 -56 -144 -122 -161c70 -20 142 -85 142 -183c0 -105 -79 -207 -243 -207c-179 0 -250 114 -250 211c0 114 97 164 137 177zM472 194c2 106 -92 153 -181 153
c-90 0 -179 -49 -179 -149c0 -88 70 -154 180 -154c119 0 178 71 180 150zM454 535c-1 61 -37 91 -46 97c-40 33 -93 34 -114 34c-118 0 -159 -73 -159 -134c0 -70 61 -130 160 -130c105 0 160 60 159 133z" />
    <glyph glyph-name="nine" unicode="9" horiz-adv-x="583" 
d="M50 143l70 26c3 -33 13 -127 143 -127c158 0 193 129 200 302c-51 -102 -158 -110 -195 -110c-123 0 -228 84 -228 243c0 127 78 243 235 243c226 0 252 -214 252 -348c0 -222 -69 -385 -266 -385c-27 0 -84 3 -132 37c-40 29 -62 67 -79 119zM459 457
c0 68 -38 211 -184 211c-101 0 -168 -68 -168 -192c0 -139 82 -186 171 -186c61 0 101 20 134 53c32 32 46 68 47 114z" />
    <glyph glyph-name="colon" unicode=":" horiz-adv-x="208" 
d="M86 116h78v-116h-78v116zM86 468h78v-116h-78v116z" />
    <glyph glyph-name="semicolon" unicode=";" horiz-adv-x="208" 
d="M85 116h79v-80c-1 -94 -1 -125 -46 -194l-33 22c29 45 38 78 38 130v6h-38v116zM86 468h78v-116h-78v116z" />
    <glyph glyph-name="less" unicode="&#x3c;" horiz-adv-x="667" 
d="M667 61v-64l-667 322v70l667 320v-64l-600 -291z" />
    <glyph glyph-name="equal" unicode="=" horiz-adv-x="667" 
d="M667 231v-58h-667v58h667zM667 408v-59h-667v59h667z" />
    <glyph glyph-name="greater" unicode="&#x3e;" horiz-adv-x="667" 
d="M667 319l-667 -322v64l600 293l-600 291v64l667 -320v-70z" />
    <glyph glyph-name="question" unicode="?" horiz-adv-x="479" 
d="M206 116h78v-116h-78v116zM275 189v-20h-63v34c2 65 4 81 79 150c54 50 107 98 107 172c0 53 -34 134 -139 134c-101 0 -131 -75 -131 -136c0 -15 2 -55 25 -96l-75 22c-7 31 -11 50 -11 80c0 132 94 189 194 189c122 0 201 -86 201 -193c0 -99 -51 -146 -118 -207
c-68 -62 -68 -64 -69 -129z" />
    <glyph glyph-name="at" unicode="@" horiz-adv-x="896" 
d="M790 66l27 -32c-98 -97 -227 -158 -365 -158c-177 0 -383 102 -383 358c0 247 195 478 459 478c191 0 299 -119 299 -288c0 -178 -112 -352 -228 -352c-30 0 -50 12 -62 26c-19 22 -18 46 -18 67c-12 -17 -22 -30 -41 -48c-32 -28 -71 -45 -111 -45
c-45 0 -126 29 -126 161c0 145 98 282 208 282c24 0 46 -7 65 -18c34 -23 45 -52 55 -77l17 72h59l-33 -146c-13 -61 -29 -134 -29 -174c0 -47 28 -52 36 -52c59 0 162 136 162 305c0 144 -94 243 -256 243c-224 0 -410 -200 -410 -436c0 -209 160 -312 335 -312
c156 0 273 80 340 146zM548 347c1 85 -48 115 -92 115c-88 0 -147 -126 -147 -226c0 -97 62 -110 88 -110c42 0 85 33 111 77c36 58 40 130 40 144z" />
    <glyph glyph-name="A" unicode="A" horiz-adv-x="646" 
d="M354 706l281 -706h-73l-81 213h-316l-80 -213h-75l288 706h56zM187 267h274l-136 360z" />
    <glyph glyph-name="B" unicode="B" horiz-adv-x="667" 
d="M81 706h292c54 0 122 -1 174 -47c34 -30 55 -76 55 -129c0 -103 -75 -141 -120 -149c-2 -1 -4 -1 -6 -1c2 -1 5 -2 8 -2c88 -20 142 -82 142 -178c0 -76 -35 -174 -165 -195c-33 -5 -59 -5 -171 -5h-209v706zM148 646v-239h198c54 0 109 0 147 32c23 19 40 51 40 92
c0 40 -17 70 -41 88c-35 27 -84 27 -134 27h-210zM148 349v-288h179c47 0 69 0 86 1c90 4 146 49 146 135c0 111 -97 139 -111 142c-31 9 -66 9 -105 10h-195z" />
    <glyph glyph-name="C" unicode="C" horiz-adv-x="667" 
d="M558 192l62 -38c-68 -150 -174 -172 -262 -172c-49 0 -152 7 -226 94c-53 62 -82 162 -82 272c0 150 54 376 302 376c190 0 242 -115 273 -183l-67 -35c-13 58 -46 101 -75 123c-47 35 -103 36 -128 36c-76 0 -129 -22 -174 -83c-49 -67 -61 -148 -61 -224
c0 -48 6 -163 59 -233c55 -75 137 -83 187 -83c34 0 74 4 111 30c25 17 64 58 81 120z" />
    <glyph glyph-name="D" unicode="D" horiz-adv-x="688" 
d="M264 0h-183v706h188c75 -1 140 -1 191 -21c101 -40 177 -165 177 -330c0 -132 -48 -243 -126 -304c-64 -50 -128 -51 -247 -51zM149 644v-584h106c58 0 139 -1 186 21c68 31 129 130 129 271c0 121 -48 237 -134 275c-39 17 -77 17 -164 17h-123z" />
    <glyph glyph-name="E" unicode="E" horiz-adv-x="604" 
d="M567 62v-62h-486v706h461v-62h-394v-251h357v-62h-357v-269h419z" />
    <glyph glyph-name="F" unicode="F" horiz-adv-x="562" 
d="M146 350v-350h-65v706h462v-59h-397v-239h356v-58h-356z" />
    <glyph glyph-name="G" unicode="G" horiz-adv-x="708" 
d="M622 369v-369h-58v118c-8 -21 -30 -76 -96 -110c-33 -17 -74 -26 -118 -26c-195 0 -300 160 -300 365c0 218 112 377 316 377c181 0 237 -121 261 -179l-63 -34c-7 30 -42 156 -193 156c-145 0 -250 -117 -250 -316c0 -180 80 -310 233 -310c169 0 213 156 210 267h-260
v61h318z" />
    <glyph glyph-name="H" unicode="H" horiz-adv-x="729" 
d="M648 706v-706h-67v331h-434v-331h-66v706h66v-316h434v316h67z" />
    <glyph glyph-name="I" unicode="I" horiz-adv-x="229" 
d="M148 706v-706h-67v706h67z" />
    <glyph glyph-name="J" unicode="J" horiz-adv-x="500" 
d="M353 706h66v-414c0 -50 0 -146 -11 -187c-34 -121 -151 -121 -184 -121s-107 2 -158 54c-47 46 -50 102 -53 156l71 16c-1 -11 -2 -21 -2 -31c0 -80 36 -136 146 -136c122 0 123 97 124 169c1 35 1 57 1 114v380z" />
    <glyph glyph-name="K" unicode="K" horiz-adv-x="667" 
d="M349 427l300 -427h-82l-264 382l-154 -155v-227h-68v706h68v-394l384 394h92z" />
    <glyph glyph-name="L" unicode="L" horiz-adv-x="562" 
d="M539 62v-62h-458v707h68v-645h390z" />
    <glyph glyph-name="M" unicode="M" horiz-adv-x="792" 
d="M710 706v-706h-65l5 599l-231 -599h-46l-235 599l8 -599h-65v706h79l239 -599l228 599h83z" />
    <glyph glyph-name="N" unicode="N" horiz-adv-x="708" 
d="M627 706v-706h-66l-415 610v-610h-65v706h65l421 -604l-6 604h66z" />
    <glyph glyph-name="O" unicode="O" horiz-adv-x="708" 
d="M658 358c-1 -108 -33 -217 -90 -284c-69 -81 -154 -92 -212 -92c-87 0 -159 27 -217 96c-50 58 -89 151 -89 276c0 195 96 370 306 370c234 0 303 -206 302 -366zM586 357c1 128 -51 309 -230 309c-180 0 -235 -178 -235 -313c0 -131 52 -311 232 -311
c218 0 233 258 233 315z" />
    <glyph glyph-name="P" unicode="P" horiz-adv-x="625" 
d="M144 318v-318h-63v706h241c107 0 154 0 196 -19c55 -26 95 -88 95 -174c0 -42 -13 -158 -135 -185c-34 -8 -50 -8 -177 -10h-157zM144 650v-273h183c82 1 97 1 117 5c73 12 104 67 104 132c0 44 -15 88 -51 113c-33 22 -56 22 -182 23h-171z" />
    <glyph glyph-name="Q" unicode="Q" horiz-adv-x="708" 
d="M695 29l-42 -46l-89 83c-50 -51 -115 -84 -208 -84c-229 0 -306 199 -306 364c0 187 94 378 311 378c219 0 299 -194 299 -363c0 -79 -15 -169 -60 -245zM592 345c1 129 -47 321 -233 321c-176 0 -239 -173 -239 -319c0 -147 63 -309 235 -309c168 0 235 149 237 307z
" />
    <glyph glyph-name="R" unicode="R" horiz-adv-x="646" 
d="M392 313l229 -313h-84l-223 313h-166v-313h-67v707h198c123 -1 154 -1 198 -16c116 -41 124 -152 124 -187c0 -74 -32 -115 -53 -136c-51 -48 -118 -52 -156 -55zM148 647v-276h166c46 0 89 1 119 7c75 15 102 72 102 129c0 69 -34 121 -103 135c-20 4 -29 4 -118 5h-166
z" />
    <glyph glyph-name="S" unicode="S" horiz-adv-x="604" 
d="M561 569l-62 -34c-6 18 -14 42 -30 63c-35 49 -92 71 -153 71c-76 0 -166 -32 -166 -126c0 -86 79 -111 119 -123c20 -6 121 -32 143 -40c38 -12 163 -53 163 -187c0 -99 -83 -211 -264 -211c-75 0 -129 19 -166 43c-54 36 -84 88 -96 153l67 35c1 -28 4 -57 17 -82
c32 -66 105 -91 178 -91c136 0 196 75 196 150c0 51 -24 80 -43 95c-32 27 -73 37 -166 61c-100 26 -213 63 -213 194c0 139 123 184 233 184c181 0 227 -116 243 -155z" />
    <glyph glyph-name="T" unicode="T" horiz-adv-x="542" 
d="M304 647v-647h-67v647h-222v59h512v-59h-223z" />
    <glyph glyph-name="U" unicode="U" horiz-adv-x="688" 
d="M80 706h66v-420c0 -77 0 -131 34 -175c23 -32 76 -67 164 -67c25 0 59 2 92 15c54 21 82 55 97 117c6 24 7 66 7 92v438h67v-321c0 -196 0 -263 -60 -328c-51 -55 -127 -75 -201 -75c-119 0 -216 51 -250 153c-16 51 -16 90 -16 244v327z" />
    <glyph glyph-name="V" unicode="V" horiz-adv-x="604" 
d="M594 706l-265 -706h-60l-259 706h74l216 -614l223 614h71z" />
    <glyph glyph-name="W" unicode="W" horiz-adv-x="875" 
d="M865 706l-202 -706h-54l-169 571l-168 -571h-53l-209 706h72l166 -586l168 586h46l174 -586l161 586h68z" />
    <glyph glyph-name="X" unicode="X" horiz-adv-x="667" 
d="M380 380l266 -380h-83l-228 339l-237 -339h-77l268 380l-231 326h85l192 -285l196 285h81z" />
    <glyph glyph-name="Y" unicode="Y" horiz-adv-x="625" 
d="M338 292v-292h-65v292l-263 414h78l218 -351l227 351h81z" />
    <glyph glyph-name="Z" unicode="Z" horiz-adv-x="583" 
d="M548 60v-60h-519v44l436 601h-410v61h499v-47l-430 -599h424z" />
    <glyph glyph-name="bracketleft" unicode="[" horiz-adv-x="271" 
d="M244 -91v-53h-170v936h170v-53h-109v-830h109z" />
    <glyph glyph-name="backslash" unicode="\" horiz-adv-x="479" 
d="M10 706h76l383 -706h-74z" />
    <glyph glyph-name="bracketright" unicode="]" horiz-adv-x="271" 
d="M27 739v53h170v-936h-170v53h109v830h-109z" />
    <glyph glyph-name="asciicircum" unicode="^" horiz-adv-x="729" 
d="M399 706l174 -356h-76l-131 273l-134 -273h-76l180 356h63z" />
    <glyph glyph-name="underscore" unicode="_" horiz-adv-x="500" 
d="M510 -75v-50h-520v50h520z" />
    <glyph glyph-name="quoteleft" unicode="&#x2018;" horiz-adv-x="167" 
d="M123 432h-79v80c1 94 1 126 46 194l33 -22c-30 -45 -38 -79 -38 -129v-6h38v-117z" />
    <glyph glyph-name="a" unicode="a" horiz-adv-x="500" 
d="M493 47v-47c-72 0 -123 6 -128 79v9l-4 -10c-28 -58 -97 -88 -166 -88c-118 0 -150 80 -150 130c0 110 113 136 263 171l57 13v24c0 34 0 110 -116 110c-117 0 -124 -66 -125 -116l-65 11c4 24 9 54 28 82c34 54 95 74 160 74c58 0 146 -15 168 -93c6 -23 6 -45 6 -92
v-154c0 -84 1 -104 72 -103zM365 217v35l-30 -7l-118 -32c-54 -15 -114 -33 -114 -92c0 -38 28 -79 95 -79c45 0 96 21 127 52c37 37 39 75 40 123z" />
    <glyph glyph-name="b" unicode="b" 
d="M133 85v-85h-57v706h57v-311c36 72 96 92 146 92c128 0 198 -119 198 -257c0 -110 -47 -241 -195 -241c-105 0 -139 73 -149 96zM414 229c2 125 -53 205 -144 205c-20 0 -41 -5 -60 -14c-61 -32 -77 -108 -77 -179c0 -130 51 -199 141 -199c111 0 139 98 140 187z" />
    <glyph glyph-name="c" unicode="c" horiz-adv-x="479" 
d="M393 120l61 -14c-11 -22 -17 -35 -37 -57c-16 -17 -58 -61 -154 -61c-154 0 -219 124 -219 247c0 159 97 253 228 253c134 0 173 -95 182 -120l-55 -13c-26 62 -86 80 -129 80c-92 0 -162 -71 -162 -197c0 -74 27 -198 157 -198c49 0 98 19 128 80z" />
    <glyph glyph-name="d" unicode="d" 
d="M445 706v-706h-58v86c-19 -56 -75 -97 -146 -97c-112 0 -197 97 -197 250c0 154 92 248 206 248c71 0 123 -40 137 -87v306h58zM389 234c1 66 -8 116 -31 148c-18 25 -54 51 -106 51c-94 0 -144 -84 -144 -194c0 -72 22 -194 142 -194c137 0 138 145 139 189z" />
    <glyph glyph-name="e" unicode="e" 
d="M424 141l55 -15c-7 -17 -20 -44 -45 -72c-14 -15 -60 -66 -163 -66c-158 0 -227 121 -227 254c0 158 104 246 220 246c144 0 219 -126 215 -250h-370c-1 -25 1 -62 15 -99c38 -98 127 -98 147 -98c52 0 112 18 153 100zM110 286h302c-5 42 -18 83 -50 113
c-20 18 -52 36 -99 36c-82 0 -142 -58 -153 -149z" />
    <glyph glyph-name="f" unicode="f" horiz-adv-x="313" 
d="M295 477v-50h-108v-427h-59v427h-105v50h105v91c1 72 1 77 7 94c14 40 48 58 99 58c22 0 42 -4 61 -7v-58c-15 6 -28 12 -56 12c-10 0 -34 0 -46 -27c-5 -12 -5 -16 -6 -67v-96h108z" />
    <glyph glyph-name="g" unicode="g" horiz-adv-x="542" 
d="M466 477v-426c0 -123 0 -190 -48 -239c-30 -32 -88 -56 -165 -56c-32 0 -93 4 -142 42c-51 39 -60 90 -63 128l61 12c8 -51 22 -130 151 -130c90 0 131 37 143 105c4 25 5 124 6 155v24c-5 -17 -9 -31 -28 -51c-35 -38 -85 -51 -130 -51c-137 0 -207 114 -207 252
c0 160 90 246 208 246c84 0 141 -47 157 -99v88h57zM407 234c0 73 -8 203 -147 203c-43 0 -84 -16 -112 -48c-22 -26 -44 -72 -44 -146c0 -68 17 -122 44 -154c35 -42 81 -46 108 -46c146 0 150 136 151 191z" />
    <glyph glyph-name="h" unicode="h" 
d="M445 269v-269h-59v259c0 12 -1 71 -2 75c-5 55 -33 99 -110 99c-53 0 -114 -24 -133 -105c-7 -30 -7 -58 -7 -122v-206h-59v706h59v-305c29 59 88 86 148 86c71 0 127 -35 149 -90c13 -34 13 -76 14 -128z" />
    <glyph glyph-name="i" unicode="i" horiz-adv-x="208" 
d="M133 477v-477h-58v477h58zM133 680v-91h-58v91h58z" />
    <glyph glyph-name="j" unicode="j" horiz-adv-x="208" 
d="M75 477h58v-419c0 -45 0 -180 -2 -216c-2 -29 -6 -98 -95 -98c-29 0 -58 7 -84 20v56c38 -24 71 -24 78 -24c20 0 35 6 40 25c4 12 4 13 5 159v497zM133 680v-91h-58v91h58z" />
    <glyph glyph-name="k" unicode="k" horiz-adv-x="500" 
d="M276 287l213 -287h-72l-182 247l-102 -97v-150h-58v706h58v-480l268 251h74z" />
    <glyph glyph-name="l" unicode="l" horiz-adv-x="208" 
d="M134 706v-706h-59v706h59z" />
    <glyph glyph-name="m" unicode="m" horiz-adv-x="771" 
d="M695 235v-235h-59v258c0 89 0 116 -17 141c-16 24 -45 34 -74 34c-94 0 -120 -93 -124 -113c-6 -28 -7 -58 -7 -122v-198h-58v264c-1 50 -1 69 -4 90c-2 15 -11 79 -89 79c-41 0 -81 -20 -105 -64s-24 -92 -24 -178v-191h-59v476h59v-98c27 108 122 109 141 109
c54 0 125 -26 132 -119c3 13 9 35 24 57c30 45 77 62 124 62c57 0 91 -23 109 -45c30 -39 30 -90 31 -207z" />
    <glyph glyph-name="n" unicode="n" 
d="M445 247v-247h-59v247c0 93 0 120 -18 146c-12 17 -40 41 -93 41c-54 0 -86 -21 -111 -54c-30 -40 -30 -71 -30 -171v-209h-59v476h59v-85c16 48 64 96 149 96c26 0 89 -3 130 -57c31 -41 32 -80 32 -183z" />
    <glyph glyph-name="o" unicode="o" 
d="M477 241c1 -145 -83 -253 -218 -253c-139 0 -215 110 -215 244c0 124 63 256 217 256c151 0 215 -124 216 -247zM414 234c0 27 2 204 -152 204c-42 0 -83 -17 -110 -49c-41 -48 -45 -119 -45 -158c0 -136 70 -191 152 -191c105 0 154 83 155 194z" />
    <glyph glyph-name="p" unicode="p" 
d="M76 -253v730h58v-78c7 16 12 27 29 44c30 30 72 44 115 44c155 0 199 -151 199 -250c0 -129 -70 -248 -198 -248c-61 0 -118 27 -145 90v-332h-58zM134 245c-1 -34 -1 -66 7 -96c20 -77 74 -104 127 -104c116 0 148 120 148 199c0 103 -47 189 -148 189
c-129 0 -133 -144 -134 -188z" />
    <glyph glyph-name="q" unicode="q" horiz-adv-x="500" 
d="M445 476v-729h-57v336c-25 -62 -80 -94 -147 -94c-123 0 -197 114 -197 252c0 38 5 76 17 111c40 115 135 135 183 135c35 0 114 -11 144 -86v75h57zM389 237c0 39 -1 102 -34 146c-12 16 -41 49 -103 49c-96 0 -147 -80 -147 -188s53 -200 149 -200c46 0 81 21 103 53
c29 43 31 101 32 140z" />
    <glyph glyph-name="r" unicode="r" horiz-adv-x="313" 
d="M134 206v-206h-58v477h58v-76c30 63 80 84 139 84c14 0 21 -1 33 -3v-53c-18 3 -20 3 -36 3s-63 -1 -98 -38c-37 -41 -37 -90 -38 -188z" />
    <glyph glyph-name="s" unicode="s" horiz-adv-x="458" 
d="M222 280l50 -11c31 -8 71 -18 101 -51c21 -23 32 -53 32 -84c0 -70 -55 -146 -179 -146c-61 0 -100 20 -120 34c-34 23 -55 53 -72 94l58 20c11 -43 52 -95 134 -95s121 44 121 94c0 62 -63 77 -102 85l-57 12c-44 10 -124 30 -124 123c0 49 28 133 171 133
c47 0 85 -11 111 -27c43 -26 55 -66 59 -81l-57 -14c-3 13 -9 36 -41 54c-20 12 -47 17 -75 17c-36 0 -110 -9 -110 -80c0 -52 47 -65 100 -77z" />
    <glyph glyph-name="t" unicode="t" horiz-adv-x="292" 
d="M172 427v-326c0 -45 16 -58 39 -58c21 0 45 14 66 30v-59c-24 -16 -47 -23 -76 -23c-86 0 -86 48 -86 139v297h-100v50h100v203h57v-203h105v-50h-105z" />
    <glyph glyph-name="u" unicode="u" 
d="M445 477v-477h-59v86c-4 -10 -11 -26 -24 -43c-37 -46 -89 -54 -127 -54c-92 0 -131 58 -143 88c-16 37 -17 86 -17 166v234h59v-247c1 -104 1 -187 108 -187c27 0 67 4 101 40c42 44 43 95 43 184v210h59z" />
    <glyph glyph-name="v" unicode="v" horiz-adv-x="417" 
d="M406 477l-183 -477h-48l-165 477h59l132 -388l147 388h58z" />
    <glyph glyph-name="w" unicode="w" horiz-adv-x="688" 
d="M667 477l-151 -477h-50l-117 393l-117 -393h-50l-161 477h57l128 -385l117 385h50l118 -385l118 385h58z" />
    <glyph glyph-name="x" unicode="x" horiz-adv-x="458" 
d="M261 248l176 -248h-68l-140 203l-144 -203h-64l175 248l-161 229h69l125 -182l129 182h63z" />
    <glyph glyph-name="y" unicode="y" horiz-adv-x="437" 
d="M367 477h60l-215 -546c-36 -89 -40 -99 -50 -118c-22 -37 -46 -54 -88 -54c-33 0 -54 12 -64 19v60c28 -20 50 -24 62 -24c29 0 42 15 59 57l25 60l25 69l-165 477h57l139 -406z" />
    <glyph glyph-name="z" unicode="z" horiz-adv-x="396" 
d="M376 53v-53h-348v37l258 389h-236v51h319v-35l-258 -389h265z" />
    <glyph glyph-name="braceleft" unicode="{" horiz-adv-x="354" 
d="M86 308v33c23 7 42 13 56 46c10 24 12 50 12 116v87c0 62 2 109 23 143c33 57 73 60 134 65v-34c-93 -24 -95 -71 -96 -166v-46c0 -163 -5 -202 -80 -229c21 -7 39 -14 57 -39c23 -33 23 -67 24 -177v-57c0 -97 6 -139 95 -166v-34c-58 6 -91 9 -122 44
c-33 38 -33 85 -34 150v91c0 66 -1 94 -11 119c-15 37 -35 45 -58 54z" />
    <glyph glyph-name="bar" unicode="|" horiz-adv-x="229" 
d="M144 750v-1000h-59v1000h59z" />
    <glyph glyph-name="braceright" unicode="}" horiz-adv-x="354" 
d="M268 340v-33c-23 -7 -42 -13 -56 -46c-10 -24 -12 -50 -12 -116v-87c0 -62 -2 -109 -23 -143c-33 -57 -73 -60 -134 -65v34c93 24 95 71 96 166v46c0 163 5 202 80 229c-21 7 -39 14 -57 39c-23 33 -23 67 -24 177v57c0 97 -6 139 -95 166v34c58 -6 91 -9 122 -44
c33 -38 33 -85 34 -150v-91c0 -66 1 -94 11 -119c15 -37 35 -45 58 -54z" />
    <glyph glyph-name="asciitilde" unicode="~" horiz-adv-x="729" 
d="M564 356l31 -55c-33 -42 -73 -77 -128 -77c-29 0 -52 9 -97 31l-29 14c-21 10 -53 25 -83 25c-39 0 -53 -18 -91 -65l-33 54c16 25 53 80 123 80c39 0 75 -17 113 -35l32 -15c33 -14 47 -20 65 -20c46 0 76 37 97 63z" />
    <glyph glyph-name="exclamdown" unicode="&#xa1;" horiz-adv-x="208" 
d="M123 596h-76v116h76v-116zM52 405l9 131h47l9 -131v-405h-65v405z" />
    <glyph glyph-name="cent" unicode="&#xa2;" horiz-adv-x="479" 
d="M290 580v-92c34 -3 63 -9 91 -27c18 -11 55 -40 74 -92l-56 -13c-27 66 -86 75 -109 79v-393c19 3 71 12 104 78l61 -13c-31 -63 -76 -108 -165 -117v-103h-50v103c-152 15 -196 145 -196 245c0 155 91 239 196 252v93h50zM240 42v391c-109 -23 -132 -125 -132 -194
c0 -62 18 -124 52 -158c23 -22 47 -33 80 -39z" />
    <glyph glyph-name="sterling" unicode="&#xa3;" horiz-adv-x="604" 
d="M499 188l66 -7c-2 -67 -11 -184 -133 -184c-54 0 -99 23 -154 54c-33 -36 -76 -55 -130 -55c-27 0 -55 5 -77 21c-19 15 -29 36 -29 58c0 43 35 76 98 76c24 0 73 -6 110 -28c16 33 19 60 19 73c0 46 -29 75 -40 86h-132v52h93c-21 16 -38 34 -58 57
c-24 28 -61 72 -61 135c0 102 94 180 223 180c71 0 130 -23 166 -55c47 -41 58 -95 62 -134l-66 -14c-1 33 -8 70 -40 101c-30 27 -74 42 -123 42c-84 0 -154 -45 -154 -119c0 -12 0 -44 40 -93c13 -15 84 -84 99 -100h151v-52h-120c10 -18 26 -46 26 -89
c0 -31 -8 -62 -26 -88c31 -19 99 -50 127 -50c60 0 62 64 63 133zM230 74c-27 18 -59 26 -91 26c-8 0 -45 0 -45 -27c0 -11 11 -28 47 -28c50 0 78 20 89 29z" />
    <glyph glyph-name="fraction" unicode="&#x2044;" horiz-adv-x="125" 
d="M256 695l-354 -695l-33 13l354 698z" />
    <glyph glyph-name="fraction" unicode="&#x2215;" horiz-adv-x="125" 
d="M256 695l-354 -695l-33 13l354 698z" />
    <glyph glyph-name="yen" unicode="&#xa5;" horiz-adv-x="625" 
d="M273 0v234h-203v53l204 2l-35 57h-169v53h135l-195 307h78l219 -348l226 348h81l-204 -307h144v-53h-180l-37 -59h217v-53h-216v-234h-65z" />
    <glyph glyph-name="florin" unicode="&#x192;" horiz-adv-x="333" 
d="M237 575l-25 -104h85l-11 -45h-84l-140 -573c-5 -15 -7 -24 -12 -35c-6 -11 -31 -62 -88 -62c-20 0 -37 5 -54 13l15 55c8 -4 19 -9 33 -9c33 0 41 27 52 70l132 541h-74l12 45h72l33 132c12 43 30 111 106 111c20 0 36 -5 52 -10l-14 -57l-7 2c-17 4 -19 4 -24 4
c-27 0 -37 -16 -41 -22c-5 -9 -6 -14 -18 -56z" />
    <glyph glyph-name="section" unicode="&#xa7;" 
d="M441 697l-46 -45c-17 17 -74 70 -146 70c-58 0 -88 -35 -88 -77c0 -49 37 -67 124 -105c119 -51 189 -87 189 -185c0 -64 -37 -126 -105 -156c25 -13 81 -44 81 -124c0 -84 -69 -157 -185 -157c-103 0 -180 51 -227 98l47 46c14 -14 88 -81 182 -81c83 0 117 48 117 93
c0 49 -33 65 -123 106c-134 60 -211 101 -211 196c0 57 35 126 115 155c-27 17 -70 47 -70 112c0 66 54 140 158 140c92 0 154 -56 188 -86zM295 237l27 -10c23 15 88 64 88 124c0 31 -14 51 -26 64c-19 18 -57 35 -70 41c-28 14 -80 39 -98 43c-58 -26 -101 -71 -101 -122
c0 -28 11 -44 33 -62c29 -23 88 -52 147 -78z" />
    <glyph glyph-name="currency" unicode="&#xa4;" horiz-adv-x="667" 
d="M610 569l-74 -73c19 -25 54 -71 54 -158c0 -84 -38 -134 -55 -156l74 -75l-46 -45l-73 75c-39 -27 -77 -54 -157 -54c-78 0 -115 25 -156 54l-74 -73l-45 45l74 73c-28 42 -55 80 -55 158c0 83 36 131 55 156l-73 73l45 45l73 -73c35 25 77 55 158 55s128 -34 156 -54
l73 73zM529 340c0 121 -94 197 -193 197c-105 0 -198 -77 -198 -198c0 -109 84 -197 197 -197c107 0 194 82 194 198z" />
    <glyph glyph-name="quotesingle" unicode="'" horiz-adv-x="208" 
d="M148 700l-35 -255h-19l-33 242c0 6 -1 11 -1 16c0 35 27 46 46 46c6 0 12 -1 18 -3c24 -11 24 -29 24 -46z" />
    <glyph glyph-name="quotedblleft" unicode="&#x201c;" horiz-adv-x="292" 
d="M248 432h-79v80c0 95 3 128 46 194l33 -22c-30 -45 -39 -79 -39 -129v-6h39v-117zM123 432h-79v80c1 94 1 126 46 194l33 -22c-30 -45 -38 -79 -38 -129v-6h38v-117z" />
    <glyph glyph-name="guillemotleft" unicode="&#xab;" horiz-adv-x="375" 
d="M173 309l119 185l47 -29l-99 -156l99 -141l-47 -31zM38 309l118 185l48 -29l-99 -156l99 -141l-48 -31z" />
    <glyph glyph-name="guilsinglleft" unicode="&#x2039;" horiz-adv-x="250" 
d="M43 309l119 185l47 -29l-99 -156l99 -141l-47 -31z" />
    <glyph glyph-name="guilsinglright" unicode="&#x203a;" horiz-adv-x="250" 
d="M207 322l-119 -185l-47 30l99 155l-99 141l47 31z" />
    <glyph glyph-name="fi" unicode="&#xfb01;" 
d="M295 477v-50h-108v-427h-59v427h-105v50h105v91c1 72 1 77 7 94c14 40 48 58 99 58c22 0 42 -4 61 -7v-58c-15 6 -29 12 -56 12c-10 0 -34 0 -46 -27c-5 -12 -5 -16 -6 -67v-96h108zM446 477v-477h-58v477h58zM446 680v-91h-58v91h58z" />
    <glyph glyph-name="fl" unicode="&#xfb02;" 
d="M296 477v-50h-109v-427h-59v427h-105v50h105v91c1 72 1 77 7 94c14 40 48 58 99 58c23 0 42 -4 62 -7v-58c-15 6 -29 12 -57 12c-10 0 -34 0 -46 -27c-5 -12 -5 -16 -6 -67v-96h109zM447 706v-706h-59v706h59z" />
    <glyph glyph-name="endash" unicode="&#x2013;" horiz-adv-x="583" 
d="M546 358v-65h-508v65h508z" />
    <glyph glyph-name="dagger" unicode="&#x2020;" horiz-adv-x="562" 
d="M317 440v-440h-68v440h-160v59h160v207h68v-207h156v-59h-156z" />
    <glyph glyph-name="daggerdbl" unicode="&#x2021;" horiz-adv-x="562" 
d="M317 214v-214h-68v214h-160v59h160v179h-160v59h160v196h68v-196h156v-59h-156v-179h156v-59h-156z" />
    <glyph glyph-name="periodcentered" unicode="&#xb7;" horiz-adv-x="167" 
d="M44 384h79v-116h-79v116z" />
    <glyph glyph-name="periodcentered" unicode="&#x2219;" horiz-adv-x="167" 
d="M44 384h79v-116h-79v116z" />
    <glyph glyph-name="paragraph" unicode="&#xb6;" horiz-adv-x="667" 
d="M310 706h222v-44h-34v-829h-46v829h-157v-829h-46v497c-32 5 -74 12 -112 53c-32 35 -47 82 -47 129c0 43 12 86 39 120c55 70 130 73 181 74z" />
    <glyph glyph-name="bullet" unicode="&#x2022;" horiz-adv-x="333" 
d="M47 353c0 66 53 119 119 119s119 -53 119 -119s-53 -119 -119 -119s-119 53 -119 119z" />
    <glyph glyph-name="quotesinglbase" unicode="&#x201a;" horiz-adv-x="167" 
d="M44 116h79v-80c-1 -94 -1 -125 -46 -194l-33 23c30 45 38 78 38 129v6h-38v116z" />
    <glyph glyph-name="quotedblbase" unicode="&#x201e;" horiz-adv-x="292" 
d="M44 116h79v-80c-1 -94 -1 -125 -46 -194l-33 23c30 45 38 78 38 129v6h-38v116zM169 116h79v-80c-1 -94 -2 -125 -46 -194l-33 23c30 45 38 78 38 129v6h-38v116z" />
    <glyph glyph-name="quotedblright" unicode="&#x201d;" horiz-adv-x="292" 
d="M44 706h79v-79c-1 -95 -1 -126 -46 -195l-33 23c30 45 38 78 38 129v6h-38v116zM169 706h79v-79c-1 -95 -2 -126 -46 -195l-33 23c30 45 38 78 38 129v6h-38v116z" />
    <glyph glyph-name="guillemotright" unicode="&#xbb;" horiz-adv-x="375" 
d="M201 322l-118 -185l-47 30l99 155l-99 141l47 31zM337 322l-118 -185l-48 30l99 155l-99 141l48 31z" />
    <glyph glyph-name="ellipsis" unicode="&#x2026;" horiz-adv-x="1000" 
d="M127 116h79v-116h-79v116zM461 116h79v-116h-79v116zM795 116h79v-116h-79v116z" />
    <glyph glyph-name="perthousand" unicode="&#x2030;" horiz-adv-x="1250" 
d="M344 477c-2 -113 -48 -220 -157 -220c-115 0 -156 118 -156 228c0 132 53 230 158 230c126 0 157 -135 155 -238zM293 478c1 110 -33 193 -105 193s-105 -85 -105 -185c0 -32 5 -103 30 -142c17 -27 42 -42 75 -42c87 0 104 103 105 176zM638 730l-353 -769l-40 18
l351 770zM844 212c-2 -112 -47 -220 -157 -220c-115 0 -156 119 -156 228c0 132 53 230 158 230c126 0 157 -136 155 -238zM793 213c1 110 -33 193 -105 193s-105 -85 -105 -185c0 -32 5 -103 30 -142c17 -27 42 -42 75 -42c87 0 104 103 105 176zM1219 212
c-2 -112 -47 -220 -157 -220c-115 0 -156 119 -156 228c0 132 53 230 158 230c126 0 157 -136 155 -238zM1168 213c1 110 -33 193 -105 193s-105 -85 -105 -185c0 -32 5 -103 30 -142c17 -27 42 -42 75 -42c87 0 104 103 105 176z" />
    <glyph glyph-name="questiondown" unicode="&#xbf;" horiz-adv-x="479" 
d="M273 590h-78v116h78v-116zM204 517v20h63v-34c-2 -66 -4 -81 -79 -150c-54 -50 -107 -98 -107 -172c0 -53 34 -134 138 -134c102 0 132 75 132 136c0 15 -2 55 -25 96l75 -22c7 -31 11 -50 11 -80c0 -132 -94 -189 -194 -189c-123 0 -201 86 -201 192
c0 100 51 147 118 208c67 62 68 64 69 129z" />
    <glyph glyph-name="grave" unicode="`" horiz-adv-x="271" 
d="M247 558h-53l-170 140h111z" />
    <glyph glyph-name="acute" unicode="&#xb4;" horiz-adv-x="271" 
d="M247 698l-170 -140h-53l112 140h111z" />
    <glyph glyph-name="circumflex" unicode="&#x2c6;" horiz-adv-x="271" 
d="M145 696l135 -138h-52l-98 65l-89 -65h-50l128 138h26z" />
    <glyph glyph-name="tilde" unicode="&#x2dc;" horiz-adv-x="271" 
d="M251 675l41 -10c-19 -40 -42 -90 -95 -90c-24 0 -49 13 -78 28c-30 15 -40 20 -52 20c-25 0 -36 -23 -45 -42l-42 9c10 25 35 87 94 87c27 0 52 -13 74 -25s40 -20 55 -20c29 0 41 26 48 43z" />
    <glyph glyph-name="macron" unicode="&#xaf;" horiz-adv-x="271" 
d="M252 645v-63h-233v63h233z" />
    <glyph glyph-name="macron" unicode="&#x2c9;" horiz-adv-x="271" 
d="M252 645v-63h-233v63h233z" />
    <glyph glyph-name="breve" unicode="&#x2d8;" horiz-adv-x="271" 
d="M-5 685h45c7 -42 47 -64 92 -64c33 0 92 13 101 64h43c-5 -52 -55 -121 -147 -121c-76 0 -128 55 -134 121z" />
    <glyph glyph-name="dotaccent" unicode="&#x2d9;" horiz-adv-x="271" 
d="M166 674v-92h-61v92h61z" />
    <glyph glyph-name="dieresis" unicode="&#xa8;" horiz-adv-x="271" 
d="M252 674v-92h-61v92h61zM80 674v-92h-61v92h61z" />
    <glyph glyph-name="ring" unicode="&#x2da;" horiz-adv-x="271" 
d="M56 631c0 44 35 79 79 79s79 -35 79 -79s-35 -79 -79 -79s-79 35 -79 79zM92 631c0 -23 19 -42 42 -42s42 19 42 42s-19 42 -42 42s-42 -19 -42 -42z" />
    <glyph glyph-name="cedilla" unicode="&#xb8;" horiz-adv-x="271" 
d="M131 0l-24 -47c10 2 17 3 28 3c41 0 70 -25 70 -64c0 -51 -46 -82 -101 -82c-6 0 -13 1 -38 3v27c12 -1 21 -2 32 -2c55 0 56 36 56 39c0 21 -19 38 -49 38c-17 0 -29 -6 -39 -10v24l41 71h24z" />
    <glyph glyph-name="hungarumlaut" unicode="&#x2dd;" horiz-adv-x="271" 
d="M174 698l-171 -140h-52l111 140h112zM321 698l-170 -140h-53l111 140h112z" />
    <glyph glyph-name="ogonek" unicode="&#x2db;" horiz-adv-x="271" 
d="M145 6l46 -1c-25 -18 -64 -47 -64 -81c0 -10 4 -19 10 -26c14 -15 33 -15 63 -15v-46c-8 -1 -17 -1 -24 -1c-30 0 -106 5 -106 67c0 43 46 81 75 103z" />
    <glyph glyph-name="caron" unicode="&#x2c7;" horiz-adv-x="271" 
d="M126 558l-134 138h51l98 -65l90 65h49l-127 -138h-27z" />
    <glyph glyph-name="emdash" unicode="&#x2014;" horiz-adv-x="688" 
d="M650 358v-65h-613v65h613z" />
    <glyph glyph-name="AE" unicode="&#xc6;" horiz-adv-x="1000" 
d="M971 60v-60h-497v205h-265l-129 -205h-80l452 706h500v-61h-411v-254h369v-62h-369v-269h430zM248 267h226v364z" />
    <glyph glyph-name="ordfeminine" unicode="&#xaa;" horiz-adv-x="313" 
d="M224 440l-1 7l-2 -3c-28 -37 -70 -44 -98 -44c-75 0 -97 51 -97 84c0 72 73 89 165 110l30 7v10c0 21 0 62 -66 62c-68 0 -69 -38 -70 -71l-51 8c5 31 17 105 121 105c42 0 74 -13 90 -31c21 -22 21 -46 21 -88v-93c0 -53 1 -59 44 -58v-39h-10c-45 0 -65 7 -76 34z
M221 543v15l-11 -3c-51 -13 -85 -22 -106 -30c-9 -4 -32 -13 -32 -40c0 -22 17 -43 53 -43c26 0 55 12 74 31c20 20 22 42 22 70z" />
    <glyph glyph-name="Lslash" unicode="&#x141;" horiz-adv-x="562" 
d="M81 0v255l-81 -53v60l81 53v392h68v-349l216 140v-60l-216 -140v-236h390v-62h-458z" />
    <glyph glyph-name="Oslash" unicode="&#xd8;" horiz-adv-x="708" 
d="M627 714l40 -32l-68 -81c29 -49 62 -121 62 -241c0 -186 -79 -378 -307 -378c-118 0 -175 52 -200 78l-58 -70l-38 31l64 78c-31 48 -72 125 -72 255c0 231 120 370 309 370c83 0 153 -24 208 -84zM550 542l-354 -430c17 -20 61 -71 160 -71c70 0 128 24 171 81
c57 75 62 172 62 221c0 34 -3 68 -8 102c-9 55 -21 78 -31 97zM167 153l354 433c-9 15 -51 78 -159 78c-71 0 -130 -19 -179 -86c-49 -68 -62 -151 -62 -222s12 -142 46 -203z" />
    <glyph glyph-name="OE" unicode="&#x152;" horiz-adv-x="1062" 
d="M1026 60v-60h-490c-25 -6 -73 -18 -139 -18c-214 0 -347 148 -347 369c0 199 114 369 348 369c52 0 88 -7 127 -14h476v-59h-408v-256h370v-62h-370v-269h433zM525 60v587c-28 5 -68 11 -113 11c-82 0 -165 -23 -220 -84c-41 -46 -72 -127 -72 -230
c0 -206 131 -302 293 -302c58 0 91 11 112 18z" />
    <glyph glyph-name="ordmasculine" unicode="&#xba;" horiz-adv-x="333" 
d="M304 559c0 -92 -53 -160 -138 -160c-86 0 -136 67 -136 155c0 78 41 161 137 161c95 0 136 -77 137 -156zM255 555c0 16 1 119 -87 119c-64 0 -89 -53 -89 -121c0 -64 27 -112 87 -112c63 0 88 52 89 114z" />
    <glyph glyph-name="ae" unicode="&#xe6;" horiz-adv-x="833" 
d="M738 148l54 -11c-27 -69 -71 -106 -95 -120c-33 -20 -78 -29 -117 -29c-62 0 -156 24 -191 117c-13 -26 -59 -115 -196 -115c-34 0 -57 6 -73 11c-52 19 -82 62 -82 117c0 102 95 132 256 168l71 18c1 61 -2 71 -5 80c-7 21 -26 50 -103 50c-73 0 -142 -20 -138 -112
l-66 8c2 18 6 43 22 72c45 81 140 86 178 86c102 0 146 -41 162 -78c13 20 23 31 42 45c22 15 61 33 120 33c118 0 213 -74 215 -251h-368c0 -8 -1 -16 -1 -24c0 -55 17 -96 38 -121c27 -31 71 -52 122 -52c86 0 126 52 155 108zM424 286h298c-3 32 -9 87 -55 122
c-25 19 -58 28 -90 28c-44 0 -141 -16 -153 -150zM365 211v40c-83 -21 -172 -43 -214 -61c-19 -8 -55 -26 -55 -70c0 -34 21 -76 95 -76c42 0 91 15 127 43c46 38 47 76 47 124z" />
    <glyph glyph-name="dotlessi" unicode="&#x131;" horiz-adv-x="208" 
d="M133 477v-477h-58v477h58z" />
    <glyph glyph-name="lslash" unicode="&#x142;" horiz-adv-x="208" 
d="M75 0v339l-75 -49v60l75 49v307h59v-269l75 48v-59l-75 -49v-377h-59z" />
    <glyph glyph-name="oslash" unicode="&#xf8;" 
d="M156 14l-20 -36l-38 22l22 38c-51 53 -76 125 -76 199c0 127 75 252 216 252c38 0 69 -8 101 -25l24 40l38 -22l-26 -45c56 -52 80 -118 80 -196c0 -144 -82 -253 -216 -253c-57 0 -88 17 -105 26zM149 89l188 329c-11 6 -35 20 -73 20c-92 0 -160 -81 -160 -202
c0 -56 13 -102 45 -147zM371 391l-190 -330c26 -18 56 -21 76 -21c57 0 95 24 120 56c35 46 40 104 40 142c0 87 -29 130 -46 153z" />
    <glyph glyph-name="oe" unicode="&#x153;" horiz-adv-x="896" 
d="M797 143l57 -15c-29 -68 -75 -100 -96 -112c-30 -17 -71 -28 -120 -28c-24 0 -69 2 -112 27c-36 22 -58 48 -78 88c-6 -17 -21 -56 -72 -86c-33 -19 -76 -29 -114 -29c-136 0 -218 109 -218 247c0 108 52 253 221 253c141 0 179 -102 183 -113c16 28 64 113 188 113
c142 0 216 -106 218 -250h-371c-1 -6 -1 -15 -1 -25c0 -76 41 -173 156 -173c105 0 146 75 159 103zM484 288h302c-4 65 -44 148 -148 148c-90 0 -143 -64 -154 -148zM420 235c1 153 -81 201 -153 201c-93 0 -159 -69 -159 -194c0 -140 69 -202 155 -202
c76 0 157 49 157 195z" />
    <glyph glyph-name="germandbls" unicode="&#xdf;" horiz-adv-x="500" 
d="M131 0h-57v452c1 88 1 128 15 167c22 61 77 105 162 105c127 0 168 -99 168 -170c0 -66 -32 -134 -119 -149c28 -4 79 -13 118 -69c27 -40 42 -95 42 -153c0 -116 -65 -198 -162 -198c-51 0 -90 21 -108 31v68c30 -21 70 -45 108 -45c59 0 98 51 98 146
c0 75 -29 120 -53 142c-51 47 -124 44 -166 42v58c56 -3 106 7 132 26c25 18 47 54 47 101c0 58 -34 113 -107 113c-45 0 -73 -20 -86 -35c-32 -36 -32 -84 -32 -205v-427z" />
    <glyph glyph-name="onesuperior" unicode="&#xb9;" horiz-adv-x="375" 
d="M228 707v-442h-48v345l-4 -2c-15 -6 -31 -12 -74 -10v43c79 0 79 37 78 66h48z" />
    <glyph glyph-name="logicalnot" unicode="&#xac;" horiz-adv-x="667" 
d="M607 0v262h-607v59h667v-321h-60z" />
    <glyph glyph-name="mu" unicode="&#xb5;" 
d="M386 0v87c-18 -41 -46 -65 -53 -71c-32 -24 -67 -26 -83 -26c-57 0 -87 26 -116 64v-295h-59v718h59v-276c0 -21 0 -59 13 -90c21 -50 67 -67 107 -67c31 0 62 9 90 39c41 45 42 94 42 173v221h59v-477h-59z" />
    <glyph glyph-name="mu" unicode="&#x3bc;" 
d="M386 0v87c-18 -41 -46 -65 -53 -71c-32 -24 -67 -26 -83 -26c-57 0 -87 26 -116 64v-295h-59v718h59v-276c0 -21 0 -59 13 -90c21 -50 67 -67 107 -67c31 0 62 9 90 39c41 45 42 94 42 173v221h59v-477h-59z" />
    <glyph glyph-name="trademark" unicode="&#x2122;" horiz-adv-x="687" 
d="M620 707v-332h-46v218l2 67l-17 -58l-72 -227h-42l-72 228l-17 56l3 -66v-218h-45v332h67l87 -273l85 273h67zM180 665v-290h-47v290h-109v42h262v-42h-106z" />
    <glyph glyph-name="Eth" unicode="&#xd0;" horiz-adv-x="688" 
d="M81 0v351h-81v54h81v301h188c75 -1 140 -1 191 -21c101 -40 177 -166 177 -330c0 -132 -48 -243 -126 -304c-64 -50 -128 -51 -247 -51h-183zM370 351h-221v-291h106c58 0 139 -1 186 21c68 31 129 130 129 270c0 121 -48 237 -134 276c-39 17 -77 17 -164 17h-123v-239
h221v-54z" />
    <glyph glyph-name="onehalf" unicode="&#xbd;" horiz-adv-x="875" 
d="M229 707v-442h-48v345l-4 -2c-15 -6 -31 -12 -74 -10v43c79 0 79 37 78 66h48zM615 730l-353 -769l-40 18l352 770zM824 44v-44h-282v42c32 20 75 48 137 99c54 45 108 94 108 168c0 66 -46 98 -101 98c-69 0 -99 -51 -99 -92c0 -37 23 -64 37 -80l-66 8
c-5 12 -17 40 -17 76c0 82 63 131 146 131c101 0 151 -65 151 -143c0 -106 -106 -189 -215 -263h201z" />
    <glyph glyph-name="plusminus" unicode="&#xb1;" horiz-adv-x="667" 
d="M364 379v-256h-59v256h-265v59h265v256h59v-256h262v-59h-262zM626 59v-59h-586v59h586z" />
    <glyph glyph-name="Thorn" unicode="&#xde;" horiz-adv-x="625" 
d="M144 209v-209h-63v706h63v-109h178c107 0 154 0 196 -19c55 -26 95 -88 95 -174c0 -42 -13 -158 -135 -185c-34 -8 -50 -8 -177 -10h-157zM144 541v-273h183c82 1 97 1 117 5c73 12 104 67 104 132c0 44 -15 88 -51 113c-33 22 -56 22 -182 23h-171z" />
    <glyph glyph-name="onequarter" unicode="&#xbc;" horiz-adv-x="875" 
d="M228 707v-442h-48v345l-4 -2c-15 -6 -31 -12 -74 -10v43c79 0 79 37 78 66h48zM637 730l-353 -770l-40 19l352 770zM778 108v-108h-48v108h-192v38l191 296h49v-290h67v-44h-67zM595 152h135v206z" />
    <glyph glyph-name="divide" unicode="&#xf7;" horiz-adv-x="667" 
d="M667 320v-59h-667v59h667zM289 421c0 25 21 46 46 46s46 -21 46 -46s-21 -46 -46 -46s-46 21 -46 46zM289 160c0 25 21 46 46 46s46 -21 46 -46s-21 -46 -46 -46s-46 21 -46 46z" />
    <glyph glyph-name="brokenbar" unicode="&#xa6;" horiz-adv-x="229" 
d="M85 -175v350h59v-350h-59zM144 325h-59v350h59v-350z" />
    <glyph glyph-name="degree" unicode="&#xb0;" horiz-adv-x="354" 
d="M30 601c0 81 66 147 147 147s147 -66 147 -147s-66 -147 -147 -147s-147 66 -147 147zM90 601c0 -48 39 -87 87 -87s87 39 87 87s-39 87 -87 87s-87 -39 -87 -87z" />
    <glyph glyph-name="thorn" unicode="&#xfe;" 
d="M76 -253v959h58v-307c7 16 12 27 29 44c30 30 72 44 115 44c155 0 199 -151 199 -250c0 -129 -70 -248 -198 -248c-61 0 -118 27 -145 90v-332h-58zM134 245c-1 -34 -1 -66 7 -96c20 -77 74 -104 127 -104c116 0 148 120 148 199c0 103 -47 189 -148 189
c-129 0 -133 -144 -134 -188z" />
    <glyph glyph-name="threequarters" unicode="&#xbe;" horiz-adv-x="875" 
d="M257 496l7 -2c15 -5 70 -25 70 -103c0 -77 -56 -134 -149 -134c-51 0 -108 19 -137 74c-13 24 -15 43 -18 66l52 18c-1 -24 -3 -113 103 -113c57 0 98 27 98 85c0 29 -11 51 -24 63c-22 21 -50 22 -84 22h-65v44h57c36 0 109 0 109 75c0 45 -33 81 -90 81
c-49 0 -96 -30 -94 -97l-55 14c9 37 32 126 149 126c74 0 139 -40 139 -125c0 -74 -50 -89 -68 -94zM672 730l-352 -770l-41 19l352 771zM778 108v-108h-48v108h-192v38l191 296h49v-290h67v-44h-67zM595 152h135v206z" />
    <glyph glyph-name="twosuperior" unicode="&#xb2;" horiz-adv-x="375" 
d="M324 309v-44h-283v42c32 20 76 48 137 99c55 45 109 94 109 168c0 66 -46 98 -102 98c-69 0 -99 -51 -99 -92c0 -37 23 -64 37 -80l-66 8c-5 12 -17 40 -17 76c0 82 63 131 146 131c102 0 152 -65 152 -143c0 -106 -106 -189 -216 -263h202z" />
    <glyph glyph-name="registered" unicode="&#xae;" horiz-adv-x="833" 
d="M773 351c-1 -197 -156 -354 -358 -354c-185 0 -355 145 -355 356c0 205 164 356 356 356c206 0 358 -163 357 -358zM741 352c1 178 -138 325 -323 325c-184 0 -326 -146 -326 -324c0 -182 146 -324 324 -324c183 0 324 143 325 323zM273 577h137c52 0 77 0 104 -10
c45 -18 68 -59 68 -101c0 -62 -45 -98 -100 -107c48 -18 63 -44 72 -98c10 -65 13 -89 33 -129h-75c-10 20 -14 40 -18 61l-11 71c-13 66 -49 74 -113 75h-32v-207h-65v445zM339 527v-136h75c28 0 102 -1 102 70c0 20 -8 38 -21 49c-19 17 -41 17 -95 17h-61z" />
    <glyph glyph-name="minus" unicode="&#x2212;" horiz-adv-x="667" 
d="M667 321v-59h-667v59h667z" />
    <glyph glyph-name="eth" unicode="&#xf0;" 
d="M464 616l-82 -26c75 -116 95 -233 95 -327c0 -46 -5 -89 -18 -127c-10 -30 -56 -145 -200 -145c-151 0 -215 120 -215 244c0 150 85 256 215 256c56 0 100 -19 141 -72c-13 45 -24 88 -67 155l-159 -51l-15 37l151 49c-33 43 -57 66 -77 85l43 27c53 -58 57 -63 82 -97
l91 29zM413 237c0 27 2 204 -152 204c-42 0 -82 -17 -109 -49c-41 -48 -45 -119 -45 -158c0 -136 69 -191 151 -191c105 0 154 83 155 194z" />
    <glyph glyph-name="multiply" unicode="&#xd7;" horiz-adv-x="667" 
d="M582 83l-41 -41l-208 207l-207 -207l-42 41l207 208l-207 206l42 42l207 -207l208 207l41 -42l-207 -206z" />
    <glyph glyph-name="threesuperior" unicode="&#xb3;" horiz-adv-x="375" 
d="M257 496l7 -2c15 -5 70 -25 70 -103c0 -77 -56 -134 -149 -134c-51 0 -108 19 -137 74c-13 24 -15 43 -18 66l52 18c-1 -24 -3 -113 103 -113c57 0 98 27 98 85c0 29 -11 51 -24 63c-22 21 -50 22 -84 22h-65v44h57c36 0 109 0 109 75c0 45 -33 81 -90 81
c-49 0 -96 -30 -94 -97l-55 14c9 37 32 126 149 126c74 0 139 -40 139 -125c0 -74 -50 -89 -68 -94z" />
    <glyph glyph-name="copyright" unicode="&#xa9;" horiz-adv-x="833" 
d="M773 351c0 -71 -23 -141 -57 -195c-57 -89 -167 -159 -300 -159c-185 0 -355 145 -355 355c0 201 158 357 357 357c198 0 355 -154 355 -358zM741 351c1 175 -134 326 -323 326c-180 0 -325 -143 -325 -326c0 -175 140 -322 325 -322c170 0 321 131 323 322zM568 253
l42 -36c-12 -15 -31 -40 -68 -61c-27 -16 -67 -33 -120 -33c-118 0 -229 88 -229 231c0 127 97 232 232 232c108 0 165 -69 185 -93l-42 -38c-24 27 -66 75 -142 75c-97 0 -175 -75 -175 -174c0 -108 84 -177 175 -177c79 0 123 52 142 74z" />
    <glyph glyph-name="Aacute" unicode="&#xc1;" horiz-adv-x="646" 
d="M354 706l281 -706h-73l-81 213h-316l-80 -213h-75l288 706h56zM187 267h274l-136 360zM377 895h106l-147 -125h-57z" />
    <glyph glyph-name="Acircumflex" unicode="&#xc2;" horiz-adv-x="646" 
d="M354 706l281 -706h-73l-81 213h-316l-80 -213h-75l288 706h56zM187 267h274l-136 360zM347 895l104 -123h-49l-78 56l-77 -56h-47l105 123h42z" />
    <glyph glyph-name="Adieresis" unicode="&#xc4;" horiz-adv-x="646" 
d="M354 706l281 -706h-73l-81 213h-316l-80 -213h-75l288 706h56zM187 267h274l-136 360zM470 881v-96h-67v96h67zM251 881v-96h-67v96h67z" />
    <glyph glyph-name="Agrave" unicode="&#xc0;" horiz-adv-x="646" 
d="M354 706l281 -706h-73l-81 213h-316l-80 -213h-75l288 706h56zM187 267h274l-136 360zM307 770l-147 125h106l99 -125h-58z" />
    <glyph glyph-name="Aring" unicode="&#xc5;" horiz-adv-x="646" 
d="M354 706l281 -706h-73l-81 213h-316l-80 -213h-75l288 706h56zM187 267h274l-136 360zM327 907c44 0 80 -35 80 -79s-36 -80 -80 -80s-79 36 -79 80s36 79 79 79zM326 871c-23 0 -42 -19 -42 -42c0 -24 19 -42 42 -42s42 19 42 42s-18 42 -42 42z" />
    <glyph glyph-name="Atilde" unicode="&#xc3;" horiz-adv-x="646" 
d="M354 706l281 -706h-73l-81 213h-316l-80 -213h-75l288 706h56zM187 267h274l-136 360zM452 886l41 -18v-5c-18 -37 -43 -89 -95 -89c-26 0 -59 16 -83 29c-21 11 -50 26 -64 26c-28 0 -44 -29 -53 -55l-40 13c16 47 46 103 100 103c24 0 49 -13 65 -22
c55 -30 61 -34 74 -34c27 0 41 24 55 52z" />
    <glyph glyph-name="Ccedilla" unicode="&#xc7;" horiz-adv-x="667" 
d="M557 192l63 -38c-71 -156 -183 -170 -257 -172l-15 -29c10 2 17 3 28 3c41 0 70 -25 70 -64c0 -51 -46 -82 -101 -82c-6 0 -13 1 -38 3v27c13 -1 21 -2 33 -2c54 0 55 36 55 39c0 21 -19 38 -49 38c-16 0 -28 -6 -39 -10v24l31 54c-23 1 -69 5 -115 25
c-160 71 -173 266 -173 340c0 150 54 376 301 376c190 0 243 -114 273 -183l-67 -35c-12 58 -45 102 -75 123c-46 35 -103 36 -127 36c-76 0 -130 -22 -174 -83c-49 -67 -61 -148 -61 -224c0 -48 6 -162 59 -233c55 -74 136 -83 187 -83c33 0 73 5 111 30
c24 17 64 58 80 120z" />
    <glyph glyph-name="Eacute" unicode="&#xc9;" horiz-adv-x="604" 
d="M567 62v-62h-486v706h461v-62h-394v-251h357v-62h-357v-269h419zM377 895h106l-147 -125h-57z" />
    <glyph glyph-name="Ecircumflex" unicode="&#xca;" horiz-adv-x="604" 
d="M567 62v-62h-486v706h461v-62h-394v-251h357v-62h-357v-269h419zM326 895l104 -123h-49l-78 56l-77 -56h-47l105 123h42z" />
    <glyph glyph-name="Edieresis" unicode="&#xcb;" horiz-adv-x="604" 
d="M567 62v-62h-486v706h461v-62h-394v-251h357v-62h-357v-269h419zM446 881v-96h-67v96h67zM227 881v-96h-67v96h67z" />
    <glyph glyph-name="Egrave" unicode="&#xc8;" horiz-adv-x="604" 
d="M567 62v-62h-486v706h461v-62h-394v-251h357v-62h-357v-269h419zM286 770l-147 125h106l99 -125h-58z" />
    <glyph glyph-name="Iacute" unicode="&#xcd;" horiz-adv-x="229" 
d="M148 706v-706h-67v706h67zM169 895h106l-147 -125h-57z" />
    <glyph glyph-name="Icircumflex" unicode="&#xce;" horiz-adv-x="229" 
d="M148 706v-706h-67v706h67zM139 895l104 -123h-49l-78 56l-77 -56h-47l105 123h42z" />
    <glyph glyph-name="Idieresis" unicode="&#xcf;" horiz-adv-x="229" 
d="M148 706v-706h-67v706h67zM259 881v-96h-67v96h67zM40 881v-96h-67v96h67z" />
    <glyph glyph-name="Igrave" unicode="&#xcc;" horiz-adv-x="229" 
d="M148 706v-706h-67v706h67zM99 770l-147 125h106l99 -125h-58z" />
    <glyph glyph-name="Ntilde" unicode="&#xd1;" horiz-adv-x="708" 
d="M627 706v-706h-66l-415 610v-610h-65v706h65l421 -604l-6 604h66zM483 886l41 -18v-5c-18 -37 -43 -89 -95 -89c-26 0 -59 16 -83 29c-21 11 -50 26 -64 26c-28 0 -44 -29 -53 -55l-40 13c16 47 46 103 100 103c24 0 49 -13 65 -22c55 -30 61 -34 74 -34
c27 0 41 24 55 52z" />
    <glyph glyph-name="Oacute" unicode="&#xd3;" horiz-adv-x="708" 
d="M658 358c-1 -108 -33 -217 -90 -284c-69 -81 -154 -92 -212 -92c-87 0 -159 27 -217 96c-50 58 -89 151 -89 276c0 195 96 370 306 370c234 0 303 -206 302 -366zM586 357c1 128 -51 309 -230 309c-180 0 -235 -178 -235 -313c0 -131 52 -311 232 -311
c218 0 233 258 233 315zM408 895h106l-147 -125h-57z" />
    <glyph glyph-name="Ocircumflex" unicode="&#xd4;" horiz-adv-x="708" 
d="M658 358c-1 -108 -33 -217 -90 -284c-69 -81 -154 -92 -212 -92c-87 0 -159 27 -217 96c-50 58 -89 151 -89 276c0 195 96 370 306 370c234 0 303 -206 302 -366zM586 357c1 128 -51 309 -230 309c-180 0 -235 -178 -235 -313c0 -131 52 -311 232 -311
c218 0 233 258 233 315zM378 895l104 -123h-49l-78 56l-77 -56h-47l105 123h42z" />
    <glyph glyph-name="Odieresis" unicode="&#xd6;" horiz-adv-x="708" 
d="M658 358c-1 -108 -33 -217 -90 -284c-69 -81 -154 -92 -212 -92c-87 0 -159 27 -217 96c-50 58 -89 151 -89 276c0 195 96 370 306 370c234 0 303 -206 302 -366zM586 357c1 128 -51 309 -230 309c-180 0 -235 -178 -235 -313c0 -131 52 -311 232 -311
c218 0 233 258 233 315zM499 881v-96h-67v96h67zM280 881v-96h-67v96h67z" />
    <glyph glyph-name="Ograve" unicode="&#xd2;" horiz-adv-x="708" 
d="M658 358c-1 -108 -33 -217 -90 -284c-69 -81 -154 -92 -212 -92c-87 0 -159 27 -217 96c-50 58 -89 151 -89 276c0 195 96 370 306 370c234 0 303 -206 302 -366zM586 357c1 128 -51 309 -230 309c-180 0 -235 -178 -235 -313c0 -131 52 -311 232 -311
c218 0 233 258 233 315zM338 770l-147 125h106l99 -125h-58z" />
    <glyph glyph-name="Otilde" unicode="&#xd5;" horiz-adv-x="708" 
d="M658 358c-1 -108 -33 -217 -90 -284c-69 -81 -154 -92 -212 -92c-87 0 -159 27 -217 96c-50 58 -89 151 -89 276c0 195 96 370 306 370c234 0 303 -206 302 -366zM586 357c1 128 -51 309 -230 309c-180 0 -235 -178 -235 -313c0 -131 52 -311 232 -311
c218 0 233 258 233 315zM483 886l41 -18v-5c-18 -37 -43 -89 -95 -89c-26 0 -59 16 -83 29c-21 11 -50 26 -64 26c-28 0 -44 -29 -53 -55l-40 13c16 47 46 103 100 103c24 0 49 -13 65 -22c55 -30 61 -34 74 -34c27 0 41 24 55 52z" />
    <glyph glyph-name="Scaron" unicode="&#x160;" horiz-adv-x="604" 
d="M561 569l-62 -34c-6 18 -14 42 -30 63c-35 49 -92 71 -153 71c-76 0 -166 -32 -166 -126c0 -86 79 -111 119 -123c20 -6 121 -32 143 -40c38 -12 163 -53 163 -187c0 -99 -83 -211 -264 -211c-75 0 -129 19 -166 43c-54 36 -84 88 -96 153l67 35c1 -28 4 -57 17 -82
c32 -66 105 -91 178 -91c136 0 196 75 196 150c0 51 -24 80 -43 95c-32 27 -73 37 -166 61c-100 26 -213 63 -213 194c0 139 123 184 233 184c181 0 227 -116 243 -155zM281 772l-104 123h49l78 -56l77 56h47l-105 -123h-42z" />
    <glyph glyph-name="Uacute" unicode="&#xda;" horiz-adv-x="688" 
d="M80 706h66v-420c0 -77 0 -131 34 -175c23 -32 76 -67 164 -67c25 0 59 2 92 15c54 21 82 55 97 117c6 24 7 66 7 92v438h67v-321c0 -196 0 -263 -60 -328c-51 -55 -127 -75 -201 -75c-119 0 -216 51 -250 153c-16 51 -16 90 -16 244v327zM398 895h106l-147 -125h-57z" />
    <glyph glyph-name="Ucircumflex" unicode="&#xdb;" horiz-adv-x="688" 
d="M80 706h66v-420c0 -77 0 -131 34 -175c23 -32 76 -67 164 -67c25 0 59 2 92 15c54 21 82 55 97 117c6 24 7 66 7 92v438h67v-321c0 -196 0 -263 -60 -328c-51 -55 -127 -75 -201 -75c-119 0 -216 51 -250 153c-16 51 -16 90 -16 244v327zM368 895l104 -123h-49l-78 56
l-77 -56h-47l105 123h42z" />
    <glyph glyph-name="Udieresis" unicode="&#xdc;" horiz-adv-x="688" 
d="M80 706h66v-420c0 -77 0 -131 34 -175c23 -32 76 -67 164 -67c25 0 59 2 92 15c54 21 82 55 97 117c6 24 7 66 7 92v438h67v-321c0 -196 0 -263 -60 -328c-51 -55 -127 -75 -201 -75c-119 0 -216 51 -250 153c-16 51 -16 90 -16 244v327zM488 881v-96h-67v96h67zM269 881
v-96h-67v96h67z" />
    <glyph glyph-name="Ugrave" unicode="&#xd9;" horiz-adv-x="688" 
d="M80 706h66v-420c0 -77 0 -131 34 -175c23 -32 76 -67 164 -67c25 0 59 2 92 15c54 21 82 55 97 117c6 24 7 66 7 92v438h67v-321c0 -196 0 -263 -60 -328c-51 -55 -127 -75 -201 -75c-119 0 -216 51 -250 153c-16 51 -16 90 -16 244v327zM328 770l-147 125h106l99 -125
h-58z" />
    <glyph glyph-name="Yacute" unicode="&#xdd;" horiz-adv-x="625" 
d="M338 292v-292h-65v292l-263 414h78l218 -351l227 351h81zM366 895h106l-147 -125h-57z" />
    <glyph glyph-name="Ydieresis" unicode="&#x178;" horiz-adv-x="625" 
d="M338 292v-292h-65v292l-263 414h78l218 -351l227 351h81zM456 881v-96h-67v96h67zM237 881v-96h-67v96h67z" />
    <glyph glyph-name="Zcaron" unicode="&#x17d;" horiz-adv-x="583" 
d="M548 60v-60h-519v44l436 601h-410v61h499v-47l-430 -599h424zM271 772l-104 123h49l78 -56l77 56h47l-105 -123h-42z" />
    <glyph glyph-name="aacute" unicode="&#xe1;" horiz-adv-x="500" 
d="M493 47v-47c-72 0 -123 6 -128 79v9l-4 -10c-28 -58 -97 -88 -166 -88c-118 0 -150 80 -150 130c0 110 113 136 263 171l57 13v24c0 34 0 110 -116 110c-117 0 -124 -66 -125 -116l-65 11c4 24 9 54 28 82c34 54 95 74 160 74c58 0 146 -15 168 -93c6 -23 6 -45 6 -92
v-154c0 -84 1 -104 72 -103zM365 217v35l-30 -7l-118 -32c-54 -15 -114 -33 -114 -92c0 -38 28 -79 95 -79c45 0 96 21 127 52c37 37 39 75 40 123zM432 698l-170 -140h-53l112 140h111z" />
    <glyph glyph-name="acircumflex" unicode="&#xe2;" horiz-adv-x="500" 
d="M493 47v-47c-72 0 -123 6 -128 79v9l-4 -10c-28 -58 -97 -88 -166 -88c-118 0 -150 80 -150 130c0 110 113 136 263 171l57 13v24c0 34 0 110 -116 110c-117 0 -124 -66 -125 -116l-65 11c4 24 9 54 28 82c34 54 95 74 160 74c58 0 146 -15 168 -93c6 -23 6 -45 6 -92
v-154c0 -84 1 -104 72 -103zM365 217v35l-30 -7l-118 -32c-54 -15 -114 -33 -114 -92c0 -38 28 -79 95 -79c45 0 96 21 127 52c37 37 39 75 40 123zM265 696l135 -138h-52l-98 65l-89 -65h-50l128 138h26z" />
    <glyph glyph-name="adieresis" unicode="&#xe4;" horiz-adv-x="500" 
d="M493 47v-47c-72 0 -123 6 -128 79v9l-4 -10c-28 -58 -97 -88 -166 -88c-118 0 -150 80 -150 130c0 110 113 136 263 171l57 13v24c0 34 0 110 -116 110c-117 0 -124 -66 -125 -116l-65 11c4 24 9 54 28 82c34 54 95 74 160 74c58 0 146 -15 168 -93c6 -23 6 -45 6 -92
v-154c0 -84 1 -104 72 -103zM365 217v35l-30 -7l-118 -32c-54 -15 -114 -33 -114 -92c0 -38 28 -79 95 -79c45 0 96 21 127 52c37 37 39 75 40 123zM355 674v-92h-61v92h61zM183 674v-92h-61v92h61z" />
    <glyph glyph-name="agrave" unicode="&#xe0;" horiz-adv-x="500" 
d="M493 47v-47c-72 0 -123 6 -128 79v9l-4 -10c-28 -58 -97 -88 -166 -88c-118 0 -150 80 -150 130c0 110 113 136 263 171l57 13v24c0 34 0 110 -116 110c-117 0 -124 -66 -125 -116l-65 11c4 24 9 54 28 82c34 54 95 74 160 74c58 0 146 -15 168 -93c6 -23 6 -45 6 -92
v-154c0 -84 1 -104 72 -103zM365 217v35l-30 -7l-118 -32c-54 -15 -114 -33 -114 -92c0 -38 28 -79 95 -79c45 0 96 21 127 52c37 37 39 75 40 123zM329 558h-53l-170 140h111z" />
    <glyph glyph-name="aring" unicode="&#xe5;" horiz-adv-x="500" 
d="M493 47v-47c-72 0 -123 6 -128 79v9l-4 -10c-28 -58 -97 -88 -166 -88c-118 0 -150 80 -150 130c0 110 113 136 263 171l57 13v24c0 34 0 110 -116 110c-117 0 -124 -66 -125 -116l-65 11c4 24 9 54 28 82c34 54 95 74 160 74c58 0 146 -15 168 -93c6 -23 6 -45 6 -92
v-154c0 -84 1 -104 72 -103zM365 217v35l-30 -7l-118 -32c-54 -15 -114 -33 -114 -92c0 -38 28 -79 95 -79c45 0 96 21 127 52c37 37 39 75 40 123zM161 631c0 44 35 79 79 79s79 -35 79 -79s-35 -79 -79 -79s-79 35 -79 79zM197 631c0 -23 19 -42 42 -42s42 19 42 42
s-19 42 -42 42s-42 -19 -42 -42z" />
    <glyph glyph-name="atilde" unicode="&#xe3;" horiz-adv-x="500" 
d="M493 47v-47c-72 0 -123 6 -128 79v9l-4 -10c-28 -58 -97 -88 -166 -88c-118 0 -150 80 -150 130c0 110 113 136 263 171l57 13v24c0 34 0 110 -116 110c-117 0 -124 -66 -125 -116l-65 11c4 24 9 54 28 82c34 54 95 74 160 74c58 0 146 -15 168 -93c6 -23 6 -45 6 -92
v-154c0 -84 1 -104 72 -103zM365 217v35l-30 -7l-118 -32c-54 -15 -114 -33 -114 -92c0 -38 28 -79 95 -79c45 0 96 21 127 52c37 37 39 75 40 123zM365 675l41 -10c-19 -40 -42 -90 -95 -90c-24 0 -49 13 -78 28c-30 15 -40 20 -52 20c-25 0 -36 -23 -45 -42l-42 9
c10 25 35 87 94 87c27 0 52 -13 74 -25s40 -20 55 -20c29 0 41 26 48 43z" />
    <glyph glyph-name="ccedilla" unicode="&#xe7;" horiz-adv-x="479" 
d="M394 119l61 -13c-30 -61 -77 -114 -182 -119l-18 -34c10 2 17 3 28 3c41 0 70 -25 70 -64c0 -51 -46 -82 -101 -82c-6 0 -14 1 -38 3v27c12 -1 21 -2 32 -2c55 0 56 36 56 39c0 21 -19 38 -50 38c-16 0 -28 -6 -38 -10v24l34 59c-23 2 -49 4 -82 19
c-65 31 -122 107 -122 228c0 159 98 253 229 253c134 0 173 -95 182 -120l-55 -13c-26 62 -86 80 -130 80c-91 0 -162 -71 -162 -198c0 -73 27 -198 158 -198c49 0 98 19 128 80z" />
    <glyph glyph-name="eacute" unicode="&#xe9;" 
d="M424 141l55 -15c-7 -17 -20 -44 -45 -72c-14 -15 -60 -66 -163 -66c-158 0 -227 121 -227 254c0 158 104 246 220 246c144 0 219 -126 215 -250h-370c-1 -25 1 -62 15 -99c38 -98 127 -98 147 -98c52 0 112 18 153 100zM110 286h302c-5 42 -18 83 -50 113
c-20 18 -52 36 -99 36c-82 0 -142 -58 -153 -149zM441 698l-170 -140h-53l112 140h111z" />
    <glyph glyph-name="ecircumflex" unicode="&#xea;" 
d="M424 141l55 -15c-7 -17 -20 -44 -45 -72c-14 -15 -60 -66 -163 -66c-158 0 -227 121 -227 254c0 158 104 246 220 246c144 0 219 -126 215 -250h-370c-1 -25 1 -62 15 -99c38 -98 127 -98 147 -98c52 0 112 18 153 100zM110 286h302c-5 42 -18 83 -50 113
c-20 18 -52 36 -99 36c-82 0 -142 -58 -153 -149zM274 696l135 -138h-52l-98 65l-89 -65h-50l128 138h26z" />
    <glyph glyph-name="edieresis" unicode="&#xeb;" 
d="M424 141l55 -15c-7 -17 -20 -44 -45 -72c-14 -15 -60 -66 -163 -66c-158 0 -227 121 -227 254c0 158 104 246 220 246c144 0 219 -126 215 -250h-370c-1 -25 1 -62 15 -99c38 -98 127 -98 147 -98c52 0 112 18 153 100zM110 286h302c-5 42 -18 83 -50 113
c-20 18 -52 36 -99 36c-82 0 -142 -58 -153 -149zM377 674v-92h-61v92h61zM205 674v-92h-61v92h61z" />
    <glyph glyph-name="egrave" unicode="&#xe8;" 
d="M424 141l55 -15c-7 -17 -20 -44 -45 -72c-14 -15 -60 -66 -163 -66c-158 0 -227 121 -227 254c0 158 104 246 220 246c144 0 219 -126 215 -250h-370c-1 -25 1 -62 15 -99c38 -98 127 -98 147 -98c52 0 112 18 153 100zM110 286h302c-5 42 -18 83 -50 113
c-20 18 -52 36 -99 36c-82 0 -142 -58 -153 -149zM302 558h-53l-170 140h111z" />
    <glyph glyph-name="iacute" unicode="&#xed;" horiz-adv-x="208" 
d="M133 477v-477h-58v477h58zM285 698l-170 -140h-53l112 140h111z" />
    <glyph glyph-name="icircumflex" unicode="&#xee;" horiz-adv-x="208" 
d="M133 477v-477h-58v477h58zM118 696l135 -138h-52l-98 65l-89 -65h-50l128 138h26z" />
    <glyph glyph-name="idieresis" unicode="&#xef;" horiz-adv-x="208" 
d="M133 477v-477h-58v477h58zM221 674v-92h-61v92h61zM49 674v-92h-61v92h61z" />
    <glyph glyph-name="igrave" unicode="&#xec;" horiz-adv-x="208" 
d="M133 477v-477h-58v477h58zM146 558h-53l-170 140h111z" />
    <glyph glyph-name="ntilde" unicode="&#xf1;" 
d="M445 247v-247h-59v247c0 93 0 120 -18 146c-12 17 -40 41 -93 41c-54 0 -86 -21 -111 -54c-30 -40 -30 -71 -30 -171v-209h-59v476h59v-85c16 48 64 96 149 96c26 0 89 -3 130 -57c31 -41 32 -80 32 -183zM374 675l41 -10c-19 -40 -42 -90 -95 -90c-24 0 -49 13 -78 28
c-30 15 -40 20 -52 20c-25 0 -36 -23 -45 -42l-42 9c10 25 35 87 94 87c27 0 52 -13 74 -25s40 -20 55 -20c29 0 41 26 48 43z" />
    <glyph glyph-name="oacute" unicode="&#xf3;" 
d="M477 241c1 -145 -83 -253 -218 -253c-139 0 -215 110 -215 244c0 124 63 256 217 256c151 0 215 -124 216 -247zM414 234c0 27 2 204 -152 204c-42 0 -83 -17 -110 -49c-41 -48 -45 -119 -45 -158c0 -136 70 -191 152 -191c105 0 154 83 155 194zM441 698l-170 -140h-53
l112 140h111z" />
    <glyph glyph-name="ocircumflex" unicode="&#xf4;" 
d="M477 241c1 -145 -83 -253 -218 -253c-139 0 -215 110 -215 244c0 124 63 256 217 256c151 0 215 -124 216 -247zM414 234c0 27 2 204 -152 204c-42 0 -83 -17 -110 -49c-41 -48 -45 -119 -45 -158c0 -136 70 -191 152 -191c105 0 154 83 155 194zM274 696l135 -138h-52
l-98 65l-89 -65h-50l128 138h26z" />
    <glyph glyph-name="odieresis" unicode="&#xf6;" 
d="M477 241c1 -145 -83 -253 -218 -253c-139 0 -215 110 -215 244c0 124 63 256 217 256c151 0 215 -124 216 -247zM414 234c0 27 2 204 -152 204c-42 0 -83 -17 -110 -49c-41 -48 -45 -119 -45 -158c0 -136 70 -191 152 -191c105 0 154 83 155 194zM377 674v-92h-61v92h61z
M205 674v-92h-61v92h61z" />
    <glyph glyph-name="ograve" unicode="&#xf2;" 
d="M477 241c1 -145 -83 -253 -218 -253c-139 0 -215 110 -215 244c0 124 63 256 217 256c151 0 215 -124 216 -247zM414 234c0 27 2 204 -152 204c-42 0 -83 -17 -110 -49c-41 -48 -45 -119 -45 -158c0 -136 70 -191 152 -191c105 0 154 83 155 194zM302 558h-53l-170 140
h111z" />
    <glyph glyph-name="otilde" unicode="&#xf5;" 
d="M477 241c1 -145 -83 -253 -218 -253c-139 0 -215 110 -215 244c0 124 63 256 217 256c151 0 215 -124 216 -247zM414 234c0 27 2 204 -152 204c-42 0 -83 -17 -110 -49c-41 -48 -45 -119 -45 -158c0 -136 70 -191 152 -191c105 0 154 83 155 194zM374 675l41 -10
c-19 -40 -42 -90 -95 -90c-24 0 -49 13 -78 28c-30 15 -40 20 -52 20c-25 0 -36 -23 -45 -42l-42 9c10 25 35 87 94 87c27 0 52 -13 74 -25s40 -20 55 -20c29 0 41 26 48 43z" />
    <glyph glyph-name="scaron" unicode="&#x161;" horiz-adv-x="458" 
d="M222 280l50 -11c31 -8 71 -18 101 -51c21 -23 32 -53 32 -84c0 -70 -55 -146 -179 -146c-61 0 -100 20 -120 34c-34 23 -55 53 -72 94l58 20c11 -43 52 -95 134 -95s121 44 121 94c0 62 -63 77 -102 85l-57 12c-44 10 -124 30 -124 123c0 49 28 133 171 133
c47 0 85 -11 111 -27c43 -26 55 -66 59 -81l-57 -14c-3 13 -9 36 -41 54c-20 12 -47 17 -75 17c-36 0 -110 -9 -110 -80c0 -52 47 -65 100 -77zM218 558l-134 138h51l98 -65l90 65h49l-127 -138h-27z" />
    <glyph glyph-name="uacute" unicode="&#xfa;" 
d="M445 477v-477h-59v86c-4 -10 -11 -26 -24 -43c-37 -46 -89 -54 -127 -54c-92 0 -131 58 -143 88c-16 37 -17 86 -17 166v234h59v-247c1 -104 1 -187 108 -187c27 0 67 4 101 40c42 44 43 95 43 184v210h59zM441 698l-170 -140h-53l112 140h111z" />
    <glyph glyph-name="ucircumflex" unicode="&#xfb;" 
d="M445 477v-477h-59v86c-4 -10 -11 -26 -24 -43c-37 -46 -89 -54 -127 -54c-92 0 -131 58 -143 88c-16 37 -17 86 -17 166v234h59v-247c1 -104 1 -187 108 -187c27 0 67 4 101 40c42 44 43 95 43 184v210h59zM274 696l135 -138h-52l-98 65l-89 -65h-50l128 138h26z" />
    <glyph glyph-name="udieresis" unicode="&#xfc;" 
d="M445 477v-477h-59v86c-4 -10 -11 -26 -24 -43c-37 -46 -89 -54 -127 -54c-92 0 -131 58 -143 88c-16 37 -17 86 -17 166v234h59v-247c1 -104 1 -187 108 -187c27 0 67 4 101 40c42 44 43 95 43 184v210h59zM377 674v-92h-61v92h61zM205 674v-92h-61v92h61z" />
    <glyph glyph-name="ugrave" unicode="&#xf9;" 
d="M445 477v-477h-59v86c-4 -10 -11 -26 -24 -43c-37 -46 -89 -54 -127 -54c-92 0 -131 58 -143 88c-16 37 -17 86 -17 166v234h59v-247c1 -104 1 -187 108 -187c27 0 67 4 101 40c42 44 43 95 43 184v210h59zM302 558h-53l-170 140h111z" />
    <glyph glyph-name="yacute" unicode="&#xfd;" horiz-adv-x="437" 
d="M367 477h60l-215 -546c-36 -89 -40 -99 -50 -118c-22 -37 -46 -54 -88 -54c-33 0 -54 12 -64 19v60c28 -20 50 -24 62 -24c29 0 42 15 59 57l25 60l25 69l-165 477h57l139 -406zM400 698l-170 -140h-53l112 140h111z" />
    <glyph glyph-name="ydieresis" unicode="&#xff;" horiz-adv-x="437" 
d="M367 477h60l-215 -546c-36 -89 -40 -99 -50 -118c-22 -37 -46 -54 -88 -54c-33 0 -54 12 -64 19v60c28 -20 50 -24 62 -24c29 0 42 15 59 57l25 60l25 69l-165 477h57l139 -406zM164 674v-92h-61v92h61zM336 674v-92h-61v92h61z" />
    <glyph glyph-name="zcaron" unicode="&#x17e;" horiz-adv-x="396" 
d="M376 53v-53h-348v37l258 389h-236v51h319v-35l-258 -389h265zM187 558l-134 138h51l98 -65l90 65h49l-127 -138h-27z" />
    <glyph glyph-name="Euro" unicode="&#x20ac;" horiz-adv-x="583" 
d="M537 666v-69c-34 34 -89 63 -166 63c-128 0 -191 -98 -205 -212h323l-19 -52h-311c-1 -11 -1 -27 -1 -40c0 -16 0 -31 1 -41h282l-19 -53h-256c18 -134 89 -214 206 -214c76 0 128 27 165 63v-70c-28 -26 -89 -53 -172 -53c-145 0 -238 90 -263 274h-73l19 53h49
c-1 9 -1 28 -1 41c0 14 0 29 1 40h-68l19 52h54c20 151 97 272 263 272c80 0 142 -27 172 -54z" />
    <glyph glyph-name="gbreve" unicode="&#x11f;" horiz-adv-x="542" 
d="M466 477v-426c0 -123 0 -190 -48 -239c-30 -32 -88 -56 -165 -56c-32 0 -93 4 -142 42c-51 39 -60 90 -63 128l61 12c8 -51 22 -130 151 -130c90 0 131 37 143 105c4 25 5 124 6 155v24c-5 -17 -9 -31 -28 -51c-35 -38 -85 -51 -130 -51c-137 0 -207 114 -207 252
c0 160 90 246 208 246c84 0 141 -47 157 -99v88h57zM407 234c0 73 -8 203 -147 203c-43 0 -84 -16 -112 -48c-22 -26 -44 -72 -44 -146c0 -68 17 -122 44 -154c35 -42 81 -46 108 -46c146 0 150 136 151 191zM130 685h45c7 -42 47 -64 92 -64c33 0 92 13 101 64h43
c-5 -52 -55 -121 -147 -121c-76 0 -128 55 -134 121z" />
    <glyph glyph-name="Gbreve" unicode="&#x11e;" horiz-adv-x="708" 
d="M622 369v-369h-58v118c-8 -21 -30 -76 -96 -110c-33 -17 -74 -26 -118 -26c-195 0 -300 160 -300 365c0 218 112 377 316 377c181 0 237 -121 261 -179l-63 -34c-7 30 -42 156 -193 156c-145 0 -250 -117 -250 -316c0 -180 80 -310 233 -310c169 0 213 156 210 267h-260
v61h318zM213 914h45c7 -42 47 -64 92 -64c33 0 92 13 101 64h43c-5 -52 -55 -121 -147 -121c-76 0 -128 55 -134 121z" />
    <glyph glyph-name="Idotaccent" unicode="&#x130;" horiz-adv-x="229" 
d="M148 706v-706h-67v706h67zM145 903v-92h-61v92h61z" />
    <glyph glyph-name="Scedilla" unicode="&#x15e;" horiz-adv-x="604" 
d="M561 569l-62 -34c-6 18 -14 42 -30 63c-35 49 -92 71 -153 71c-76 0 -166 -32 -166 -126c0 -86 79 -111 119 -123c20 -6 121 -32 143 -40c38 -12 163 -53 163 -187c0 -99 -83 -211 -264 -211c-8 0 -16 0 -23 1l-15 -30c10 2 17 3 28 3c41 0 70 -25 70 -64
c0 -51 -46 -82 -101 -82c-6 0 -13 1 -38 3v27c12 -1 21 -2 32 -2c55 0 56 36 56 39c0 21 -19 38 -49 38c-17 0 -29 -6 -39 -10v24l32 56c-51 6 -90 21 -119 40c-54 36 -84 88 -96 153l67 35c1 -28 4 -57 17 -82c32 -66 105 -91 178 -91c136 0 196 75 196 150
c0 51 -24 80 -43 95c-32 27 -73 37 -166 61c-100 26 -213 63 -213 194c0 139 123 184 233 184c181 0 227 -116 243 -155z" />
    <glyph glyph-name="scedilla" unicode="&#x15f;" horiz-adv-x="458" 
d="M222 280l50 -11c31 -8 71 -18 101 -51c21 -23 32 -53 32 -84c0 -70 -55 -146 -179 -146h-8l-18 -35c10 2 17 3 28 3c41 0 70 -25 70 -64c0 -51 -46 -82 -101 -82c-6 0 -13 1 -38 3v27c12 -1 21 -2 32 -2c55 0 56 36 56 39c0 21 -19 38 -49 38c-17 0 -29 -6 -39 -10v24
l35 61c-43 5 -72 20 -88 32c-34 23 -55 53 -72 94l58 20c11 -43 52 -95 134 -95s121 44 121 94c0 62 -63 77 -102 85l-57 12c-44 10 -124 30 -124 123c0 49 28 133 171 133c47 0 85 -11 111 -27c43 -26 55 -66 59 -81l-57 -14c-3 13 -9 36 -41 54c-20 12 -47 17 -75 17
c-36 0 -110 -9 -110 -80c0 -52 47 -65 100 -77z" />
    </font>
</defs>
</svg>
