<?xml version="1.0" standalone="no"?>
<!DOCTYPE svg PUBLIC "-//W3C//DTD SVG 1.1//EN" "http://www.w3.org/Graphics/SVG/1.1/DTD/svg11.dtd" >
<svg xmlns="http://www.w3.org/2000/svg">
<metadata>Generated by IcoMoon</metadata>
<defs>
<font id="icomoon" horiz-adv-x="1024">
<font-face units-per-em="1024" ascent="960" descent="-64" />
<missing-glyph horiz-adv-x="1024" />
<glyph unicode="&#x20;" horiz-adv-x="512" d="" />
<glyph unicode="&#xe900;" glyph-name="linkedin" d="M974.72 343.136c-0.768 39.536-6.512 80.224-17.504 118.016-26.56 91.52-86.768 147.040-178.624 159.824-87.024 12.144-161.888-11.136-214.624-89.952-1.824-2.72-4.112-5.056-9.28-11.392v87.664h-202.688v-639.248h202.72v24.080l0.128 345.52c0 40.528 16.976 72.672 47.232 96.64 60.512 47.984 142.224 19.392 161.408-56.96 5.488-22.128 7.648-45.696 7.84-68.64 0.784-106.384 0.384-212.8 0.384-319.248v-21.44h203.136c0.352 4.672 0.768 7.776 0.768 10.832-0.048 121.456 1.344 242.928-0.896 364.304zM192.128 927.776c-63.36 3.52-115.584-33.088-125.808-88.128-13.984-75.696 36.768-135.264 115.536-135.648 58.736-0.256 103.584 30.064 117.44 79.36 20.656 73.392-28.784 140-107.168 144.4zM64-32h240v592h-240v-592z" />
<glyph unicode="&#xe901;" glyph-name="instagram" d="M991.248 628.704c1.088-123.792 0.784-247.584 0.384-371.376-0.416-140.688-89.12-253.312-223.040-282.48-21.824-4.752-44.688-6.080-67.104-6.384-60.608-0.848-121.264-0.272-181.856-0.272v1.408c-71.152 0-142.4-2.72-213.392 0.576-130.224 6.112-245.248 117.072-254.976 247.28-5.168 69.312-2.56 139.2-2.912 208.848-0.384 67.648-0.432 135.312-0.080 202.992 0.704 136.784 93.696 250.272 227.488 277.344 15.111 3.114 32.478 4.896 50.261 4.896 0.155 0 0.311 0 0.466 0h-0.024c129.248 0.384 258.512 0.8 387.76 0 124.672-0.816 233.568-84.24 266.336-204.304 6.56-23.491 10.446-50.504 10.687-78.387l0.001-0.141zM522.080 688c-135.056 1.568-248.48-108.384-250.080-242.32-1.664-139.168 107.376-252 245.136-253.664 135.664-1.664 249.328 108.64 250.832 243.376 1.536 139.12-107.36 250.976-245.92 252.592zM520.192 288c-83.68-0.432-151.68 67.344-152.192 151.696-0.512 82.544 67.792 151.712 150.368 152.304 84.208 0.56 152.592-66.352 153.616-150.4 1.072-84.48-66.8-153.168-151.792-153.6zM759.584 736c-31.12-0.032-55.552-24.576-55.584-55.744-0.032-31.12 24.352-55.952 55.296-56.256 30.976-0.32 57.072 25.808 56.704 56.752-0.423 30.603-25.331 55.25-55.995 55.25-0.148 0-0.296-0.001-0.444-0.002h0.023z" />
<glyph unicode="&#xe902;" glyph-name="profile" d="M988.384 24.736c-38.752 211.264-212.544 368.32-430.624 389.024-225.008 21.36-434.352-112.256-505.248-323.072-8.336-24.832-13.744-50.608-20.512-75.936v-14.752c4.352 0.208 8.704 0.576 13.056 0.576 311.296 0.032 622.592 0.032 933.888 0 4.352 0 8.704-0.368 13.056-0.576v14.752c-1.232 3.312-2.992 6.56-3.616 9.984zM512.064 464c114.784 0.096 208.016 96.96 207.936 216.048-0.080 119.136-93.488 216.064-208.096 215.952-114.784-0.112-207.984-96.976-207.904-216.112 0.080-119.232 93.312-215.984 208.048-215.888z" />
<glyph unicode="&#xe903;" glyph-name="delete" d="M852.96 528.96c0-172.112-0.192-344.224 0.288-516.32 0.048-17.744-4.912-30.896-23.040-38.288h-625.84c-18.208 7.328-23.12 20.48-23.072 38.24 0.48 172.4 0.272 344.8 0.256 517.2v8.672h121.536c0.112-1.696 0.368-3.616 0.368-5.552 0.016-138.272 0-276.544 0.064-414.816 0.016-22.88 22.272-37.44 43.2-28.192 12.8 5.632 18.128 15.536 18.096 28.608-0.144 74.72-0.080 149.44-0.080 224.16v195.824h121.904v-115.664c0-101.792-0.032-203.584 0.016-305.376 0-16.272 11.232-28.432 27.248-30.064 15.36-1.552 29.856 7.92 33.216 22.144 0.928 3.952 0.768 8.176 0.768 12.288l-0.032 413.056c0 1.12 0.16 2.24 0.272 3.84h121.68v-86.544c0-111.504-0.032-223.008 0-334.512 0-16.32 10.944-28.4 27.024-30.208 15.312-1.728 29.888 7.664 33.408 21.856 0.848 3.392 0.768 7.008 0.768 10.528 0.016 138.56 0 277.12-0.016 415.696 0 0.848 0.192 1.696 0.352 3.12h121.6v-9.696zM992 700.832c0.064-17.264 0.112-34.528 0-51.792-0.144-21.424-12.704-33.056-36.032-33.072-170.256-0.032-340.512 0-510.768 0-123.28 0-246.56 0.256-369.824-0.304-20.080-0.096-35.040 4.752-43.376 22.4v74.016c8.16 17.12 22.368 22.624 42.272 22.4 67.232-0.768 134.464-0.288 201.696-0.272h12.192c0 7.44-0.112 13.552 0.016 19.68 0.576 27.072 0.112 54.208 2.112 81.2 2.752 37.12 23.76 59.792 62.832 69.712 12.736 3.232 25.936 4.832 38.928 7.184h252.048l15.584-2.56c41.984-7.152 66.080-29.072 71.744-71.040 4.064-30.112 3.248-60.8 4.56-91.264 0.16-3.936 0.016-7.888 0.016-12.928h219.328c23.904 0 36.592-11.456 36.672-33.36zM416.64 734.848h191.2v58.144h-191.2v-58.144z" />
<glyph unicode="&#xe904;" glyph-name="search" d="M416 832c-155.456-0.448-288.464-133.776-288-304 0.464-155.424 133.68-288.32 304-288 155.2 0.336 288.448 133.888 288 304-0.448 155.376-133.856 288.448-304 288zM752 288c9.328-16.32 25.472-32.048 48-48 53.12-59.552 112.752-119.2 176-176 17.456-23.936 21.696-48.16 16-64-23.472-33.488-60.576-40.864-80-16-29.28 18.592-52.432 43.152-80 64-48.592 55.152-100.832 107.488-160 160 4.688 1.936 2.368 4 0 0-96.56-64.544-203.664-90.448-320-64-99.040 15.872-178.624 67.152-240 144-119.776 159.968-103.584 385.088 32 528 149.616 138.4 372.912 150.928 528 32 167.568-133.616 211.008-380.704 80-560z" />
<glyph unicode="&#xe905;" glyph-name="left" d="M784 4.736l-56.72-52.736-471.28 478.72 471.456 481.28 51.456-59.2-413.568-422.080 418.656-425.984z" />
<glyph unicode="&#xe906;" glyph-name="right" d="M256 859.264l56.72 52.736 471.28-478.72-471.456-481.28-51.456 59.2 413.568 422.080-418.656 425.984z" />
<glyph unicode="&#xe907;" glyph-name="top" d="M84.736 176l-52.736 56.72 478.72 471.28 481.28-471.456-59.2-51.456-422.080 413.568-425.984-418.656z" />
<glyph unicode="&#xe908;" glyph-name="bottom" d="M939.264 704l52.736-56.72-478.72-471.28-481.28 471.456 59.2 51.456 422.080-413.568 425.984 418.656z" />
<glyph unicode="&#xe909;" glyph-name="close" d="M512 352c-126.349-132.482-251.518-257.651-379.579-379.813l-4.421-4.187c-28.81 35.703-60.297 67.19-94.815 95.073l-1.185 0.927c126.832 129.76 252.608 255.68 384 384-133.088 124.544-259.040 250.624-384 368 35.504 43.184 68.896 76.528 96 112 131.838-127.012 256.988-252.162 379.783-379.598l4.217-4.402c126.621 132.22 251.78 257.379 379.584 379.798l4.416 4.202c29.337-35.231 60.769-66.663 94.827-95.050l1.173-0.95c-127.723-131.14-252.86-256.277-379.623-379.753l-4.377-4.247c132.557-126.261 257.726-251.43 379.807-379.566l4.193-4.434c-35.352-29.203-66.797-60.648-95.056-94.824l-0.944-1.176c-131.816 127.050-256.968 252.202-379.793 379.612l-4.207 4.388z" />
<glyph unicode="&#xe90a;" glyph-name="four" horiz-adv-x="4726" d="M1474.166 167.818h519.641v561.073h-519.641v-561.073zM1378.855-63.37c-78.454 0.315-117.681 43.717-117.918 129.182-0.788 254.267-0.788 508.613-0.079 762.959 0.236 89.167 38.046 130.284 120.753 130.599 236.15 0.866 472.3 0.866 708.45-0.158 76.721-0.394 114.452-42.535 115.003-125.873 0.866-129.654 0.236-259.387 0.158-389.12 0-126.267 0.394-252.613-0.158-378.88-0.394-85.071-39.227-128.315-117.839-128.63-236.15-0.788-472.3-1.024-708.45-0.079zM2639.163-63.37c-78.454 0.315-117.681 43.717-117.918 129.182-0.788 254.267-0.788 508.613-0.079 762.959 0.236 89.167 38.046 130.284 120.753 130.599 236.15 0.866 472.3 0.866 708.45-0.158 76.721-0.394 114.452-42.535 115.003-125.873 0.866-129.654 0.236-259.387 0.236-389.12-0.079-126.267 0.394-252.613-0.236-378.88-0.394-85.071-39.227-128.315-117.839-128.63-236.15-0.788-472.3-1.024-708.45-0.079zM2734.474 167.818h519.641v561.073h-519.641v-561.073zM3899.471-63.37c-78.454 0.315-117.681 43.717-117.918 129.182-0.788 254.267-0.788 508.613-0.079 762.959 0.236 89.167 38.046 130.284 120.753 130.599 236.15 0.866 472.3 0.866 708.45-0.158 76.721-0.394 114.452-42.535 115.003-125.873 0.866-129.654 0.236-259.387 0.236-389.12-0.079-126.267 0.394-252.613-0.236-378.88-0.394-85.071-39.227-128.315-117.839-128.63-236.15-0.788-472.3-1.024-708.45-0.079zM3994.782 167.818h519.641v561.073h-519.641v-561.073zM826.919-63.291c-236.15-0.788-472.3-1.024-708.45-0.079-78.375 0.315-117.602 43.717-117.839 129.182-0.788 254.267-0.866 508.613-0.079 762.959 0.236 89.167 38.046 130.284 120.753 130.599 236.15 0.866 472.3 0.866 708.45-0.158 76.721-0.394 114.452-42.535 115.003-125.873 0.866-129.654 0.236-259.387 0.158-389.12 0-126.267 0.394-252.613-0.158-378.88-0.394-85.071-39.227-128.315-117.839-128.63zM213.858 167.818h519.483v561.073h-519.483v-561.073z" />
<glyph unicode="&#xe90b;" glyph-name="two" horiz-adv-x="2206" d="M1474.166 167.818h519.641v561.073h-519.641v-561.073zM1378.855-63.37c-78.454 0.315-117.681 43.717-117.918 129.182-0.788 254.267-0.788 508.613-0.079 762.959 0.236 89.167 38.046 130.284 120.753 130.599 236.15 0.866 472.3 0.866 708.45-0.158 76.721-0.394 114.452-42.535 115.003-125.873 0.866-129.654 0.236-259.387 0.158-389.12 0-126.267 0.394-252.613-0.158-378.88-0.394-85.071-39.227-128.315-117.839-128.63-236.15-0.788-472.3-1.024-708.45-0.079zM826.919-63.291c-236.15-0.788-472.3-1.024-708.45-0.079-78.375 0.315-117.602 43.717-117.839 129.182-0.788 254.267-0.866 508.613-0.079 762.959 0.236 89.167 38.046 130.284 120.753 130.599 236.15 0.866 472.3 0.866 708.45-0.158 76.721-0.394 114.452-42.535 115.003-125.873 0.866-129.654 0.236-259.387 0.158-389.12 0-126.267 0.394-252.613-0.158-378.88-0.394-85.071-39.227-128.315-117.839-128.63zM213.858 167.818h519.483v561.073h-519.483v-561.073z" />
<glyph unicode="&#xe90c;" glyph-name="fill-right-bottom" d="M32-32l960 960v-960z" />
<glyph unicode="&#xe90d;" glyph-name="power" d="M935.312 485.344c-28.208 131.424-102.24 230.64-221.952 294.624-8.32 4.448-20 5.472-29.568 4.16-17.504-2.368-30.496-17.536-32.736-34.112-2.688-19.968 6.080-35.36 25.6-45.84 119.184-64.144 178.688-164.32 182.032-273.216 0.16-85.12-13.76-144.272-41.6-192.192-66.48-114.56-168.256-168.96-299.728-169.984-75.936-0.592-145.424 21.28-205.888 67.424-119.2 90.992-163.104 253.984-107.168 395.36 30.032 75.936 82.896 131.632 154.56 170.4 2.608 1.424 5.28 2.72 7.872 4.208 21.056 12.032 28.528 36.368 17.52 57.024-10.96 20.544-35.744 28.368-57.344 17.392-59.92-30.448-109.264-73.392-148.16-127.744-64.928-90.72-94.080-191.264-78.736-302.48 12.768-92.528 53.92-171.888 119.888-238.016 81.552-81.76 180.176-126.432 296.672-128.304 77.824-1.264 150 19.968 216.528 59.84 148.496 89.072 240.496 263.056 202.208 441.472zM481.232 389.52c8.144-18.288 27.568-27.648 47.712-23.616 19.056 3.792 32.88 20.688 32.928 41.568 0.16 76.512 0.064 153.040 0.080 229.552 0 75.872 0.032 151.728-0.064 227.6 0 5.552-0.16 11.344-1.6 16.624-5.44 19.6-25.008 32.752-44.48 30.528-21.936-2.528-38.256-18.976-38.288-41.008-0.272-155.024-0.176-310.032 0-465.072 0-5.408 1.488-11.2 3.712-16.176z" />
<glyph unicode="&#xe90e;" glyph-name="settings" d="M510.432 348.384c-55.040 0.688-98.208 44.8-97.392 99.488 0.832 55.744 44.576 97.92 100.816 97.152 53.76-0.72 96.256-45.184 95.504-99.904-0.768-54.192-44.96-97.424-98.928-96.736zM511.92 602.576c-87.68-0.24-156.896-69.904-156.544-157.6 0.304-84.736 71.12-154.56 156.384-154.176 85.984 0.384 155.6 70.56 155.264 156.56-0.336 85.568-70.16 155.424-155.104 155.216zM922.176 466.336c-9.92-5.008-21.008-7.744-31.696-11.232-85.024-27.776-115.296-129.056-59.232-198.656 8.703-10.681 17.067-20.161 25.777-29.308l-0.193 0.204c7.216-7.664 7.68-15.52 1.808-23.616-7.088-9.728-14.4-19.344-22.352-28.384-3.056-3.504-8.064-5.28-11.536-7.472-5.072 1.344-8.848 1.92-12.256 3.344-6.88 2.88-14.144 5.44-20.288 9.552-75.616 50.512-191.264-5.2-190.768-108.864 0.032-8.272-1.344-16.56-1.936-24.848-0.736-10.128-6.272-15.92-15.984-18.112-1.6-0.368-3.168-1.024-4.8-1.36-38.8-8.384-46.080-4.144-57.92 33.728-22.176 70.976-92.688 111.28-158.832 88-20.544-7.232-39.408-21.28-56.784-35.072-26.608-21.12-31.92-22.32-57.728-0.96-18.144 15.024-18.576 19.872-9.232 41.536 8.672 20.112 18.928 40.352 22.784 61.584 12 66.176-40.544 132.64-107.36 138.752-14.112 1.28-28.224 2.352-42.288 3.872-10.88 1.2-16.912 8.16-19.696 18.272-0.663 2.262-1.439 5.537-2.096 8.855l-0.144 0.873c-6.24 31.248-2.24 37.936 27.712 48.096 11.024 3.728 22.16 7.472 32.608 12.496 68.48 33.056 91.12 122.624 46.384 183.968-9.312 12.752-20.224 24.368-30.8 36.128-6.544 7.248-7.28 14.544-2.432 22.72 1.056 1.792 1.968 3.68 3.040 5.44 20.864 34.064 27.776 36.64 62.72 17.76 38.96-21.008 77.776-24.816 118.32-4.992 47.152 23.040 71.728 60.416 73.76 112.72 0.080 1.664-0.096 3.392 0.256 4.992 2.768 11.808 5.664 23.6 8.512 35.392 17.040 2.72 34.048 6.192 51.2 7.488 3.776 0.304 9.6-6.4 11.92-11.136 4.704-9.664 8.32-20 11.232-30.352 24.256-86.464 138.592-117.472 203.264-55.632 7.808 7.472 16.288 14.256 24.704 21.104 8.032 6.528 16.736 6.624 25.632 1.632 2.176-1.216 4.352-2.432 6.432-3.808 30.272-20.080 32.32-26.496 15.488-58.672-21.44-40.992-28.64-82.32-5.824-125.2 23.024-43.312 59.008-66.56 108.032-69.664 10.4-0.656 21.12-0.144 31.040-2.72 6.192-1.6 14.528-7.072 16-12.432 3.648-13.392 5.104-27.728 4.96-41.648-0.064-4.96-6.288-11.76-11.408-14.368zM979.6 550.144c-10.288 23.456-28.848 37.6-53.792 42.16-15.92 2.912-32.272 3.424-48.432 5.152-43.984 4.688-69.76 44.176-55.52 85.872 4.16 12.16 10.88 23.392 15.472 35.408 4.704 12.288 8.24 25.008 11.424 34.864-1.696 10.464-2.16 17.6-4.080 24.32-8.32 29.008-28.592 48.384-53.408 63.424-36.352 22.048-70.080 18.768-102.272-8.832-10.432-8.928-21.472-17.12-32.080-25.824-24.752-20.32-87.136-4.752-96.448 31.472-3.6 14.032-9.008 27.68-14.448 41.152-11.488 28.512-33.312 44.16-63.488 47.728-23.552 2.784-46.544-0.56-68.704-9.168-27.808-10.784-43.712-31.2-47.84-60.4-1.968-13.984-3.488-28.224-3.168-42.304 0.976-42.576-57.856-76.352-94.72-55.392-12.64 7.2-25.92 13.376-39.296 19.104-25.968 11.152-51.808 9.472-72.416-9.936-16.688-15.744-31.92-34.128-43.536-53.856-17.168-29.152-11.936-58.56 8.992-84.88 8.97-11.325 17.45-21.24 26.272-30.835l-0.352 0.387c26.736-28.912 11.68-90.8-28.688-102.64-13.968-4.080-27.712-9.056-41.184-14.512-25.504-10.336-42.512-28.88-44.96-56.576-1.68-18.768-1.184-38.4 2.48-56.832 8.96-44.88 31.232-63.488 76.8-68.112 12.848-1.296 25.856-1.456 38.56-3.632 37.872-6.432 62.352-46.352 50.4-82.848-4.768-14.56-12.352-28.16-18.448-42.256-14.128-32.704-10.496-63.568 14.416-88.976 14-14.288 31.040-26.704 48.832-35.92 28.96-14.992 57.376-10.208 82.576 10.88 10.864 9.12 21.792 18.144 32.288 27.648 28.832 26.176 90.032 7.808 100.56-28.048 4.192-14.336 9.328-28.464 14.912-42.336 11.712-28.992 33.968-46.16 64.688-47.44 20.8-0.864 42.656 1.856 62.608 7.776 30.832 9.184 49.184 31.84 53.28 64.384 1.856 14.848 1.984 29.92 3.808 44.768 5.168 42.080 54.096 68.912 92.432 50.88 13.184-6.176 25.936-13.36 39.36-18.96 27.264-11.36 53.040-7.92 76.448 10.256 18.312 14.309 32.822 32.641 42.328 53.715l0.36 0.893c12.288 27.296 10 53.68-7.296 78.080-7.904 11.2-16.448 22.288-26.448 31.552-31.456 29.152-16.384 95.36 27.872 107.248 15.195 4.198 28.071 8.928 40.447 14.563l-1.695-0.691c22.544 9.872 38.704 26.208 44.192 50.832 6.656 29.76 3.104 58.88-9.088 86.688z" />
<glyph unicode="&#xe90f;" glyph-name="question" d="M496.96 247.28h-9.264c-33.568 0-57.872 31.392-62.496 69.92l-11.584 97.056c-5.792 47.088 16.208 79.92 53.248 85.616 100.704 15.696 146.992 54.24 146.992 124.16v2.848c0 64.224-39.36 101.328-106.48 101.328-49.76 0-92.592-18.56-134.272-57.088-13.888-12.832-32.4-22.832-52.080-22.832-44 0-81.024 45.664-81.024 99.904 0 27.104 9.264 55.648 30.080 77.056 61.376 62.8 138.928 102.752 240.784 102.752 166.672 0 280.096-105.6 280.096-295.408v-2.848c0-181.248-101.856-255.456-228-286.848l-3.488-25.68c-4.64-37.12-28.928-69.92-62.496-69.92zM386.992 72.512c0 55.552 42.832 98.384 100.704 98.384s100.704-42.832 100.704-98.4v-2.304c0-55.552-42.832-98.384-100.704-98.384s-100.704 42.832-100.704 98.384v2.32z" />
<glyph unicode="&#xe910;" glyph-name="letter" d="M192 762.288c-58.912 0-106.672-48.096-106.672-107.424v-429.744c0-59.328 47.76-107.424 106.672-107.424h640c58.912 0 106.672 48.096 106.672 107.424v429.76c0 59.328-47.76 107.424-106.672 107.424h-640zM192 816h640c88.368 0 160-72.16 160-161.136v-429.744c0-88.96-71.632-161.12-160-161.12h-640c-88.368 0-160 72.16-160 161.136v429.744c0 88.96 71.632 161.12 160 161.12zM811.28 621.92c4.553 3.78 10.458 6.074 16.899 6.074 8.312 0 15.732-3.821 20.599-9.802l0.038-0.049c3.751-4.599 6.024-10.532 6.024-16.997 0-8.347-3.788-15.808-9.74-20.76l-0.044-0.035-342.88-282.432-331.264 282.736c-5.786 4.98-9.428 12.312-9.428 20.495 0 6.63 2.391 12.702 6.357 17.401l-0.033-0.040c4.902 5.821 12.194 9.494 20.344 9.494 6.605 0 12.646-2.412 17.291-6.404l-0.035 0.030 297.344-253.824 308.528 254.112z" />
<glyph unicode="&#xe911;" glyph-name="phone" d="M985.664 544.496c-14.528 86.704-50.624 163.728-109.28 229.392-85.856 96.16-193.824 146.96-320.064 153.952-8.96 0-15.344 0.416-21.664-0.080-13.808-1.056-22.656-10.88-22.656-24.592 0-15.744 8.576-23.040 26.176-24.64 28.864-2.656 58.432-3.040 86.32-9.984 153.76-38.272 254.656-133.904 302.656-284.752 11.456-35.968 15.584-73.2 16-110.88 0.192-14.976 11.136-25.232 25.504-24.912 14.816 0.336 24.16 9.584 23.28 25.232-1.344 23.792-2.336 47.808-6.272 71.264zM546.4 655.808c-4.848 0-9.76 0.48-14.56-0.096-10.944-1.328-18.176-8.096-19.568-17.584-1.648-11.328 3.904-22.448 14.080-26.384 4.384-1.712 9.44-2.080 14.224-2.24 60.848-1.936 112.128-43.968 126.112-104.24 2.704-11.648 2.88-23.856 4.4-35.792 1.664-13.024 11.28-21.408 24.368-21.472 13.888-0.064 22.88 7.232 24.256 21.024 0.72 7.28-0.144 14.784-0.784 22.144-7.792 90.224-83.36 162.432-172.528 164.64zM819.904 103.264c-22.88-21.328-45.424-43.104-69.408-63.136-18.928-15.808-42.624-22.464-66.96-23.728-20.080-1.040-40.4 0.096-60.464 1.888-16.048 1.424-30.72 7.68-44.704 16.256-145.84 89.376-276.736 196-385.216 328.32-38.4 46.816-72.48 96.544-95.152 152.96-18.784 46.736-23.776 94.8-10.688 143.968 3.904 14.72 11.328 27.36 22.56 38.16 23.904 23.040 47.264 46.688 70.832 70.048l203.824-202.080c-1.232-1.44-2.896-3.6-4.832-5.536-12.224-12.208-24.704-24.144-36.72-36.544-41.12-42.448-39.408-103.664 4.16-143.68 25.809-23.937 65.046-59.795 104.432-95.49l16.112-14.382c37.392-33.792 102.32-31.648 139.744 4.416 11.472 11.072 22.544 22.544 33.104 33.12l191.472-189.808c-3.28-4.080-7.088-10.048-12.080-14.736zM653.040 353.152c-12.336 12.208-24.72 12.16-37.024 0.032-16.080-15.792-31.872-31.872-48.064-47.584-21.040-20.384-50.24-20.672-71.952-0.912-38.224 34.784-76.384 69.632-114.544 104.448-24.928 22.784-25.744 53.456-1.984 77.28 17.92 17.952 36.064 35.68 53.92 53.664 11.424 11.52 11.664 26.064 0.24 37.28-52.464 51.595-129.214 126.831-206.039 201.991l-29.465 28.729c-10.944 10.688-24.128 10.608-34.96-0.416-30.72-31.232-61.2-62.72-91.776-94.112-15.904-16.32-25.968-35.888-31.68-57.616-14.704-55.904-7.52-110.144 14.16-162.864 23.888-57.92 58.752-109.376 98.24-157.712 110.944-135.744 243.424-247.184 392.016-340.128 13.28-8.32 28.64-14.496 43.872-18.288 19.36-4.784 39.568-6.112 59.424-8.928 42.656 1.6 84.176 8.832 117.2 35.984 38.352 31.536 73.296 67.184 109.216 101.6 8.688 8.32 7.744 20.944-0.064 28.688-50.253 49.906-122.171 121.232-194.12 192.527l-26.632 26.353zM787.040 571.888c26.576-44 37.92-92.56 38.976-143.84 0.368-17.92 12.096-28.624 28.336-28 16.896 0.608 26.592 11.2 25.568 30.112-0.992 18.896-2.48 37.888-5.456 56.576-24.768 154.784-166.72 277.984-323.296 281.248-4 0-7.984 0.080-12-0.016-17.008-0.384-27.968-12.064-27.12-28.896 0.864-17.104 10.784-24.736 31.584-25.12 107.504-2.096 188.224-50.72 243.408-142.080z" />
<glyph unicode="&#xe912;" glyph-name="check" d="M32 406.048l134.864 128.608c67.488-65.104 135.552-130.768 204.368-197.12l484.8 462.464 135.968-130.144-618.192-589.856-341.808 326.048z" />
<glyph unicode="&#xe913;" glyph-name="minus" d="M944.16 496h-912.16v-95.712h960v95.712z" />
<glyph unicode="&#xe914;" glyph-name="plus" d="M576.544 383.456v-415.456h-132.384v415.456h-412.16v132.384h412.144v412.16h132.4v-412.144h415.456v-132.4z" />
<glyph unicode="&#xe915;" glyph-name="fill-left" d="M751.744-13.376c0-2.432 0.688-5.184-0.192-7.232-1.792-4.080-3.68-9.76-6.928-11.056-3.296-1.312-8.48 1.472-12.448 3.328-2.352 1.088-4 3.84-5.952 5.84l-443.408 455.136c-14.448 14.832-14.48 15.856 0.288 31.008 148.352 152.288 296.704 304.608 445.312 456.64 4.064 4.16 11.136 5.216 16.8 7.728 2.176-5.968 6.24-11.936 6.256-17.92 0.352-154.096 0.272-308.208 0.272-462.32v-461.12z" />
<glyph unicode="&#xe916;" glyph-name="fill-right" d="M272.256 909.376c0 2.432-0.688 5.184 0.192 7.232 1.792 4.080 3.68 9.76 6.928 11.056 3.296 1.312 8.48-1.472 12.448-3.328 2.352-1.088 4-3.84 5.952-5.84l443.408-455.136c14.448-14.832 14.48-15.856-0.288-31.008-148.352-152.288-296.704-304.608-445.312-456.64-4.064-4.16-11.136-5.216-16.8-7.728-2.176 5.968-6.24 11.936-6.256 17.92-0.352 154.096-0.272 308.208-0.272 462.32v461.136z" />
<glyph unicode="&#xe917;" glyph-name="fill-top" d="M48 208c0.192 0.256-2.56-0.432 0 0-8.688 2.24-14.368 4.128-16 0-0.96 10.672 1.808 15.84 0 16 4.752 6.176 7.504 7.808 16 16 145.216 141.584 296.912 289.392 448 432 15.456 19.632 16.48 19.664 32 0 151.92-143.456 304.24-291.808 464-448-3.584 3.52-2.512-3.552 0-16-5.968 4.608-11.936 0.544-16 0-156.016 0.176-310.128 0.256-464 0-153.952 0.256-307.664 0.256-464 0z" />
<glyph unicode="&#xe918;" glyph-name="fill-bottom" d="M973.376 687.744c2.432 0 5.184 0.688 7.232-0.192 4.080-1.792 9.76-3.68 11.056-6.928 1.312-3.296-1.472-8.48-3.328-12.448-1.088-2.352-3.84-4-5.84-5.952l-455.136-443.408c-14.832-14.448-15.856-14.48-31.008 0.288-152.288 148.352-304.608 296.704-456.64 445.312-4.16 4.064-5.216 11.136-7.728 16.8 5.968 2.176 11.936 6.24 17.92 6.256 154.096 0.352 308.208 0.272 462.32 0.272h461.12z" />
<glyph unicode="&#xe919;" glyph-name="star" d="M512.88 155.2l-297.2-157.888 58.32 331.44-242 233.872 333.248 46.96 147.632 302.416 147.632-302.416 333.248-46.96-242-233.872 58.32-331.44z" />
<glyph unicode="&#xe91a;" glyph-name="youtube" d="M641.344 428.256c-61.264-39.312-122.656-78.448-183.84-117.856-8.976-5.76-18.096-8.704-28.544-4.224-10.64 4.56-13.024 12.944-12.96 22.656 0.16 39.616 0.064 79.2 0.064 118.832 0 39.616 0.112 79.2-0.064 118.832-0.064 10.144 2.432 18.752 13.696 23.52 10.784 4.528 19.552 0.656 28.352-5.008 60.88-39.136 121.904-78.016 182.816-117.056 20-12.864 20.208-27.024 0.48-39.68zM977.552 637.472c-6.72 44.016-34.144 70.24-84.96 75.696-66.656 7.184-133.552 13.504-200.576 17.456-188.928 11.2-377.296 4.736-564.944-17.664-40.272-4.816-72.64-30.656-77.856-65.808-5.066-31.427-10.024-73.568-13.54-116.118l-0.444-6.666c-7.552-92.176-1.392-183.984 13.776-275.36 5.776-34.928 37.552-60.736 78.112-65.728 128.048-15.84 256.88-22.048 380.592-23.28 129.856 0.928 253.728 7.568 377.056 21.456 56.32 6.336 85.904 31.52 92.864 77.328 9.145 56.83 14.37 122.346 14.37 189.083 0 66.922-5.254 132.617-15.372 196.695l0.922-7.090z" />
</font>
</defs>
</svg>
