<svg xmlns="http://www.w3.org/2000/svg" width="54" height="54" viewBox="0 0 54 54">
    <g fill="none" fill-rule="evenodd">
        <circle cx="27" cy="27" r="27" fill="#2B63EA"/>
        <path fill="#FFF" d="M24.023 34.189l-2.177-2.184-3.458-3.46c-.521-.522-.513-1.145-.002-1.678.329-.343.7-.555 1.177-.41a1.4 1.4 0 0 1 .553.335c1.242 1.225 2.472 2.461 3.704 3.697.056.055.094.128.172.236.092-.118.138-.194.2-.255 3.344-3.347 6.692-6.691 10.034-10.041.34-.341.725-.531 1.189-.372.49.169.838.517.963 1.04.08.341-.02.647-.242.914-.051.061-.11.116-.167.173-3.932 3.932-7.865 7.863-11.796 11.797-.056.056-.094.13-.15.208"/>
    </g>
</svg>
