<svg xmlns="http://www.w3.org/2000/svg" width="60" height="47" viewBox="0 0 60 47">
    <path fill="rgb(129, 129, 129)" fill-rule="evenodd" d="M36.044 30.228c2.5-2.385 3.307-5.31 2.687-8.634L27.997 32.368c2.422.813 5.856-.05 8.047-2.14m-.975-13.986c-3.884-2.76-8.67-1.687-11.346.921-2.734 2.665-3.894 7.467-1.213 11.543l-3.14 3.132c-3.671-3.994-4.445-11.98.755-17.483 5.433-5.749 13.769-5.14 18.074-1.27l-3.13 3.157m-18.981 19.14a31.33 31.33 0 0 1-6.417-4.238 31.098 31.098 0 0 1-6.08-6.982c-.212-.33-.314-.588-.057-.98 3.972-6.061 9.324-10.354 16.151-12.772.132-.048.268-.085.44-.084-3.675 2.93-5.95 6.669-6.494 11.356-.54 4.662.733 8.84 3.648 12.51l-1.191 1.19M51.195 0c-.138.204-.258.458-.445.646-2.351 2.375-4.72 4.732-7.06 7.117-.393.4-.693.501-1.247.276C36.79 5.735 30.928 5.026 24.91 6.014 13.95 7.812 5.717 13.635.091 23.21c-.124.211-.12.618.002.835 3.114 5.6 7.51 9.922 13.048 13.092.251.143.497.295.902.536l-7.379 7.382L8.541 47 53.256 2.115C52.654 1.497 51.995.822 51.196 0m8.68 23.208c-1.657-2.872-3.588-5.535-6.01-7.795-1.596-1.49-3.32-2.843-4.918-4.198l-2.275 2.245c.13.093.286.207.446.313 3.667 2.427 6.68 5.507 9.125 9.165.33.495.36.842.02 1.357-3.903 5.93-9.197 10.072-15.837 12.498-.198.072-.405.117-.736.21 8.434-6.546 7.571-16.74 4.615-21.318-.567.596-1.098 1.204-1.684 1.75-.36.334-.408.606-.226 1.071 1.797 4.602 1.31 8.976-1.536 12.998-3.643 5.148-10.203 6.98-16.052 4.608-.222-.09-.623-.112-.76.021-1.332 1.283-2.626 2.606-4 3.989.192.072.281.11.373.138 5.01 1.467 10.1 1.841 15.234.89 10.594-1.966 18.61-7.676 24.119-16.957.19-.32.343-.57.103-.985"/>
</svg>
