<svg xmlns="http://www.w3.org/2000/svg" width="60" height="36" viewBox="0 0 60 36">
    <path fill="rgb(129, 129, 129)" fill-rule="evenodd" d="M56.605 18.431c-4.013 6.048-9.407 10.332-16.288 12.736-.108.037-.224.055-.439.107 8.848-6.384 9.028-19.81.03-26.574.177.016.274.013.367.036.118.028.232.073.346.114 6.691 2.435 11.986 6.624 15.912 12.542.233.351.347.625.072 1.04M30.186 31.415c-7.49.02-13.595-5.98-13.605-13.37A13.473 13.473 0 0 1 30.088 4.509c7.442-.014 13.485 6.018 13.5 13.474.015 7.332-6.051 13.413-13.402 13.433m-12.085-.904c-6.056-2.526-10.873-6.539-14.476-12.004-.212-.319-.352-.574-.093-.975 3.989-6.155 9.48-10.392 16.402-12.815.066-.022.141-.02.212-.022.019-.002.038.018.056.028-8.795 6.47-8.896 19.816-.049 26.561-.684-.258-1.378-.492-2.052-.773m41.376-14.07C52.382 4.8 38.452-1.758 25.002.412 13.996 2.19 5.735 8.012.088 17.554c-.123.209-.115.621.01.832C6.863 29.69 16.93 35.405 29.87 36c1.531-.12 2.88-.164 4.208-.341 10.96-1.464 19.363-6.91 25.361-16.144.726-1.118.756-1.894.038-3.073M30.18 8.995c-5.054-.017-9.063 3.95-9.094 9.003-.031 4.86 4.008 8.892 8.942 8.93 4.957.036 9.007-3.94 9.056-8.892.048-4.935-3.979-9.024-8.904-9.041"/>
</svg>
