<?xml version="1.0" encoding="UTF-8"?>
<svg width="20px" height="27px" viewBox="0 0 20 27" version="1.1" xmlns="http://www.w3.org/2000/svg" xmlns:xlink="http://www.w3.org/1999/xlink">
    <!-- Generator: Sketch 51.2 (57519) - http://www.bohemiancoding.com/sketch -->
    <title>Fill 1</title>
    <desc>Created with Sketch.</desc>
    <defs></defs>
    <g id="Page-1" stroke="none" stroke-width="1" fill="none" fill-rule="evenodd">
        <g id="1.10.Fabric-2" transform="translate(-1168.000000, -603.000000)" fill="#FFFFFF">
            <g id="Fabrics" transform="translate(786.000000, 226.000000)">
                <g id="Group">
                    <g id="Group-7" transform="translate(30.000000, 362.000000)">
                        <g id="Leaf" transform="translate(342.000000, 0.000000)">
                            <path d="M27.5290216,30.343996 C27.1357826,33.6209877 24.710481,36.4392005 20.4179496,38.7003248 C20.0247106,36.5702802 19.3034448,31.1960138 21.6632065,28.1811815 C22.8101536,26.7065352 24.5466314,25.9855971 26.9388354,25.9855971 C26.971933,25.9855971 27.0043752,25.9855971 27.0374728,25.9528271 C27.495924,27.3947035 27.7256411,28.8693497 27.5290216,30.343996 M13.0771606,31.5564829 C15.1416653,31.7855446 16.714949,34.5709876 17.7963563,37.422298 C15.3055149,35.7179346 13.7001167,33.7517396 13.0771606,31.5564829 M17.8618961,18.5795959 C16.845701,22.4136761 17.140958,28.1484116 17.6980465,33.0963413 C16.4855596,31.1960138 14.8470638,29.7541375 12.8153289,29.7541375 C12.6187094,25.4940483 15.5024621,21.266729 17.8618961,18.5795959 M26.3165347,24.2160216 C23.6949413,24.3471012 21.6304366,25.2974288 20.2541,27.0997742 C19.7949935,27.6896327 19.4348521,28.3122612 19.1726928,29.0004294 C18.7794538,23.6917029 19.0088432,18.5795959 20.7125512,16.6461708 C22.1547552,18.0552772 24.7435786,20.90626 26.3165347,24.2160216 M20.778091,14.2211969 C20.4503919,13.9262677 19.9588431,13.9262677 19.6311439,14.2211969 C19.2379049,14.5488961 10.0623282,22.3809062 11.0785234,30.5733854 C11.5369745,34.3746958 14.0933557,37.5533777 18.681144,40.0766613 C18.8449936,40.6334222 18.9757456,41.1580685 19.0740553,41.6165197 C19.1726928,42.1739359 19.2710025,42.567175 19.3034448,42.7965644 C19.4017545,43.2225733 19.7625513,43.5175025 20.1885602,43.5175025 C20.2541,43.5175025 20.3196399,43.5175025 20.3524098,43.4847326 C20.8439586,43.3864229 21.1388878,42.9273163 21.073348,42.4357676 C21.0402504,42.2394758 20.9419406,41.7803692 20.8111886,41.1908384 C20.778091,40.9942189 20.7456488,40.7972717 20.680109,40.56821 C25.8905257,37.9793866 28.8067206,34.6040852 29.2982694,30.5406155 C30.3144645,22.3809062 21.1716577,14.5488961 20.778091,14.2211969" id="Fill-1" transform="translate(20.188527, 28.758751) rotate(-330.000000) translate(-20.188527, -28.758751) "></path>
                        </g>
                    </g>
                </g>
            </g>
        </g>
    </g>
</svg>