<svg xmlns="http://www.w3.org/2000/svg" width="50" height="59" viewBox="0 0 50 59">
    <path fill="#2B63EA" fill-rule="evenodd" d="M10.507 54.794c3.92-7.677-.838-18.805-7.383-21.44l7.383 21.44zm1.71-28.27l.544-.188c3.323-1.144 6.644-2.295 9.971-3.426.646-.22 1.056-.628 1.31-1.204.941-2.133-.318-4.535-1.814-5.36a2.11 2.11 0 0 0-1.82-.145c-1.007.362-2.013.731-3.036 1.044-2.516.768-4.904 1.958-7.54 2.348l2.385 6.93zm-.777-14.105c-.693.239-1.317.48-1.957.666-.618.18-.922.587-1.058 1.141-.205.829-.017 1.59.418 2.284.638 1.016 1.295 1.216 2.492.804 2.824-.972 5.653-1.93 8.47-2.921 1.275-.449 2.444-.306 3.545.315 1.314.74 2.158 1.856 2.633 3.224 1.633 4.708 3.249 9.42 4.872 14.132l.137.4.113-.042-.81-2.351 1.923-.662.848 2.462 3.872-1.333-.847-2.462 1.93-.665.846 2.46 3.78-1.3-.847-2.46 1.924-.662.845 2.452 2.76-.95-8.267-24.012-2.773.954.726 2.11-1.94.667-.725-2.109-3.762 1.296.721 2.095-1.957.674-.723-2.1-3.855 1.328.724 2.103-1.936.667-.724-2.103-3.76 1.294.726 2.105-1.944.67-.72-2.091-3.773 1.299.72 2.09-1.914.66-.733-2.13zM34.185 48.11l-8.57-24.888-1.937 1.544.782 2.269-1.932.665-.818-2.376-3.775 1.3.82 2.381-1.917.66-.822-2.387-3.79 1.305.82 2.38-1.931.665-.82-2.382-6.461 2.225c4.591 2.249 7.38 5.88 8.974 10.395 1.598 4.523 1.725 9.11-.436 13.748l6.293-2.166-.723-2.1 1.937-.668.723 2.102 3.763-1.295-.725-2.104 1.938-.667.72 2.089 3.777-1.301-.72-2.09 1.92-.662.727 2.11 2.183-.752zm15.729-19.974l-18.227 6.276 5.104 14.824-27.158 9.35L.04 30.728l10.19-3.509c-.054-.193-.088-.335-.136-.472-1.144-3.31-2.295-6.616-3.432-9.928-.324-.943-.483-1.913-.235-2.924.315-1.286 1.089-2.172 2.429-2.632 7.871-2.7 15.738-5.414 23.606-8.123L39.847.596l.522-.18 9.545 27.721z"/>
</svg>
