<svg xmlns="http://www.w3.org/2000/svg" width="54" height="54" viewBox="0 0 54 54">
    <g fill="none" fill-rule="evenodd">
        <circle cx="27" cy="27" r="27" fill="#2B63EA"/>
        <path fill="#FFF" d="M36.907 19.437l-.017-.059H18.104l-.017.06 9.41 7.734 9.41-7.735zm.81 2.334c-.108.084-.17.131-.23.18l-9.184 7.545c-.552.454-1.06.454-1.612.001l-9.204-7.561c-.058-.048-.121-.089-.21-.153v12.561c0 .854.448 1.316 1.278 1.316h17.882c.83 0 1.28-.462 1.28-1.315V21.771zM27.483 37.999c-2.998 0-5.997.003-8.995-.002-1.72-.002-3.093-1.148-3.417-2.847a4.395 4.395 0 0 1-.068-.815C15 29.778 15 25.22 15.001 20.665c.001-1.8 1.03-3.18 2.67-3.572a3.66 3.66 0 0 1 .844-.089C24.503 17 30.49 17 36.479 17.002c2.006 0 3.5 1.49 3.508 3.553.017 4.63.017 9.26 0 13.89-.008 2.063-1.502 3.55-3.508 3.553-2.999.003-5.997 0-8.996 0z"/>
    </g>
</svg>
