<svg xmlns="http://www.w3.org/2000/svg" width="54" height="54" viewBox="0 0 54 54">
    <g fill="none" fill-rule="evenodd">
        <circle cx="27" cy="27" r="27" fill="#2B63EA"/>
        <path fill="#FFF" d="M34.012 26.152v10.13c0 .564-.142.709-.695.709H19.71c-.582 0-.724-.145-.724-.737V25.862h15.025v.29zm-12.43-6.173c.018-2.493 1.764-4.526 4.21-4.912 2.533-.4 5.024 1.354 5.519 3.895.061.314.098.637.101.956.012 1.244.006 2.488.006 3.732 0 .05-.005.1-.009.18h-9.81c-.006-.077-.017-.149-.017-.221-.001-1.21-.007-2.42 0-3.63zm13.199 3.86c-.442.023-.887.004-1.368.004v-.316c-.01-1.352.027-2.707-.038-4.056-.141-2.955-2.377-5.601-5.237-6.266-.366-.085-.74-.137-1.109-.205h-1.058c-.46.091-.928.15-1.377.28-2.99.864-4.987 3.579-5.006 6.784-.007 1.16-.002 2.32-.002 3.479v.3c-.464 0-.9.02-1.334-.004-.612-.034-1.04.197-1.252.79v12.187c.04.145.07.292.119.433.315.903.937 1.467 1.859 1.696.064.016.126.037.19.055h14.715c.029-.015.056-.037.086-.044 1.089-.249 1.75-.924 1.988-2.022.009-.04.028-.079.043-.118V24.63c-.202-.583-.613-.823-1.22-.79zm-8.29 10.59c.567.005.993-.437.997-1.044.004-.592.001-1.184.001-1.777v-1.726-.051c-.01-.588-.438-1.031-.993-1.029-.555.003-.982.445-.984 1.035-.005 1.185-.004 2.37 0 3.555.002.594.421 1.033.978 1.037z"/>
    </g>
</svg>
