<svg xmlns="http://www.w3.org/2000/svg" width="62" height="6" viewBox="0 0 62 6">
    <path fill="#000" fill-rule="evenodd" d="M48.918 3.909V0h1.202v6h-.846l-3.47-3.908V6h-1.202V0h.845l3.471 3.909zm3.426 2.09V0h1.202v6h-1.202zM35.584.567A2.976 2.976 0 0 1 36.821 3c0 .994-.472 1.886-1.237 2.434-.507.36-1.157.566-2.145.566h-1.957V0h1.957c.988 0 1.638.206 2.145.566zm-.418 3.737c.285-.343.454-.806.454-1.303 0-.497-.17-.96-.454-1.303-.347-.42-.855-.668-1.593-.668h-.89V4.97h.89c.738 0 1.246-.248 1.593-.668zM61.155 0H62v6h-1.201V2.657l-1.496 2.357h-.836l-1.495-2.357V6H55.77V0h.846l2.27 3.591 2.269-3.59zM1.2 4.971h3.04V6H0V0h4.152v1.029h-2.95V4.97zm2.106.893H4.1V5.1h-.793v.764zM7.89 0h.845l2.67 6H10.15L9.563 4.67H7.062L6.474 6H5.22l2.67-6zm.418 1.869l-.792 1.774H9.1l-.792-1.774zM12.868 0h1.201v4.971h2.625V6h-3.826V0zm5.34 6V0h1.202v6h-1.202zm6.986-6h1.584l-2.74 2.743L27.107 6h-1.54l-2.732-2.948V6h-1.201V0h1.201v2.4L25.194 0zm14.697 3.3v1.671h2.625V6H38.69V0h3.737v1.029h-2.536V2.27h1.913V3.3h-1.913z"/>
</svg>
