<svg xmlns="http://www.w3.org/2000/svg" width="28" height="13" viewBox="0 0 28 13">
    <path fill="#000" fill-rule="evenodd" d="M18.715 10.057h6.597V2.934h-6.597v7.123zm-1.21 2.935c-.996-.004-1.494-.555-1.497-1.64-.01-3.228-.01-6.457-.001-9.686C16.01.534 16.49.012 17.54.008c2.998-.011 5.996-.011 8.994.002.974.005 1.453.54 1.46 1.598.011 1.646.003 3.293.002 4.94 0 1.603.005 3.207-.002 4.81-.005 1.08-.498 1.629-1.496 1.633-2.998.01-5.996.013-8.994.001zm-7.007-.001c-2.998.01-5.996.013-8.994.001-.995-.004-1.493-.555-1.496-1.64-.01-3.228-.011-6.457-.001-9.686C.01.534.49.012 1.54.008c2.998-.011 5.996-.011 8.994.002.974.005 1.453.54 1.46 1.598.011 1.646.003 3.293.002 4.94 0 1.603.005 3.207-.002 4.81-.005 1.08-.498 1.629-1.496 1.633zm-7.783-2.934H9.31V2.934H2.715v7.123z"/>
</svg>
